<svg width="1080" height="1080" viewBox="0 0 1080 1080" fill="none" xmlns="http://www.w3.org/2000/svg">
<rect width="1080" height="1080" fill="url(#paint0_linear_1_3)"/>
<path d="M516.424 489.168C518.088 489.168 519.496 489.584 520.648 490.416C521.8 491.184 522.376 492.144 522.376 493.296C522.376 495.344 521.736 497.008 520.456 498.288C519.176 499.504 517.352 500.112 514.984 500.112C511.272 500.112 508.456 500.144 506.536 500.208C506.408 500.976 505.832 504.432 504.808 510.576C503.656 517.424 502.952 521.616 502.696 523.152L500.68 535.728C499.272 545.136 498.152 553.008 497.32 559.344C498.664 559.28 500.488 559.248 502.792 559.248C506.184 559.248 508.488 559.696 509.704 560.592C510.92 561.488 511.528 562.832 511.528 564.624C511.528 566.288 510.856 567.696 509.512 568.848C508.232 570 506.408 570.576 504.04 570.576C502.44 570.576 499.912 570.512 496.456 570.384C493.256 570.256 491.144 570.192 490.12 570.192C486.088 570.192 481.672 570.544 476.872 571.248C474.76 571.568 473.256 571.728 472.36 571.728C470.952 571.728 469.768 571.344 468.808 570.576C467.848 569.808 467.368 568.688 467.368 567.216C467.368 564.912 468.392 563.12 470.44 561.84C472.488 560.56 475.368 559.888 479.08 559.824L483.592 559.728L483.88 557.616C485.416 547.376 486.536 540.144 487.24 535.92L489.352 523.344C490.632 515.92 491.784 508.272 492.808 500.4L484.744 500.496C482.44 500.496 480.84 500.144 479.944 499.44C479.112 498.672 478.696 497.616 478.696 496.272C478.696 491.92 481.832 489.584 488.104 489.264C491.048 489.136 494.632 489.072 498.856 489.072L516.424 489.168ZM539.475 570.48C533.203 570.48 528.307 568.72 524.787 565.2C521.331 561.616 519.603 556.912 519.603 551.088C519.603 545.904 520.627 541.36 522.675 537.456C524.723 533.552 527.379 530.544 530.643 528.432C533.907 526.32 537.331 525.264 540.915 525.264C544.435 525.264 547.155 526.32 549.075 528.432C551.059 530.48 552.051 533.136 552.051 536.4C552.051 539.088 551.443 541.36 550.227 543.216C549.075 545.072 547.539 546 545.619 546C544.403 546 543.411 545.712 542.643 545.136C541.939 544.56 541.587 543.76 541.587 542.736C541.587 542.288 541.651 541.776 541.779 541.2C541.907 540.624 542.003 540.208 542.067 539.952C542.387 538.992 542.547 538.096 542.547 537.264C542.547 536.432 542.323 535.792 541.875 535.344C541.491 534.896 540.915 534.672 540.147 534.672C538.675 534.672 537.299 535.344 536.019 536.688C534.739 537.968 533.715 539.728 532.947 541.968C532.179 544.208 531.795 546.672 531.795 549.36C531.795 556.784 535.027 560.496 541.491 560.496C544.115 560.496 546.931 559.632 549.939 557.904C553.011 556.112 556.019 553.456 558.963 549.936C559.731 549.04 560.595 548.592 561.555 548.592C562.387 548.592 563.027 548.976 563.475 549.744C563.987 550.512 564.243 551.568 564.243 552.912C564.243 555.344 563.635 557.328 562.419 558.864C559.411 562.576 555.795 565.456 551.571 567.504C547.411 569.488 543.379 570.48 539.475 570.48ZM605.443 540.528C606.275 540.528 606.915 540.944 607.363 541.776C607.811 542.608 608.035 543.664 608.035 544.944C608.035 548.016 607.107 549.84 605.251 550.416C601.411 551.76 597.187 552.528 592.579 552.72C591.363 558.096 588.963 562.416 585.379 565.68C581.795 568.88 577.731 570.48 573.187 570.48C569.347 570.48 566.051 569.552 563.299 567.696C560.611 565.84 558.563 563.376 557.155 560.304C555.747 557.232 555.043 553.904 555.043 550.32C555.043 545.456 555.971 541.136 557.827 537.36C559.683 533.52 562.243 530.544 565.507 528.432C568.771 526.256 572.387 525.168 576.355 525.168C581.219 525.168 585.123 526.864 588.067 530.256C591.075 533.584 592.835 537.712 593.347 542.64C596.355 542.448 599.939 541.808 604.099 540.72C604.611 540.592 605.059 540.528 605.443 540.528ZM573.955 560.304C576.003 560.304 577.763 559.472 579.235 557.808C580.771 556.144 581.795 553.744 582.307 550.608C580.323 549.264 578.787 547.504 577.699 545.328C576.675 543.152 576.163 540.848 576.163 538.416C576.163 537.392 576.259 536.368 576.451 535.344H575.971C573.411 535.344 571.267 536.592 569.539 539.088C567.875 541.52 567.043 544.976 567.043 549.456C567.043 552.976 567.715 555.664 569.059 557.52C570.467 559.376 572.099 560.304 573.955 560.304ZM606.612 570.48C604.18 570.48 602.452 569.2 601.428 566.64C600.468 564.08 599.988 559.984 599.988 554.352C599.988 546.032 601.172 538.128 603.54 530.64C604.116 528.784 605.044 527.44 606.324 526.608C607.668 525.712 609.524 525.264 611.892 525.264C613.172 525.264 614.068 525.424 614.58 525.744C615.092 526.064 615.348 526.672 615.348 527.568C615.348 528.592 614.868 530.896 613.908 534.48C613.268 537.04 612.756 539.28 612.372 541.2C611.988 543.12 611.668 545.488 611.412 548.304C613.524 542.8 615.892 538.32 618.516 534.864C621.14 531.408 623.7 528.944 626.196 527.472C628.756 526 631.092 525.264 633.204 525.264C635.252 525.264 636.788 525.808 637.812 526.896C638.9 527.92 639.444 529.456 639.444 531.504C639.444 533.168 639.092 536.304 638.388 540.912C637.748 544.816 637.236 548.528 636.852 552.048C636.468 555.504 636.276 559.376 636.276 563.664C636.276 566.096 635.764 567.856 634.74 568.944C633.78 569.968 632.18 570.48 629.94 570.48C627.828 570.48 626.292 569.936 625.332 568.848C624.372 567.76 623.892 566.128 623.892 563.952C623.892 561.392 624.34 557.168 625.236 551.28C626.004 546.16 626.388 542.896 626.388 541.488C626.388 540.464 626.036 539.952 625.332 539.952C624.5 539.952 623.316 541.04 621.78 543.216C620.308 545.328 618.772 548.144 617.172 551.664C615.636 555.184 614.388 558.896 613.428 562.8C612.724 565.808 611.892 567.856 610.932 568.944C610.036 569.968 608.596 570.48 606.612 570.48Z" fill="#183153"/>
<path d="M685.488 573.48C677.872 573.48 671.248 572.104 665.616 569.352C659.984 566.536 655.664 562.568 652.656 557.448C649.648 552.328 648.144 546.376 648.144 539.592C648.144 530.184 649.904 521.832 653.424 514.536C657.008 507.24 661.84 501.608 667.92 497.64C674 493.608 680.752 491.592 688.176 491.592C695.088 491.592 700.336 493.384 703.92 496.968C707.504 500.488 709.296 505.16 709.296 510.984C709.296 514.888 708.592 518.024 707.184 520.392C705.84 522.76 703.888 523.944 701.328 523.944C699.536 523.944 698.128 523.528 697.104 522.696C696.08 521.864 695.568 520.648 695.568 519.048C695.568 518.472 695.696 517.416 695.952 515.88C696.336 513.96 696.528 512.424 696.528 511.272C696.528 505.448 693.424 502.536 687.216 502.536C682.992 502.536 678.96 503.912 675.12 506.664C671.28 509.416 668.176 513.48 665.808 518.856C663.44 524.168 662.256 530.504 662.256 537.864C662.256 545.544 664.4 551.496 668.688 555.72C672.976 559.88 679.312 561.96 687.696 561.96C691.856 561.96 696.048 561.448 700.272 560.424C704.56 559.336 709.296 557.704 714.48 555.528C715.44 555.144 716.24 554.952 716.88 554.952C717.904 554.952 718.672 555.336 719.184 556.104C719.696 556.872 719.952 557.864 719.952 559.08C719.952 562.984 717.84 565.864 713.616 567.72C709.072 569.704 704.336 571.176 699.408 572.136C694.544 573.032 689.904 573.48 685.488 573.48ZM724.997 521.928C722.309 521.928 720.293 521.32 718.949 520.104C717.605 518.824 716.933 517.064 716.933 514.824C716.933 512.584 717.797 510.728 719.525 509.256C721.317 507.72 723.525 506.952 726.149 506.952C728.517 506.952 730.437 507.528 731.909 508.68C733.381 509.832 734.117 511.464 734.117 513.576C734.117 516.136 733.285 518.184 731.621 519.72C729.957 521.192 727.749 521.928 724.997 521.928ZM724.229 573.48C720.069 573.48 717.029 572.008 715.109 569.064C713.253 566.12 712.325 562.216 712.325 557.352C712.325 554.472 712.677 550.792 713.381 546.312C714.149 541.768 715.109 537.544 716.261 533.64C716.837 531.592 717.605 530.184 718.565 529.416C719.525 528.648 721.061 528.264 723.173 528.264C726.437 528.264 728.069 529.352 728.069 531.528C728.069 533.128 727.461 536.84 726.245 542.664C724.709 549.704 723.941 554.472 723.941 556.968C723.941 558.888 724.197 560.36 724.709 561.384C725.221 562.408 726.085 562.92 727.301 562.92C728.453 562.92 729.893 562.12 731.621 560.52C733.349 558.92 735.653 556.392 738.533 552.936C739.301 552.04 740.165 551.592 741.125 551.592C741.957 551.592 742.597 551.976 743.045 552.744C743.557 553.512 743.813 554.568 743.813 555.912C743.813 558.472 743.205 560.456 741.989 561.864C735.653 569.608 729.733 573.48 724.229 573.48ZM778.862 551.592C779.694 551.592 780.334 551.976 780.781 552.744C781.294 553.512 781.55 554.568 781.55 555.912C781.55 558.472 780.942 560.456 779.726 561.864C776.974 565.256 773.966 568.04 770.702 570.216C767.438 572.392 763.694 573.48 759.47 573.48C746.414 573.48 739.886 564.296 739.886 545.928C739.886 543.112 739.982 540.264 740.174 537.384H736.43C734.51 537.384 733.198 537.032 732.494 536.328C731.854 535.624 731.534 534.504 731.534 532.968C731.534 529.384 732.974 527.592 735.854 527.592H741.326C742.414 520.552 744.078 514.12 746.318 508.296C748.558 502.472 751.246 497.832 754.382 494.376C757.582 490.92 761.006 489.192 764.654 489.192C767.342 489.192 769.454 490.376 770.99 492.744C772.526 495.112 773.294 498.088 773.294 501.672C773.294 511.592 769.134 520.232 760.814 527.592H771.566C772.59 527.592 773.326 527.816 773.774 528.264C774.222 528.712 774.446 529.544 774.446 530.76C774.446 535.176 770.83 537.384 763.598 537.384H751.886C751.758 540.584 751.694 543.08 751.694 544.872C751.694 551.528 752.462 556.2 753.998 558.888C755.598 561.576 758.094 562.92 761.486 562.92C764.238 562.92 766.67 562.088 768.782 560.424C770.894 558.76 773.39 556.264 776.27 552.936C777.038 552.04 777.902 551.592 778.862 551.592ZM762.062 498.408C761.102 498.408 760.014 499.624 758.798 502.056C757.646 504.424 756.526 507.752 755.438 512.04C754.414 516.264 753.55 520.968 752.846 526.152C756.622 522.888 759.438 519.24 761.294 515.208C763.214 511.112 764.174 507.4 764.174 504.072C764.174 500.296 763.47 498.408 762.062 498.408ZM807.333 528.264C808.805 528.264 809.829 528.456 810.405 528.84C810.981 529.224 811.269 529.864 811.269 530.76C811.269 532.296 810.437 537.768 808.773 547.176C807.301 556.2 806.437 561.544 806.181 563.208C803.813 579.656 800.549 592.68 796.389 602.28C792.229 611.88 786.693 616.68 779.781 616.68C776.517 616.68 773.861 615.656 771.813 613.608C769.765 611.624 768.741 609 768.741 605.736C768.741 602.728 769.413 599.656 770.757 596.52C772.165 593.384 774.725 589.768 778.437 585.672C782.213 581.64 787.525 577 794.373 571.752L794.661 569.544C795.109 567.176 795.621 563.784 796.197 559.368C794.917 563.976 793.125 567.496 790.821 569.928C788.517 572.296 786.085 573.48 783.525 573.48C780.645 573.48 778.277 572.168 776.421 569.544C774.629 566.856 773.733 563.528 773.733 559.56C773.733 554.76 774.053 550.376 774.693 546.408C775.333 542.376 776.389 538.12 777.861 533.64C778.501 531.72 779.397 530.344 780.549 529.512C781.701 528.68 783.525 528.264 786.021 528.264C787.429 528.264 788.389 528.488 788.901 528.936C789.477 529.384 789.765 530.056 789.765 530.952C789.765 531.464 789.413 533.192 788.709 536.136C788.069 538.504 787.557 540.648 787.173 542.568C786.661 545.192 786.213 547.72 785.829 550.152C785.445 552.52 785.253 554.472 785.253 556.008C785.253 558.44 785.925 559.656 787.269 559.656C788.229 559.656 789.413 558.696 790.821 556.776C792.293 554.856 793.829 551.944 795.429 548.04C797.093 544.136 798.693 539.336 800.229 533.64C800.741 531.72 801.509 530.344 802.533 529.512C803.621 528.68 805.221 528.264 807.333 528.264ZM780.837 607.368C782.437 607.368 784.229 605.512 786.213 601.8C788.197 598.088 790.181 591.912 792.165 583.272C787.237 587.432 783.653 591.208 781.413 594.6C779.237 598.056 778.149 601.064 778.149 603.624C778.149 604.712 778.341 605.608 778.725 606.312C779.173 607.016 779.877 607.368 780.837 607.368Z" fill="#183153"/>
<g filter="url(#filter0_d_1_3)">
<path d="M375.914 460.586C375.133 459.805 373.867 459.805 373.086 460.586L360.358 473.314C359.577 474.095 359.577 475.361 360.358 476.142C361.139 476.923 362.405 476.923 363.186 476.142L374.5 464.828L385.814 476.142C386.595 476.923 387.861 476.923 388.642 476.142C389.423 475.361 389.423 474.095 388.642 473.314L375.914 460.586ZM372.5 462L372.5 525.961L376.5 525.961L376.5 462L372.5 462Z" fill="#183153"/>
<path d="M375.914 460.586C375.133 459.805 373.867 459.805 373.086 460.586L360.358 473.314C359.577 474.095 359.577 475.361 360.358 476.142C361.139 476.923 362.405 476.923 363.186 476.142L374.5 464.828L385.814 476.142C386.595 476.923 387.861 476.923 388.642 476.142C389.423 475.361 389.423 474.095 388.642 473.314L375.914 460.586ZM372.5 462L372.5 525.961L376.5 525.961L376.5 462L372.5 462Z" fill="#183153"/>
<path d="M373.086 618.414C373.867 619.195 375.133 619.195 375.914 618.414L388.642 605.686C389.423 604.905 389.423 603.639 388.642 602.858C387.861 602.077 386.595 602.077 385.814 602.858L374.5 614.172L363.186 602.858C362.405 602.077 361.139 602.077 360.358 602.858C359.577 603.639 359.577 604.905 360.358 605.686L373.086 618.414ZM376.5 617L376.5 553.039L372.5 553.039L372.5 617L376.5 617Z" fill="#183153"/>
<path d="M373.086 618.414C373.867 619.195 375.133 619.195 375.914 618.414L388.642 605.686C389.423 604.905 389.423 603.639 388.642 602.858C387.861 602.077 386.595 602.077 385.814 602.858L374.5 614.172L363.186 602.858C362.405 602.077 361.139 602.077 360.358 602.858C359.577 603.639 359.577 604.905 360.358 605.686L373.086 618.414ZM376.5 617L376.5 553.039L372.5 553.039L372.5 617L376.5 617Z" fill="#183153"/>
<path d="M375.914 460.586C375.133 459.805 373.867 459.805 373.086 460.586L360.358 473.314C359.577 474.095 359.577 475.361 360.358 476.142C361.139 476.923 362.405 476.923 363.186 476.142L374.5 464.828L385.814 476.142C386.595 476.923 387.861 476.923 388.642 476.142C389.423 475.361 389.423 474.095 388.642 473.314L375.914 460.586ZM372.5 462L372.5 525.961L376.5 525.961L376.5 462L372.5 462Z" fill="#183153"/>
<path d="M375.914 460.586C375.133 459.805 373.867 459.805 373.086 460.586L360.358 473.314C359.577 474.095 359.577 475.361 360.358 476.142C361.139 476.923 362.405 476.923 363.186 476.142L374.5 464.828L385.814 476.142C386.595 476.923 387.861 476.923 388.642 476.142C389.423 475.361 389.423 474.095 388.642 473.314L375.914 460.586ZM372.5 462L372.5 525.961L376.5 525.961L376.5 462L372.5 462Z" fill="#183153"/>
<path d="M373.086 618.414C373.867 619.195 375.133 619.195 375.914 618.414L388.642 605.686C389.423 604.905 389.423 603.639 388.642 602.858C387.861 602.077 386.595 602.077 385.814 602.858L374.5 614.172L363.186 602.858C362.405 602.077 361.139 602.077 360.358 602.858C359.577 603.639 359.577 604.905 360.358 605.686L373.086 618.414ZM376.5 617L376.5 553.039L372.5 553.039L372.5 617L376.5 617Z" fill="#183153"/>
<path d="M373.086 618.414C373.867 619.195 375.133 619.195 375.914 618.414L388.642 605.686C389.423 604.905 389.423 603.639 388.642 602.858C387.861 602.077 386.595 602.077 385.814 602.858L374.5 614.172L363.186 602.858C362.405 602.077 361.139 602.077 360.358 602.858C359.577 603.639 359.577 604.905 360.358 605.686L373.086 618.414ZM376.5 617L376.5 553.039L372.5 553.039L372.5 617L376.5 617Z" fill="#183153"/>
<path d="M375.914 460.586C375.133 459.805 373.867 459.805 373.086 460.586L360.358 473.314C359.577 474.095 359.577 475.361 360.358 476.142C361.139 476.923 362.405 476.923 363.186 476.142L374.5 464.828L385.814 476.142C386.595 476.923 387.861 476.923 388.642 476.142C389.423 475.361 389.423 474.095 388.642 473.314L375.914 460.586ZM372.5 462L372.5 525.961L376.5 525.961L376.5 462L372.5 462Z" fill="#183153"/>
<path d="M375.914 460.586C375.133 459.805 373.867 459.805 373.086 460.586L360.358 473.314C359.577 474.095 359.577 475.361 360.358 476.142C361.139 476.923 362.405 476.923 363.186 476.142L374.5 464.828L385.814 476.142C386.595 476.923 387.861 476.923 388.642 476.142C389.423 475.361 389.423 474.095 388.642 473.314L375.914 460.586ZM372.5 462L372.5 525.961L376.5 525.961L376.5 462L372.5 462Z" fill="#183153"/>
<path d="M373.086 618.414C373.867 619.195 375.133 619.195 375.914 618.414L388.642 605.686C389.423 604.905 389.423 603.639 388.642 602.858C387.861 602.077 386.595 602.077 385.814 602.858L374.5 614.172L363.186 602.858C362.405 602.077 361.139 602.077 360.358 602.858C359.577 603.639 359.577 604.905 360.358 605.686L373.086 618.414ZM376.5 617L376.5 553.039L372.5 553.039L372.5 617L376.5 617Z" fill="#183153"/>
<path d="M373.086 618.414C373.867 619.195 375.133 619.195 375.914 618.414L388.642 605.686C389.423 604.905 389.423 603.639 388.642 602.858C387.861 602.077 386.595 602.077 385.814 602.858L374.5 614.172L363.186 602.858C362.405 602.077 361.139 602.077 360.358 602.858C359.577 603.639 359.577 604.905 360.358 605.686L373.086 618.414ZM376.5 617L376.5 553.039L372.5 553.039L372.5 617L376.5 617Z" fill="#183153"/>
<path d="M375.914 460.586C375.133 459.805 373.867 459.805 373.086 460.586L360.358 473.314C359.577 474.095 359.577 475.361 360.358 476.142C361.139 476.923 362.405 476.923 363.186 476.142L374.5 464.828L385.814 476.142C386.595 476.923 387.861 476.923 388.642 476.142C389.423 475.361 389.423 474.095 388.642 473.314L375.914 460.586ZM372.5 462L372.5 525.961L376.5 525.961L376.5 462L372.5 462Z" fill="#183153"/>
<path d="M375.914 460.586C375.133 459.805 373.867 459.805 373.086 460.586L360.358 473.314C359.577 474.095 359.577 475.361 360.358 476.142C361.139 476.923 362.405 476.923 363.186 476.142L374.5 464.828L385.814 476.142C386.595 476.923 387.861 476.923 388.642 476.142C389.423 475.361 389.423 474.095 388.642 473.314L375.914 460.586ZM372.5 462L372.5 525.961L376.5 525.961L376.5 462L372.5 462Z" fill="#183153"/>
<path d="M373.086 618.414C373.867 619.195 375.133 619.195 375.914 618.414L388.642 605.686C389.423 604.905 389.423 603.639 388.642 602.858C387.861 602.077 386.595 602.077 385.814 602.858L374.5 614.172L363.186 602.858C362.405 602.077 361.139 602.077 360.358 602.858C359.577 603.639 359.577 604.905 360.358 605.686L373.086 618.414ZM376.5 617L376.5 553.039L372.5 553.039L372.5 617L376.5 617Z" fill="#183153"/>
<path d="M373.086 618.414C373.867 619.195 375.133 619.195 375.914 618.414L388.642 605.686C389.423 604.905 389.423 603.639 388.642 602.858C387.861 602.077 386.595 602.077 385.814 602.858L374.5 614.172L363.186 602.858C362.405 602.077 361.139 602.077 360.358 602.858C359.577 603.639 359.577 604.905 360.358 605.686L373.086 618.414ZM376.5 617L376.5 553.039L372.5 553.039L372.5 617L376.5 617Z" fill="#183153"/>
<path d="M354.934 463.037C353.974 462.491 352.753 462.827 352.207 463.787L343.31 479.435C342.764 480.395 343.1 481.616 344.06 482.162C345.021 482.708 346.242 482.372 346.788 481.412L354.695 467.503L368.605 475.411C369.565 475.956 370.786 475.621 371.332 474.66C371.878 473.7 371.542 472.479 370.582 471.933L354.934 463.037ZM352.017 465.306L368.981 526.976L372.837 525.915L355.874 464.245L352.017 465.306Z" fill="#183153"/>
<path d="M354.934 463.037C353.974 462.491 352.753 462.827 352.207 463.787L343.31 479.435C342.764 480.395 343.1 481.616 344.06 482.162C345.021 482.708 346.242 482.372 346.788 481.412L354.695 467.503L368.605 475.411C369.565 475.956 370.786 475.621 371.332 474.66C371.878 473.7 371.542 472.479 370.582 471.933L354.934 463.037ZM352.017 465.306L368.981 526.976L372.837 525.915L355.874 464.245L352.017 465.306Z" fill="#183153"/>
<path d="M394.066 615.963C395.026 616.509 396.247 616.173 396.793 615.213L405.69 599.565C406.236 598.605 405.9 597.384 404.94 596.838C403.979 596.292 402.758 596.628 402.212 597.588L394.305 611.497L380.395 603.589C379.435 603.044 378.214 603.379 377.668 604.34C377.122 605.3 377.458 606.521 378.418 607.067L394.066 615.963ZM396.983 613.694L380.019 552.024L376.163 553.085L393.126 614.755L396.983 613.694Z" fill="#183153"/>
<path d="M394.066 615.963C395.026 616.509 396.247 616.173 396.793 615.213L405.69 599.565C406.236 598.605 405.9 597.384 404.94 596.838C403.979 596.292 402.758 596.628 402.212 597.588L394.305 611.497L380.395 603.589C379.435 603.044 378.214 603.379 377.668 604.34C377.122 605.3 377.458 606.521 378.418 607.067L394.066 615.963ZM396.983 613.694L380.019 552.024L376.163 553.085L393.126 614.755L396.983 613.694Z" fill="#183153"/>
<path d="M336.268 470.451C335.201 470.165 334.104 470.798 333.818 471.865L329.159 489.252C328.874 490.319 329.507 491.416 330.574 491.702C331.641 491.987 332.737 491.354 333.023 490.287L337.164 474.833L352.619 478.974C353.686 479.26 354.783 478.626 355.069 477.559C355.354 476.492 354.721 475.396 353.654 475.11L336.268 470.451ZM334.018 473.383L365.998 528.775L369.462 526.775L337.482 471.383L334.018 473.383Z" fill="#183153"/>
<path d="M336.268 470.451C335.201 470.165 334.104 470.798 333.818 471.865L329.159 489.252C328.874 490.319 329.507 491.416 330.574 491.702C331.641 491.987 332.737 491.354 333.023 490.287L337.164 474.833L352.619 478.974C353.686 479.26 354.783 478.626 355.069 477.559C355.354 476.492 354.721 475.396 353.654 475.11L336.268 470.451ZM334.018 473.383L365.998 528.775L369.462 526.775L337.482 471.383L334.018 473.383Z" fill="#183153"/>
<path d="M412.732 608.549C413.799 608.835 414.896 608.202 415.182 607.135L419.841 589.748C420.126 588.681 419.493 587.584 418.426 587.298C417.359 587.013 416.263 587.646 415.977 588.713L411.836 604.167L396.381 600.026C395.314 599.74 394.217 600.374 393.931 601.441C393.646 602.508 394.279 603.604 395.346 603.89L412.732 608.549ZM414.982 605.617L383.002 550.225L379.538 552.225L411.518 607.617L414.982 605.617Z" fill="#183153"/>
<path d="M412.732 608.549C413.799 608.835 414.896 608.202 415.182 607.135L419.841 589.748C420.126 588.681 419.493 587.584 418.426 587.298C417.359 587.013 416.263 587.646 415.977 588.713L411.836 604.167L396.381 600.026C395.314 599.74 394.217 600.374 393.931 601.441C393.646 602.508 394.279 603.604 395.346 603.89L412.732 608.549ZM414.982 605.617L383.002 550.225L379.538 552.225L411.518 607.617L414.982 605.617Z" fill="#183153"/>
<path d="M396.291 463.641C395.738 462.684 394.515 462.356 393.558 462.909L377.97 471.909C377.013 472.461 376.686 473.684 377.238 474.641C377.79 475.597 379.013 475.925 379.97 475.373L393.826 467.373L401.826 481.229C402.379 482.186 403.602 482.514 404.558 481.961C405.515 481.409 405.843 480.186 405.291 479.229L396.291 463.641ZM392.627 464.123L376.072 525.905L379.936 526.94L396.49 465.158L392.627 464.123Z" fill="#183153"/>
<path d="M396.291 463.641C395.738 462.684 394.515 462.356 393.558 462.909L377.97 471.909C377.013 472.461 376.686 473.684 377.238 474.641C377.79 475.597 379.013 475.925 379.97 475.373L393.826 467.373L401.826 481.229C402.379 482.186 403.602 482.514 404.558 481.961C405.515 481.409 405.843 480.186 405.291 479.229L396.291 463.641ZM392.627 464.123L376.072 525.905L379.936 526.94L396.49 465.158L392.627 464.123Z" fill="#183153"/>
<path d="M352.709 615.359C353.262 616.316 354.485 616.644 355.442 616.091L371.03 607.091C371.987 606.539 372.314 605.316 371.762 604.359C371.21 603.403 369.987 603.075 369.03 603.627L355.174 611.627L347.174 597.771C346.621 596.814 345.398 596.486 344.442 597.039C343.485 597.591 343.157 598.814 343.709 599.771L352.709 615.359ZM356.373 614.877L372.928 553.095L369.064 552.06L352.51 613.842L356.373 614.877Z" fill="#183153"/>
<path d="M352.709 615.359C353.262 616.316 354.485 616.644 355.442 616.091L371.03 607.091C371.987 606.539 372.314 605.316 371.762 604.359C371.21 603.403 369.987 603.075 369.03 603.627L355.174 611.627L347.174 597.771C346.621 596.814 345.398 596.486 344.442 597.039C343.485 597.591 343.157 598.814 343.709 599.771L352.709 615.359ZM356.373 614.877L372.928 553.095L369.064 552.06L352.51 613.842L356.373 614.877Z" fill="#183153"/>
<path d="M396.291 463.641C395.738 462.684 394.515 462.356 393.558 462.909L377.97 471.909C377.013 472.461 376.686 473.684 377.238 474.641C377.79 475.597 379.013 475.925 379.97 475.373L393.826 467.373L401.826 481.229C402.379 482.186 403.602 482.514 404.558 481.961C405.515 481.409 405.843 480.186 405.291 479.229L396.291 463.641ZM392.627 464.123L376.072 525.905L379.936 526.94L396.49 465.158L392.627 464.123Z" fill="#183153"/>
<path d="M396.291 463.641C395.738 462.684 394.515 462.356 393.558 462.909L377.97 471.909C377.013 472.461 376.686 473.684 377.238 474.641C377.79 475.597 379.013 475.925 379.97 475.373L393.826 467.373L401.826 481.229C402.379 482.186 403.602 482.514 404.558 481.961C405.515 481.409 405.843 480.186 405.291 479.229L396.291 463.641ZM392.627 464.123L376.072 525.905L379.936 526.94L396.49 465.158L392.627 464.123Z" fill="#183153"/>
<path d="M352.709 615.359C353.262 616.316 354.485 616.644 355.442 616.091L371.03 607.091C371.987 606.539 372.314 605.316 371.762 604.359C371.21 603.403 369.987 603.075 369.03 603.627L355.174 611.627L347.174 597.771C346.621 596.814 345.398 596.486 344.442 597.039C343.485 597.591 343.157 598.814 343.709 599.771L352.709 615.359ZM356.373 614.877L372.928 553.095L369.064 552.06L352.51 613.842L356.373 614.877Z" fill="#183153"/>
<path d="M352.709 615.359C353.262 616.316 354.485 616.644 355.442 616.091L371.03 607.091C371.987 606.539 372.314 605.316 371.762 604.359C371.21 603.403 369.987 603.075 369.03 603.627L355.174 611.627L347.174 597.771C346.621 596.814 345.398 596.486 344.442 597.039C343.485 597.591 343.157 598.814 343.709 599.771L352.709 615.359ZM356.373 614.877L372.928 553.095L369.064 552.06L352.51 613.842L356.373 614.877Z" fill="#183153"/>
<path d="M396.291 463.641C395.738 462.684 394.515 462.356 393.558 462.909L377.97 471.909C377.013 472.461 376.686 473.684 377.238 474.641C377.79 475.597 379.013 475.925 379.97 475.373L393.826 467.373L401.826 481.229C402.379 482.186 403.602 482.514 404.558 481.961C405.515 481.409 405.843 480.186 405.291 479.229L396.291 463.641ZM392.627 464.123L376.072 525.905L379.936 526.94L396.49 465.158L392.627 464.123Z" fill="#183153"/>
<path d="M396.291 463.641C395.738 462.684 394.515 462.356 393.558 462.909L377.97 471.909C377.013 472.461 376.686 473.684 377.238 474.641C377.79 475.597 379.013 475.925 379.97 475.373L393.826 467.373L401.826 481.229C402.379 482.186 403.602 482.514 404.558 481.961C405.515 481.409 405.843 480.186 405.291 479.229L396.291 463.641ZM392.627 464.123L376.072 525.905L379.936 526.94L396.49 465.158L392.627 464.123Z" fill="#183153"/>
<path d="M352.709 615.359C353.262 616.316 354.485 616.644 355.442 616.091L371.03 607.091C371.987 606.539 372.314 605.316 371.762 604.359C371.21 603.403 369.987 603.075 369.03 603.627L355.174 611.627L347.174 597.771C346.621 596.814 345.398 596.486 344.442 597.039C343.485 597.591 343.157 598.814 343.709 599.771L352.709 615.359ZM356.373 614.877L372.928 553.095L369.064 552.06L352.51 613.842L356.373 614.877Z" fill="#183153"/>
<path d="M352.709 615.359C353.262 616.316 354.485 616.644 355.442 616.091L371.03 607.091C371.987 606.539 372.314 605.316 371.762 604.359C371.21 603.403 369.987 603.075 369.03 603.627L355.174 611.627L347.174 597.771C346.621 596.814 345.398 596.486 344.442 597.039C343.485 597.591 343.157 598.814 343.709 599.771L352.709 615.359ZM356.373 614.877L372.928 553.095L369.064 552.06L352.51 613.842L356.373 614.877Z" fill="#183153"/>
<path d="M396.291 463.641C395.738 462.684 394.515 462.356 393.558 462.909L377.97 471.909C377.013 472.461 376.686 473.684 377.238 474.641C377.79 475.597 379.013 475.925 379.97 475.373L393.826 467.373L401.826 481.229C402.379 482.186 403.602 482.514 404.558 481.961C405.515 481.409 405.843 480.186 405.291 479.229L396.291 463.641ZM392.627 464.123L376.072 525.905L379.936 526.94L396.49 465.158L392.627 464.123Z" fill="#183153"/>
<path d="M396.291 463.641C395.738 462.684 394.515 462.356 393.558 462.909L377.97 471.909C377.013 472.461 376.686 473.684 377.238 474.641C377.79 475.597 379.013 475.925 379.97 475.373L393.826 467.373L401.826 481.229C402.379 482.186 403.602 482.514 404.558 481.961C405.515 481.409 405.843 480.186 405.291 479.229L396.291 463.641ZM392.627 464.123L376.072 525.905L379.936 526.94L396.49 465.158L392.627 464.123Z" fill="#183153"/>
<path d="M352.709 615.359C353.262 616.316 354.485 616.644 355.442 616.091L371.03 607.091C371.987 606.539 372.314 605.316 371.762 604.359C371.21 603.403 369.987 603.075 369.03 603.627L355.174 611.627L347.174 597.771C346.621 596.814 345.398 596.486 344.442 597.039C343.485 597.591 343.157 598.814 343.709 599.771L352.709 615.359ZM356.373 614.877L372.928 553.095L369.064 552.06L352.51 613.842L356.373 614.877Z" fill="#183153"/>
<path d="M352.709 615.359C353.262 616.316 354.485 616.644 355.442 616.091L371.03 607.091C371.987 606.539 372.314 605.316 371.762 604.359C371.21 603.403 369.987 603.075 369.03 603.627L355.174 611.627L347.174 597.771C346.621 596.814 345.398 596.486 344.442 597.039C343.485 597.591 343.157 598.814 343.709 599.771L352.709 615.359ZM356.373 614.877L372.928 553.095L369.064 552.06L352.51 613.842L356.373 614.877Z" fill="#183153"/>
<path d="M416.743 472.829C416.482 471.756 415.4 471.097 414.327 471.358L396.837 475.612C395.763 475.873 395.105 476.954 395.366 478.028C395.627 479.101 396.709 479.76 397.782 479.499L413.329 475.718L417.109 491.265C417.37 492.338 418.452 492.996 419.525 492.735C420.599 492.474 421.257 491.393 420.996 490.319L416.743 472.829ZM413.091 472.262L379.832 526.895L383.249 528.975L416.508 474.342L413.091 472.262Z" fill="#183153"/>
<path d="M416.743 472.829C416.482 471.756 415.4 471.097 414.327 471.358L396.837 475.612C395.763 475.873 395.105 476.954 395.366 478.028C395.627 479.101 396.709 479.76 397.782 479.499L413.329 475.718L417.109 491.265C417.37 492.338 418.452 492.996 419.525 492.735C420.599 492.474 421.257 491.393 420.996 490.319L416.743 472.829ZM413.091 472.262L379.832 526.895L383.249 528.975L416.508 474.342L413.091 472.262Z" fill="#183153"/>
<path d="M332.257 606.171C332.518 607.244 333.6 607.903 334.673 607.642L352.163 603.388C353.237 603.127 353.895 602.046 353.634 600.972C353.373 599.899 352.292 599.24 351.218 599.501L335.671 603.282L331.891 587.735C331.63 586.662 330.548 586.004 329.475 586.265C328.401 586.526 327.743 587.607 328.004 588.681L332.257 606.171ZM335.909 606.738L369.168 552.105L365.751 550.025L332.492 604.658L335.909 606.738Z" fill="#183153"/>
<path d="M332.257 606.171C332.518 607.244 333.6 607.903 334.673 607.642L352.163 603.388C353.237 603.127 353.895 602.046 353.634 600.972C353.373 599.899 352.292 599.24 351.218 599.501L335.671 603.282L331.891 587.735C331.63 586.662 330.548 586.004 329.475 586.265C328.401 586.526 327.743 587.607 328.004 588.681L332.257 606.171ZM335.909 606.738L369.168 552.105L365.751 550.025L332.492 604.658L335.909 606.738Z" fill="#183153"/>
<path d="M416.743 472.829C416.482 471.756 415.4 471.097 414.327 471.358L396.837 475.612C395.763 475.873 395.105 476.954 395.366 478.028C395.627 479.101 396.709 479.76 397.782 479.499L413.329 475.718L417.109 491.265C417.37 492.338 418.452 492.996 419.525 492.735C420.599 492.474 421.257 491.393 420.996 490.319L416.743 472.829ZM413.091 472.262L379.832 526.895L383.249 528.975L416.508 474.342L413.091 472.262Z" fill="#183153"/>
<path d="M416.743 472.829C416.482 471.756 415.4 471.097 414.327 471.358L396.837 475.612C395.763 475.873 395.105 476.954 395.366 478.028C395.627 479.101 396.709 479.76 397.782 479.499L413.329 475.718L417.109 491.265C417.37 492.338 418.452 492.996 419.525 492.735C420.599 492.474 421.257 491.393 420.996 490.319L416.743 472.829ZM413.091 472.262L379.832 526.895L383.249 528.975L416.508 474.342L413.091 472.262Z" fill="#183153"/>
<path d="M332.257 606.171C332.518 607.244 333.6 607.903 334.673 607.642L352.163 603.388C353.237 603.127 353.895 602.046 353.634 600.972C353.373 599.899 352.292 599.24 351.218 599.501L335.671 603.282L331.891 587.735C331.63 586.662 330.548 586.004 329.475 586.265C328.401 586.526 327.743 587.607 328.004 588.681L332.257 606.171ZM335.909 606.738L369.168 552.105L365.751 550.025L332.492 604.658L335.909 606.738Z" fill="#183153"/>
<path d="M332.257 606.171C332.518 607.244 333.6 607.903 334.673 607.642L352.163 603.388C353.237 603.127 353.895 602.046 353.634 600.972C353.373 599.899 352.292 599.24 351.218 599.501L335.671 603.282L331.891 587.735C331.63 586.662 330.548 586.004 329.475 586.265C328.401 586.526 327.743 587.607 328.004 588.681L332.257 606.171ZM335.909 606.738L369.168 552.105L365.751 550.025L332.492 604.658L335.909 606.738Z" fill="#183153"/>
<path d="M416.743 472.829C416.482 471.756 415.4 471.097 414.327 471.358L396.837 475.612C395.763 475.873 395.105 476.954 395.366 478.028C395.627 479.101 396.709 479.76 397.782 479.499L413.329 475.718L417.109 491.265C417.37 492.338 418.452 492.996 419.525 492.735C420.599 492.474 421.257 491.393 420.996 490.319L416.743 472.829ZM413.091 472.262L379.832 526.895L383.249 528.975L416.508 474.342L413.091 472.262Z" fill="#183153"/>
<path d="M416.743 472.829C416.482 471.756 415.4 471.097 414.327 471.358L396.837 475.612C395.763 475.873 395.105 476.954 395.366 478.028C395.627 479.101 396.709 479.76 397.782 479.499L413.329 475.718L417.109 491.265C417.37 492.338 418.452 492.996 419.525 492.735C420.599 492.474 421.257 491.393 420.996 490.319L416.743 472.829ZM413.091 472.262L379.832 526.895L383.249 528.975L416.508 474.342L413.091 472.262Z" fill="#183153"/>
<path d="M332.257 606.171C332.518 607.244 333.6 607.903 334.673 607.642L352.163 603.388C353.237 603.127 353.895 602.046 353.634 600.972C353.373 599.899 352.292 599.24 351.218 599.501L335.671 603.282L331.891 587.735C331.63 586.662 330.548 586.004 329.475 586.265C328.401 586.526 327.743 587.607 328.004 588.681L332.257 606.171ZM335.909 606.738L369.168 552.105L365.751 550.025L332.492 604.658L335.909 606.738Z" fill="#183153"/>
<path d="M332.257 606.171C332.518 607.244 333.6 607.903 334.673 607.642L352.163 603.388C353.237 603.127 353.895 602.046 353.634 600.972C353.373 599.899 352.292 599.24 351.218 599.501L335.671 603.282L331.891 587.735C331.63 586.662 330.548 586.004 329.475 586.265C328.401 586.526 327.743 587.607 328.004 588.681L332.257 606.171ZM335.909 606.738L369.168 552.105L365.751 550.025L332.492 604.658L335.909 606.738Z" fill="#183153"/>
<path d="M416.743 472.829C416.482 471.756 415.4 471.097 414.327 471.358L396.837 475.612C395.763 475.873 395.105 476.954 395.366 478.028C395.627 479.101 396.709 479.76 397.782 479.499L413.329 475.718L417.109 491.265C417.37 492.338 418.452 492.996 419.525 492.735C420.599 492.474 421.257 491.393 420.996 490.319L416.743 472.829ZM413.091 472.262L379.832 526.895L383.249 528.975L416.508 474.342L413.091 472.262Z" fill="#183153"/>
<path d="M416.743 472.829C416.482 471.756 415.4 471.097 414.327 471.358L396.837 475.612C395.763 475.873 395.105 476.954 395.366 478.028C395.627 479.101 396.709 479.76 397.782 479.499L413.329 475.718L417.109 491.265C417.37 492.338 418.452 492.996 419.525 492.735C420.599 492.474 421.257 491.393 420.996 490.319L416.743 472.829ZM413.091 472.262L379.832 526.895L383.249 528.975L416.508 474.342L413.091 472.262Z" fill="#183153"/>
<path d="M332.257 606.171C332.518 607.244 333.6 607.903 334.673 607.642L352.163 603.388C353.237 603.127 353.895 602.046 353.634 600.972C353.373 599.899 352.292 599.24 351.218 599.501L335.671 603.282L331.891 587.735C331.63 586.662 330.548 586.004 329.475 586.265C328.401 586.526 327.743 587.607 328.004 588.681L332.257 606.171ZM335.909 606.738L369.168 552.105L365.751 550.025L332.492 604.658L335.909 606.738Z" fill="#183153"/>
<path d="M332.257 606.171C332.518 607.244 333.6 607.903 334.673 607.642L352.163 603.388C353.237 603.127 353.895 602.046 353.634 600.972C353.373 599.899 352.292 599.24 351.218 599.501L335.671 603.282L331.891 587.735C331.63 586.662 330.548 586.004 329.475 586.265C328.401 586.526 327.743 587.607 328.004 588.681L332.257 606.171ZM335.909 606.738L369.168 552.105L365.751 550.025L332.492 604.658L335.909 606.738Z" fill="#183153"/>
<path d="M431.301 484.699C431.301 483.595 430.405 482.699 429.301 482.699L411.301 482.699C410.196 482.699 409.301 483.595 409.301 484.699C409.301 485.804 410.196 486.699 411.301 486.699L427.301 486.699L427.301 502.699C427.301 503.804 428.196 504.699 429.301 504.699C430.405 504.699 431.301 503.804 431.301 502.699L431.301 484.699ZM427.887 483.285L382.659 528.512L385.488 531.341L430.715 486.113L427.887 483.285Z" fill="#183153"/>
<path d="M431.301 484.699C431.301 483.595 430.405 482.699 429.301 482.699L411.301 482.699C410.196 482.699 409.301 483.595 409.301 484.699C409.301 485.804 410.196 486.699 411.301 486.699L427.301 486.699L427.301 502.699C427.301 503.804 428.196 504.699 429.301 504.699C430.405 504.699 431.301 503.804 431.301 502.699L431.301 484.699ZM427.887 483.285L382.659 528.512L385.488 531.341L430.715 486.113L427.887 483.285Z" fill="#183153"/>
<path d="M317.699 594.301C317.699 595.405 318.595 596.301 319.699 596.301L337.699 596.301C338.804 596.301 339.699 595.405 339.699 594.301C339.699 593.196 338.804 592.301 337.699 592.301L321.699 592.301L321.699 576.301C321.699 575.196 320.804 574.301 319.699 574.301C318.595 574.301 317.699 575.196 317.699 576.301L317.699 594.301ZM321.113 595.715L366.341 550.488L363.512 547.659L318.285 592.887L321.113 595.715Z" fill="#183153"/>
<path d="M317.699 594.301C317.699 595.405 318.595 596.301 319.699 596.301L337.699 596.301C338.804 596.301 339.699 595.405 339.699 594.301C339.699 593.196 338.804 592.301 337.699 592.301L321.699 592.301L321.699 576.301C321.699 575.196 320.804 574.301 319.699 574.301C318.595 574.301 317.699 575.196 317.699 576.301L317.699 594.301ZM321.113 595.715L366.341 550.488L363.512 547.659L318.285 592.887L321.113 595.715Z" fill="#183153"/>
<path d="M431.301 484.699C431.301 483.595 430.405 482.699 429.301 482.699L411.301 482.699C410.196 482.699 409.301 483.595 409.301 484.699C409.301 485.804 410.196 486.699 411.301 486.699L427.301 486.699L427.301 502.699C427.301 503.804 428.196 504.699 429.301 504.699C430.405 504.699 431.301 503.804 431.301 502.699L431.301 484.699ZM427.887 483.285L382.659 528.512L385.488 531.341L430.715 486.113L427.887 483.285Z" fill="#183153"/>
<path d="M431.301 484.699C431.301 483.595 430.405 482.699 429.301 482.699L411.301 482.699C410.196 482.699 409.301 483.595 409.301 484.699C409.301 485.804 410.196 486.699 411.301 486.699L427.301 486.699L427.301 502.699C427.301 503.804 428.196 504.699 429.301 504.699C430.405 504.699 431.301 503.804 431.301 502.699L431.301 484.699ZM427.887 483.285L382.659 528.512L385.488 531.341L430.715 486.113L427.887 483.285Z" fill="#183153"/>
<path d="M317.699 594.301C317.699 595.405 318.595 596.301 319.699 596.301L337.699 596.301C338.804 596.301 339.699 595.405 339.699 594.301C339.699 593.196 338.804 592.301 337.699 592.301L321.699 592.301L321.699 576.301C321.699 575.196 320.804 574.301 319.699 574.301C318.595 574.301 317.699 575.196 317.699 576.301L317.699 594.301ZM321.113 595.715L366.341 550.488L363.512 547.659L318.285 592.887L321.113 595.715Z" fill="#183153"/>
<path d="M317.699 594.301C317.699 595.405 318.595 596.301 319.699 596.301L337.699 596.301C338.804 596.301 339.699 595.405 339.699 594.301C339.699 593.196 338.804 592.301 337.699 592.301L321.699 592.301L321.699 576.301C321.699 575.196 320.804 574.301 319.699 574.301C318.595 574.301 317.699 575.196 317.699 576.301L317.699 594.301ZM321.113 595.715L366.341 550.488L363.512 547.659L318.285 592.887L321.113 595.715Z" fill="#183153"/>
<path d="M431.301 484.699C431.301 483.595 430.405 482.699 429.301 482.699L411.301 482.699C410.196 482.699 409.301 483.595 409.301 484.699C409.301 485.804 410.196 486.699 411.301 486.699L427.301 486.699L427.301 502.699C427.301 503.804 428.196 504.699 429.301 504.699C430.405 504.699 431.301 503.804 431.301 502.699L431.301 484.699ZM427.887 483.285L382.659 528.512L385.488 531.341L430.715 486.113L427.887 483.285Z" fill="#183153"/>
<path d="M431.301 484.699C431.301 483.595 430.405 482.699 429.301 482.699L411.301 482.699C410.196 482.699 409.301 483.595 409.301 484.699C409.301 485.804 410.196 486.699 411.301 486.699L427.301 486.699L427.301 502.699C427.301 503.804 428.196 504.699 429.301 504.699C430.405 504.699 431.301 503.804 431.301 502.699L431.301 484.699ZM427.887 483.285L382.659 528.512L385.488 531.341L430.715 486.113L427.887 483.285Z" fill="#183153"/>
<path d="M317.699 594.301C317.699 595.405 318.595 596.301 319.699 596.301L337.699 596.301C338.804 596.301 339.699 595.405 339.699 594.301C339.699 593.196 338.804 592.301 337.699 592.301L321.699 592.301L321.699 576.301C321.699 575.196 320.804 574.301 319.699 574.301C318.595 574.301 317.699 575.196 317.699 576.301L317.699 594.301ZM321.113 595.715L366.341 550.488L363.512 547.659L318.285 592.887L321.113 595.715Z" fill="#183153"/>
<path d="M317.699 594.301C317.699 595.405 318.595 596.301 319.699 596.301L337.699 596.301C338.804 596.301 339.699 595.405 339.699 594.301C339.699 593.196 338.804 592.301 337.699 592.301L321.699 592.301L321.699 576.301C321.699 575.196 320.804 574.301 319.699 574.301C318.595 574.301 317.699 575.196 317.699 576.301L317.699 594.301ZM321.113 595.715L366.341 550.488L363.512 547.659L318.285 592.887L321.113 595.715Z" fill="#183153"/>
<path d="M431.301 484.699C431.301 483.595 430.405 482.699 429.301 482.699L411.301 482.699C410.196 482.699 409.301 483.595 409.301 484.699C409.301 485.804 410.196 486.699 411.301 486.699L427.301 486.699L427.301 502.699C427.301 503.804 428.196 504.699 429.301 504.699C430.405 504.699 431.301 503.804 431.301 502.699L431.301 484.699ZM427.887 483.285L382.659 528.512L385.488 531.341L430.715 486.113L427.887 483.285Z" fill="#183153"/>
<path d="M431.301 484.699C431.301 483.595 430.405 482.699 429.301 482.699L411.301 482.699C410.196 482.699 409.301 483.595 409.301 484.699C409.301 485.804 410.196 486.699 411.301 486.699L427.301 486.699L427.301 502.699C427.301 503.804 428.196 504.699 429.301 504.699C430.405 504.699 431.301 503.804 431.301 502.699L431.301 484.699ZM427.887 483.285L382.659 528.512L385.488 531.341L430.715 486.113L427.887 483.285Z" fill="#183153"/>
<path d="M317.699 594.301C317.699 595.405 318.595 596.301 319.699 596.301L337.699 596.301C338.804 596.301 339.699 595.405 339.699 594.301C339.699 593.196 338.804 592.301 337.699 592.301L321.699 592.301L321.699 576.301C321.699 575.196 320.804 574.301 319.699 574.301C318.595 574.301 317.699 575.196 317.699 576.301L317.699 594.301ZM321.113 595.715L366.341 550.488L363.512 547.659L318.285 592.887L321.113 595.715Z" fill="#183153"/>
<path d="M317.699 594.301C317.699 595.405 318.595 596.301 319.699 596.301L337.699 596.301C338.804 596.301 339.699 595.405 339.699 594.301C339.699 593.196 338.804 592.301 337.699 592.301L321.699 592.301L321.699 576.301C321.699 575.196 320.804 574.301 319.699 574.301C318.595 574.301 317.699 575.196 317.699 576.301L317.699 594.301ZM321.113 595.715L366.341 550.488L363.512 547.659L318.285 592.887L321.113 595.715Z" fill="#183153"/>
<path d="M443.549 501.268C443.835 500.201 443.202 499.104 442.135 498.818L424.748 494.159C423.681 493.873 422.584 494.507 422.298 495.574C422.013 496.641 422.646 497.737 423.713 498.023L439.167 502.164L435.026 517.619C434.74 518.686 435.374 519.783 436.441 520.068C437.508 520.354 438.604 519.721 438.89 518.654L443.549 501.268ZM440.617 499.018L385.225 530.998L387.225 534.462L442.617 502.482L440.617 499.018Z" fill="#183153"/>
<path d="M443.549 501.268C443.835 500.201 443.202 499.104 442.135 498.818L424.748 494.159C423.681 493.873 422.584 494.507 422.298 495.574C422.013 496.641 422.646 497.737 423.713 498.023L439.167 502.164L435.026 517.619C434.74 518.686 435.374 519.783 436.441 520.068C437.508 520.354 438.604 519.721 438.89 518.654L443.549 501.268ZM440.617 499.018L385.225 530.998L387.225 534.462L442.617 502.482L440.617 499.018Z" fill="#183153"/>
<path d="M305.451 577.732C305.165 578.799 305.798 579.896 306.865 580.182L324.252 584.841C325.319 585.126 326.416 584.493 326.702 583.426C326.987 582.359 326.354 581.263 325.287 580.977L309.833 576.836L313.974 561.381C314.26 560.314 313.626 559.217 312.559 558.931C311.492 558.646 310.396 559.279 310.11 560.346L305.451 577.732ZM308.383 579.982L363.775 548.002L361.775 544.537L306.383 576.518L308.383 579.982Z" fill="#183153"/>
<path d="M305.451 577.732C305.165 578.799 305.798 579.896 306.865 580.182L324.252 584.841C325.319 585.126 326.416 584.493 326.702 583.426C326.987 582.359 326.354 581.263 325.287 580.977L309.833 576.836L313.974 561.381C314.26 560.314 313.626 559.217 312.559 558.931C311.492 558.646 310.396 559.279 310.11 560.346L305.451 577.732ZM308.383 579.982L363.775 548.002L361.775 544.537L306.383 576.518L308.383 579.982Z" fill="#183153"/>
<path d="M451.091 520.441C451.644 519.485 451.316 518.262 450.359 517.709L434.771 508.709C433.814 508.157 432.591 508.485 432.039 509.441C431.486 510.398 431.814 511.621 432.771 512.174L446.627 520.174L438.627 534.03C438.075 534.987 438.403 536.21 439.359 536.762C440.316 537.314 441.539 536.987 442.091 536.03L451.091 520.441ZM448.842 517.51L387.06 534.064L388.095 537.928L449.877 521.373L448.842 517.51Z" fill="#183153"/>
<path d="M451.091 520.441C451.644 519.485 451.316 518.262 450.359 517.709L434.771 508.709C433.814 508.157 432.591 508.485 432.039 509.441C431.486 510.398 431.814 511.621 432.771 512.174L446.627 520.174L438.627 534.03C438.075 534.987 438.403 536.21 439.359 536.762C440.316 537.314 441.539 536.987 442.091 536.03L451.091 520.441ZM448.842 517.51L387.06 534.064L388.095 537.928L449.877 521.373L448.842 517.51Z" fill="#183153"/>
<path d="M297.909 558.558C297.356 559.515 297.684 560.738 298.641 561.29L314.229 570.29C315.186 570.843 316.409 570.515 316.961 569.558C317.514 568.602 317.186 567.379 316.229 566.826L302.373 558.826L310.373 544.97C310.925 544.013 310.597 542.79 309.641 542.238C308.684 541.686 307.461 542.013 306.909 542.97L297.909 558.558ZM300.158 561.49L361.94 544.936L360.905 541.072L299.123 557.627L300.158 561.49Z" fill="#183153"/>
<path d="M297.909 558.558C297.356 559.515 297.684 560.738 298.641 561.29L314.229 570.29C315.186 570.843 316.409 570.515 316.961 569.558C317.514 568.602 317.186 567.379 316.229 566.826L302.373 558.826L310.373 544.97C310.925 544.013 310.597 542.79 309.641 542.238C308.684 541.686 307.461 542.013 306.909 542.97L297.909 558.558ZM300.158 561.49L361.94 544.936L360.905 541.072L299.123 557.627L300.158 561.49Z" fill="#183153"/>
<path d="M453.414 540.914C454.195 540.133 454.195 538.867 453.414 538.086L440.686 525.358C439.905 524.577 438.639 524.577 437.858 525.358C437.077 526.139 437.077 527.405 437.858 528.186L449.172 539.5L437.858 550.814C437.077 551.595 437.077 552.861 437.858 553.642C438.639 554.423 439.905 554.423 440.686 553.642L453.414 540.914ZM452 537.5L388.039 537.5L388.039 541.5L452 541.5L452 537.5Z" fill="#183153"/>
<path d="M453.414 540.914C454.195 540.133 454.195 538.867 453.414 538.086L440.686 525.358C439.905 524.577 438.639 524.577 437.858 525.358C437.077 526.139 437.077 527.405 437.858 528.186L449.172 539.5L437.858 550.814C437.077 551.595 437.077 552.861 437.858 553.642C438.639 554.423 439.905 554.423 440.686 553.642L453.414 540.914ZM452 537.5L388.039 537.5L388.039 541.5L452 541.5L452 537.5Z" fill="#183153"/>
<path d="M295.586 538.086C294.805 538.867 294.805 540.133 295.586 540.914L308.314 553.642C309.095 554.423 310.361 554.423 311.142 553.642C311.923 552.861 311.923 551.595 311.142 550.814L299.828 539.5L311.142 528.186C311.923 527.405 311.923 526.139 311.142 525.358C310.361 524.577 309.095 524.577 308.314 525.358L295.586 538.086ZM297 541.5L360.961 541.5L360.961 537.5L297 537.5L297 541.5Z" fill="#183153"/>
<path d="M295.586 538.086C294.805 538.867 294.805 540.133 295.586 540.914L308.314 553.642C309.095 554.423 310.361 554.423 311.142 553.642C311.923 552.861 311.923 551.595 311.142 550.814L299.828 539.5L311.142 528.186C311.923 527.405 311.923 526.139 311.142 525.358C310.361 524.577 309.095 524.577 308.314 525.358L295.586 538.086ZM297 541.5L360.961 541.5L360.961 537.5L297 537.5L297 541.5Z" fill="#183153"/>
<path d="M450.359 561.29C451.316 560.738 451.644 559.515 451.091 558.558L442.091 542.97C441.539 542.013 440.316 541.686 439.359 542.238C438.403 542.79 438.075 544.013 438.627 544.97L446.627 558.826L432.771 566.826C431.814 567.379 431.486 568.602 432.039 569.558C432.591 570.515 433.814 570.843 434.771 570.29L450.359 561.29ZM449.877 557.627L388.095 541.072L387.06 544.936L448.842 561.49L449.877 557.627Z" fill="#183153"/>
<path d="M450.359 561.29C451.316 560.738 451.644 559.515 451.091 558.558L442.091 542.97C441.539 542.013 440.316 541.686 439.359 542.238C438.403 542.79 438.075 544.013 438.627 544.97L446.627 558.826L432.771 566.826C431.814 567.379 431.486 568.602 432.039 569.558C432.591 570.515 433.814 570.843 434.771 570.29L450.359 561.29ZM449.877 557.627L388.095 541.072L387.06 544.936L448.842 561.49L449.877 557.627Z" fill="#183153"/>
<path d="M298.641 517.709C297.684 518.262 297.356 519.485 297.909 520.441L306.909 536.03C307.461 536.987 308.684 537.314 309.641 536.762C310.597 536.21 310.925 534.987 310.373 534.03L302.373 520.174L316.229 512.174C317.186 511.621 317.514 510.398 316.961 509.441C316.409 508.485 315.186 508.157 314.229 508.709L298.641 517.709ZM299.123 521.373L360.905 537.928L361.94 534.064L300.158 517.51L299.123 521.373Z" fill="#183153"/>
<path d="M298.641 517.709C297.684 518.262 297.356 519.485 297.909 520.441L306.909 536.03C307.461 536.987 308.684 537.314 309.641 536.762C310.597 536.21 310.925 534.987 310.373 534.03L302.373 520.174L316.229 512.174C317.186 511.621 317.514 510.398 316.961 509.441C316.409 508.485 315.186 508.157 314.229 508.709L298.641 517.709ZM299.123 521.373L360.905 537.928L361.94 534.064L300.158 517.51L299.123 521.373Z" fill="#183153"/>
<path d="M442.135 580.182C443.202 579.896 443.835 578.799 443.549 577.732L438.89 560.346C438.604 559.279 437.508 558.646 436.441 558.931C435.374 559.217 434.74 560.314 435.026 561.381L439.167 576.836L423.713 580.977C422.646 581.263 422.013 582.359 422.298 583.426C422.584 584.493 423.681 585.126 424.748 584.841L442.135 580.182ZM442.617 576.518L387.225 544.537L385.225 548.002L440.617 579.982L442.617 576.518Z" fill="#183153"/>
<path d="M442.135 580.182C443.202 579.896 443.835 578.799 443.549 577.732L438.89 560.346C438.604 559.279 437.508 558.646 436.441 558.931C435.374 559.217 434.74 560.314 435.026 561.381L439.167 576.836L423.713 580.977C422.646 581.263 422.013 582.359 422.298 583.426C422.584 584.493 423.681 585.126 424.748 584.841L442.135 580.182ZM442.617 576.518L387.225 544.537L385.225 548.002L440.617 579.982L442.617 576.518Z" fill="#183153"/>
<path d="M306.865 498.818C305.798 499.104 305.165 500.201 305.451 501.268L310.11 518.654C310.396 519.721 311.492 520.354 312.559 520.068C313.626 519.783 314.26 518.686 313.974 517.619L309.833 502.164L325.287 498.023C326.354 497.737 326.987 496.641 326.702 495.574C326.416 494.507 325.319 493.873 324.252 494.159L306.865 498.818ZM306.383 502.482L361.775 534.462L363.775 530.998L308.383 499.018L306.383 502.482Z" fill="#183153"/>
<path d="M306.865 498.818C305.798 499.104 305.165 500.201 305.451 501.268L310.11 518.654C310.396 519.721 311.492 520.354 312.559 520.068C313.626 519.783 314.26 518.686 313.974 517.619L309.833 502.164L325.287 498.023C326.354 497.737 326.987 496.641 326.702 495.574C326.416 494.507 325.319 493.873 324.252 494.159L306.865 498.818ZM306.383 502.482L361.775 534.462L363.775 530.998L308.383 499.018L306.383 502.482Z" fill="#183153"/>
<path d="M429.301 596.301C430.405 596.301 431.301 595.405 431.301 594.301L431.301 576.301C431.301 575.196 430.405 574.301 429.301 574.301C428.196 574.301 427.301 575.196 427.301 576.301L427.301 592.301L411.301 592.301C410.196 592.301 409.301 593.196 409.301 594.301C409.301 595.405 410.196 596.301 411.301 596.301L429.301 596.301ZM430.715 592.887L385.488 547.659L382.659 550.488L427.887 595.715L430.715 592.887Z" fill="#183153"/>
<path d="M429.301 596.301C430.405 596.301 431.301 595.405 431.301 594.301L431.301 576.301C431.301 575.196 430.405 574.301 429.301 574.301C428.196 574.301 427.301 575.196 427.301 576.301L427.301 592.301L411.301 592.301C410.196 592.301 409.301 593.196 409.301 594.301C409.301 595.405 410.196 596.301 411.301 596.301L429.301 596.301ZM430.715 592.887L385.488 547.659L382.659 550.488L427.887 595.715L430.715 592.887Z" fill="#183153"/>
<path d="M319.699 482.699C318.595 482.699 317.699 483.595 317.699 484.699L317.699 502.699C317.699 503.804 318.595 504.699 319.699 504.699C320.804 504.699 321.699 503.804 321.699 502.699L321.699 486.699L337.699 486.699C338.804 486.699 339.699 485.804 339.699 484.699C339.699 483.595 338.804 482.699 337.699 482.699L319.699 482.699ZM318.285 486.113L363.512 531.341L366.341 528.512L321.113 483.285L318.285 486.113Z" fill="#183153"/>
<path d="M319.699 482.699C318.595 482.699 317.699 483.595 317.699 484.699L317.699 502.699C317.699 503.804 318.595 504.699 319.699 504.699C320.804 504.699 321.699 503.804 321.699 502.699L321.699 486.699L337.699 486.699C338.804 486.699 339.699 485.804 339.699 484.699C339.699 483.595 338.804 482.699 337.699 482.699L319.699 482.699ZM318.285 486.113L363.512 531.341L366.341 528.512L321.113 483.285L318.285 486.113Z" fill="#183153"/>
</g>
<defs>
<filter id="filter0_d_1_3" x="269" y="434" width="211" height="211" filterUnits="userSpaceOnUse" color-interpolation-filters="sRGB">
<feFlood flood-opacity="0" result="BackgroundImageFix"/>
<feColorMatrix in="SourceAlpha" type="matrix" values="0 0 0 0 0 0 0 0 0 0 0 0 0 0 0 0 0 0 127 0" result="hardAlpha"/>
<feOffset/>
<feGaussianBlur stdDeviation="13"/>
<feComposite in2="hardAlpha" operator="out"/>
<feColorMatrix type="matrix" values="0 0 0 0 0 0 0 0 0 0 0 0 0 0 0 0 0 0 0.25 0"/>
<feBlend mode="normal" in2="BackgroundImageFix" result="effect1_dropShadow_1_3"/>
<feBlend mode="normal" in="SourceGraphic" in2="effect1_dropShadow_1_3" result="shape"/>
</filter>
<linearGradient id="paint0_linear_1_3" x1="540" y1="0" x2="540" y2="1080" gradientUnits="userSpaceOnUse">
<stop stop-color="white"/>
<stop offset="0.317101" stop-color="#FCFCFD" stop-opacity="0.8"/>
<stop offset="0.73399" stop-color="#F6F6F6" stop-opacity="0.677975"/>
<stop offset="1" stop-color="#FCFCFD" stop-opacity="0.8"/>
</linearGradient>
</defs>
</svg>
