<svg width="131" height="52" viewBox="0 0 131 52" fill="none" xmlns="http://www.w3.org/2000/svg">
<path d="M26.6413 0.358671C26.2871 0.00447412 25.7129 0.00447409 25.3587 0.358671L19.5867 6.13063C19.2325 6.48483 19.2325 7.0591 19.5867 7.41329C19.9409 7.76749 20.5152 7.76749 20.8694 7.41329L26 2.28266L31.1306 7.41329C31.4848 7.76749 32.0591 7.76749 32.4133 7.41329C32.7675 7.0591 32.7675 6.48483 32.4133 6.13064L26.6413 0.358671ZM25.093 1L25.093 21.6326L26.907 21.6326L26.907 1L25.093 1Z" fill="#183153"/>
<path d="M26.6413 0.358671C26.2871 0.00447412 25.7129 0.00447409 25.3587 0.358671L19.5867 6.13063C19.2325 6.48483 19.2325 7.0591 19.5867 7.41329C19.9409 7.76749 20.5152 7.76749 20.8694 7.41329L26 2.28266L31.1306 7.41329C31.4848 7.76749 32.0591 7.76749 32.4133 7.41329C32.7675 7.0591 32.7675 6.48483 32.4133 6.13064L26.6413 0.358671ZM25.093 1L25.093 21.6326L26.907 21.6326L26.907 1L25.093 1Z" fill="#183153"/>
<path d="M25.3587 51.6413C25.7129 51.9955 26.2871 51.9955 26.6413 51.6413L32.4133 45.8694C32.7675 45.5152 32.7675 44.9409 32.4133 44.5867C32.0591 44.2325 31.4848 44.2325 31.1306 44.5867L26 49.7173L20.8694 44.5867C20.5152 44.2325 19.9409 44.2325 19.5867 44.5867C19.2325 44.9409 19.2325 45.5152 19.5867 45.8694L25.3587 51.6413ZM26.907 51L26.907 30.3674L25.093 30.3674L25.093 51L26.907 51Z" fill="#183153"/>
<path d="M25.3587 51.6413C25.7129 51.9955 26.2871 51.9955 26.6413 51.6413L32.4133 45.8694C32.7675 45.5152 32.7675 44.9409 32.4133 44.5867C32.0591 44.2325 31.4848 44.2325 31.1306 44.5867L26 49.7173L20.8694 44.5867C20.5152 44.2325 19.9409 44.2325 19.5867 44.5867C19.2325 44.9409 19.2325 45.5152 19.5867 45.8694L25.3587 51.6413ZM26.907 51L26.907 30.3674L25.093 30.3674L25.093 51L26.907 51Z" fill="#183153"/>
<path d="M26.6413 0.358671C26.2871 0.00447412 25.7129 0.00447409 25.3587 0.358671L19.5867 6.13063C19.2325 6.48483 19.2325 7.0591 19.5867 7.41329C19.9409 7.76749 20.5152 7.76749 20.8694 7.41329L26 2.28266L31.1306 7.41329C31.4848 7.76749 32.0591 7.76749 32.4133 7.41329C32.7675 7.0591 32.7675 6.48483 32.4133 6.13064L26.6413 0.358671ZM25.093 1L25.093 21.6326L26.907 21.6326L26.907 1L25.093 1Z" fill="#183153"/>
<path d="M26.6413 0.358671C26.2871 0.00447412 25.7129 0.00447409 25.3587 0.358671L19.5867 6.13063C19.2325 6.48483 19.2325 7.0591 19.5867 7.41329C19.9409 7.76749 20.5152 7.76749 20.8694 7.41329L26 2.28266L31.1306 7.41329C31.4848 7.76749 32.0591 7.76749 32.4133 7.41329C32.7675 7.0591 32.7675 6.48483 32.4133 6.13064L26.6413 0.358671ZM25.093 1L25.093 21.6326L26.907 21.6326L26.907 1L25.093 1Z" fill="#183153"/>
<path d="M25.3587 51.6413C25.7129 51.9955 26.2871 51.9955 26.6413 51.6413L32.4133 45.8694C32.7675 45.5152 32.7675 44.9409 32.4133 44.5867C32.0591 44.2325 31.4848 44.2325 31.1306 44.5867L26 49.7173L20.8694 44.5867C20.5152 44.2325 19.9409 44.2325 19.5867 44.5867C19.2325 44.9409 19.2325 45.5152 19.5867 45.8694L25.3587 51.6413ZM26.907 51L26.907 30.3674L25.093 30.3674L25.093 51L26.907 51Z" fill="#183153"/>
<path d="M25.3587 51.6413C25.7129 51.9955 26.2871 51.9955 26.6413 51.6413L32.4133 45.8694C32.7675 45.5152 32.7675 44.9409 32.4133 44.5867C32.0591 44.2325 31.4848 44.2325 31.1306 44.5867L26 49.7173L20.8694 44.5867C20.5152 44.2325 19.9409 44.2325 19.5867 44.5867C19.2325 44.9409 19.2325 45.5152 19.5867 45.8694L25.3587 51.6413ZM26.907 51L26.907 30.3674L25.093 30.3674L25.093 51L26.907 51Z" fill="#183153"/>
<path d="M26.6413 0.358671C26.2871 0.00447412 25.7129 0.00447409 25.3587 0.358671L19.5867 6.13063C19.2325 6.48483 19.2325 7.0591 19.5867 7.41329C19.9409 7.76749 20.5152 7.76749 20.8694 7.41329L26 2.28266L31.1306 7.41329C31.4848 7.76749 32.0591 7.76749 32.4133 7.41329C32.7675 7.0591 32.7675 6.48483 32.4133 6.13064L26.6413 0.358671ZM25.093 1L25.093 21.6326L26.907 21.6326L26.907 1L25.093 1Z" fill="#183153"/>
<path d="M26.6413 0.358671C26.2871 0.00447412 25.7129 0.00447409 25.3587 0.358671L19.5867 6.13063C19.2325 6.48483 19.2325 7.0591 19.5867 7.41329C19.9409 7.76749 20.5152 7.76749 20.8694 7.41329L26 2.28266L31.1306 7.41329C31.4848 7.76749 32.0591 7.76749 32.4133 7.41329C32.7675 7.0591 32.7675 6.48483 32.4133 6.13064L26.6413 0.358671ZM25.093 1L25.093 21.6326L26.907 21.6326L26.907 1L25.093 1Z" fill="#183153"/>
<path d="M25.3587 51.6413C25.7129 51.9955 26.2871 51.9955 26.6413 51.6413L32.4133 45.8694C32.7675 45.5152 32.7675 44.9409 32.4133 44.5867C32.0591 44.2325 31.4848 44.2325 31.1306 44.5867L26 49.7173L20.8694 44.5867C20.5152 44.2325 19.9409 44.2325 19.5867 44.5867C19.2325 44.9409 19.2325 45.5152 19.5867 45.8694L25.3587 51.6413ZM26.907 51L26.907 30.3674L25.093 30.3674L25.093 51L26.907 51Z" fill="#183153"/>
<path d="M25.3587 51.6413C25.7129 51.9955 26.2871 51.9955 26.6413 51.6413L32.4133 45.8694C32.7675 45.5152 32.7675 44.9409 32.4133 44.5867C32.0591 44.2325 31.4848 44.2325 31.1306 44.5867L26 49.7173L20.8694 44.5867C20.5152 44.2325 19.9409 44.2325 19.5867 44.5867C19.2325 44.9409 19.2325 45.5152 19.5867 45.8694L25.3587 51.6413ZM26.907 51L26.907 30.3674L25.093 30.3674L25.093 51L26.907 51Z" fill="#183153"/>
<path d="M26.6413 0.358671C26.2871 0.00447412 25.7129 0.00447409 25.3587 0.358671L19.5867 6.13063C19.2325 6.48483 19.2325 7.0591 19.5867 7.41329C19.9409 7.76749 20.5152 7.76749 20.8694 7.41329L26 2.28266L31.1306 7.41329C31.4848 7.76749 32.0591 7.76749 32.4133 7.41329C32.7675 7.0591 32.7675 6.48483 32.4133 6.13064L26.6413 0.358671ZM25.093 1L25.093 21.6326L26.907 21.6326L26.907 1L25.093 1Z" fill="#183153"/>
<path d="M26.6413 0.358671C26.2871 0.00447412 25.7129 0.00447409 25.3587 0.358671L19.5867 6.13063C19.2325 6.48483 19.2325 7.0591 19.5867 7.41329C19.9409 7.76749 20.5152 7.76749 20.8694 7.41329L26 2.28266L31.1306 7.41329C31.4848 7.76749 32.0591 7.76749 32.4133 7.41329C32.7675 7.0591 32.7675 6.48483 32.4133 6.13064L26.6413 0.358671ZM25.093 1L25.093 21.6326L26.907 21.6326L26.907 1L25.093 1Z" fill="#183153"/>
<path d="M25.3587 51.6413C25.7129 51.9955 26.2871 51.9955 26.6413 51.6413L32.4133 45.8694C32.7675 45.5152 32.7675 44.9409 32.4133 44.5867C32.0591 44.2325 31.4848 44.2325 31.1306 44.5867L26 49.7173L20.8694 44.5867C20.5152 44.2325 19.9409 44.2325 19.5867 44.5867C19.2325 44.9409 19.2325 45.5152 19.5867 45.8694L25.3587 51.6413ZM26.907 51L26.907 30.3674L25.093 30.3674L25.093 51L26.907 51Z" fill="#183153"/>
<path d="M25.3587 51.6413C25.7129 51.9955 26.2871 51.9955 26.6413 51.6413L32.4133 45.8694C32.7675 45.5152 32.7675 44.9409 32.4133 44.5867C32.0591 44.2325 31.4848 44.2325 31.1306 44.5867L26 49.7173L20.8694 44.5867C20.5152 44.2325 19.9409 44.2325 19.5867 44.5867C19.2325 44.9409 19.2325 45.5152 19.5867 45.8694L25.3587 51.6413ZM26.907 51L26.907 30.3674L25.093 30.3674L25.093 51L26.907 51Z" fill="#183153"/>
<path d="M19.8174 1.10705C19.382 0.859481 18.8283 1.01179 18.5807 1.44724L14.5463 8.54335C14.2987 8.9788 14.451 9.5325 14.8865 9.78007C15.3219 10.0276 15.8756 9.87533 16.1232 9.43988L19.7093 3.13223L26.017 6.71837C26.4524 6.96594 27.0061 6.81363 27.2537 6.37818C27.5013 5.94273 27.349 5.38903 26.9135 5.14146L19.8174 1.10705ZM18.4946 2.13606L23.9669 22.0298L25.7159 21.5487L20.2436 1.65496L18.4946 2.13606Z" fill="#183153"/>
<path d="M19.8174 1.10705C19.382 0.859481 18.8283 1.01179 18.5807 1.44724L14.5463 8.54335C14.2987 8.9788 14.451 9.5325 14.8865 9.78007C15.3219 10.0276 15.8756 9.87533 16.1232 9.43988L19.7093 3.13223L26.017 6.71837C26.4524 6.96594 27.0061 6.81363 27.2537 6.37818C27.5013 5.94273 27.349 5.38903 26.9135 5.14146L19.8174 1.10705ZM18.4946 2.13606L23.9669 22.0298L25.7159 21.5487L20.2436 1.65496L18.4946 2.13606Z" fill="#183153"/>
<path d="M32.1845 50.8939C32.62 51.1415 33.1737 50.9892 33.4213 50.5537L37.4557 43.4576C37.7032 43.0222 37.5509 42.4685 37.1155 42.2209C36.68 41.9733 36.1263 42.1256 35.8788 42.5611L32.2926 48.8687L25.985 45.2826C25.5495 45.035 24.9958 45.1873 24.7482 45.6228C24.5007 46.0582 24.653 46.6119 25.0884 46.8595L32.1845 50.8939ZM33.5073 49.8649L28.0351 29.9712L26.2861 30.4523L31.7583 50.346L33.5073 49.8649Z" fill="#183153"/>
<path d="M32.1845 50.8939C32.62 51.1415 33.1737 50.9892 33.4213 50.5537L37.4557 43.4576C37.7032 43.0222 37.5509 42.4685 37.1155 42.2209C36.68 41.9733 36.1263 42.1256 35.8788 42.5611L32.2926 48.8687L25.985 45.2826C25.5495 45.035 24.9958 45.1873 24.7482 45.6228C24.5007 46.0582 24.653 46.6119 25.0884 46.8595L32.1845 50.8939ZM33.5073 49.8649L28.0351 29.9712L26.2861 30.4523L31.7583 50.346L33.5073 49.8649Z" fill="#183153"/>
<path d="M13.7338 3.47354C13.2499 3.34389 12.7526 3.63103 12.623 4.11487L10.5103 11.9995C10.3806 12.4834 10.6678 12.9807 11.1516 13.1103C11.6354 13.24 12.1328 12.9528 12.2624 12.469L14.1404 5.46042L21.1489 7.33837C21.6328 7.46801 22.1301 7.18088 22.2597 6.69704C22.3894 6.2132 22.1023 5.71587 21.6184 5.58622L13.7338 3.47354ZM12.7136 4.8031L23.0299 22.6715L24.6008 21.7645L14.2845 3.89612L12.7136 4.8031Z" fill="#183153"/>
<path d="M13.7338 3.47354C13.2499 3.34389 12.7526 3.63103 12.623 4.11487L10.5103 11.9995C10.3806 12.4834 10.6678 12.9807 11.1516 13.1103C11.6354 13.24 12.1328 12.9528 12.2624 12.469L14.1404 5.46042L21.1489 7.33837C21.6328 7.46801 22.1301 7.18088 22.2597 6.69704C22.3894 6.2132 22.1023 5.71587 21.6184 5.58622L13.7338 3.47354ZM12.7136 4.8031L23.0299 22.6715L24.6008 21.7645L14.2845 3.89612L12.7136 4.8031Z" fill="#183153"/>
<path d="M38.2662 48.5274C38.7501 48.6571 39.2474 48.37 39.377 47.8861L41.4897 40.0015C41.6194 39.5176 41.3322 39.0203 40.8484 38.8906C40.3646 38.761 39.8672 39.0481 39.7376 39.532L37.8596 46.5406L30.8511 44.6626C30.3672 44.533 29.8699 44.8201 29.7403 45.3039C29.6106 45.7878 29.8977 46.2851 30.3816 46.4148L38.2662 48.5274ZM39.2864 47.1979L28.9701 29.3295L27.3992 30.2365L37.7155 48.1049L39.2864 47.1979Z" fill="#183153"/>
<path d="M38.2662 48.5274C38.7501 48.6571 39.2474 48.37 39.377 47.8861L41.4897 40.0015C41.6194 39.5176 41.3322 39.0203 40.8484 38.8906C40.3646 38.761 39.8672 39.0481 39.7376 39.532L37.8596 46.5406L30.8511 44.6626C30.3672 44.533 29.8699 44.8201 29.7403 45.3039C29.6106 45.7878 29.8977 46.2851 30.3816 46.4148L38.2662 48.5274ZM39.2864 47.1979L28.9701 29.3295L27.3992 30.2365L37.7155 48.1049L39.2864 47.1979Z" fill="#183153"/>
<path d="M33.2552 1.39856C33.0047 0.964762 32.45 0.816131 32.0162 1.06659L24.9471 5.14798C24.5133 5.39844 24.3646 5.95313 24.6151 6.38693C24.8655 6.82073 25.4202 6.96937 25.854 6.71891L32.1377 3.091L35.7657 9.37472C36.0161 9.80852 36.5708 9.95715 37.0046 9.7067C37.4384 9.45625 37.587 8.90155 37.3366 8.46775L33.2552 1.39856ZM31.5937 1.61731L26.2535 21.5469L28.0057 22.0164L33.3458 2.08679L31.5937 1.61731Z" fill="#183153"/>
<path d="M33.2552 1.39856C33.0047 0.964762 32.45 0.816131 32.0162 1.06659L24.9471 5.14798C24.5133 5.39844 24.3646 5.95313 24.6151 6.38693C24.8655 6.82073 25.4202 6.96937 25.854 6.71891L32.1377 3.091L35.7657 9.37472C36.0161 9.80852 36.5708 9.95715 37.0046 9.7067C37.4384 9.45625 37.587 8.90155 37.3366 8.46775L33.2552 1.39856ZM31.5937 1.61731L26.2535 21.5469L28.0057 22.0164L33.3458 2.08679L31.5937 1.61731Z" fill="#183153"/>
<path d="M18.7438 50.6019C18.9943 51.0357 19.549 51.1844 19.9828 50.9339L27.052 46.8525C27.4858 46.6021 27.6344 46.0474 27.3839 45.6136C27.1335 45.1798 26.5788 45.0311 26.145 45.2816L19.8613 48.9095L16.2334 42.6258C15.9829 42.192 15.4282 42.0433 14.9944 42.2938C14.5606 42.5442 14.412 43.0989 14.6624 43.5327L18.7438 50.6019ZM20.4054 50.3832L25.7455 30.4536L23.9933 29.9841L18.6532 49.9137L20.4054 50.3832Z" fill="#183153"/>
<path d="M18.7438 50.6019C18.9943 51.0357 19.549 51.1844 19.9828 50.9339L27.052 46.8525C27.4858 46.6021 27.6344 46.0474 27.3839 45.6136C27.1335 45.1798 26.5788 45.0311 26.145 45.2816L19.8613 48.9095L16.2334 42.6258C15.9829 42.192 15.4282 42.0433 14.9944 42.2938C14.5606 42.5442 14.412 43.0989 14.6624 43.5327L18.7438 50.6019ZM20.4054 50.3832L25.7455 30.4536L23.9933 29.9841L18.6532 49.9137L20.4054 50.3832Z" fill="#183153"/>
<path d="M33.2552 1.39856C33.0047 0.964762 32.45 0.816131 32.0162 1.06659L24.9471 5.14798C24.5133 5.39844 24.3646 5.95313 24.6151 6.38693C24.8655 6.82073 25.4202 6.96937 25.854 6.71891L32.1377 3.091L35.7657 9.37472C36.0161 9.80852 36.5708 9.95715 37.0046 9.7067C37.4384 9.45625 37.587 8.90155 37.3366 8.46775L33.2552 1.39856ZM31.5937 1.61731L26.2535 21.5469L28.0057 22.0164L33.3458 2.08679L31.5937 1.61731Z" fill="#183153"/>
<path d="M33.2552 1.39856C33.0047 0.964762 32.45 0.816131 32.0162 1.06659L24.9471 5.14798C24.5133 5.39844 24.3646 5.95313 24.6151 6.38693C24.8655 6.82073 25.4202 6.96937 25.854 6.71891L32.1377 3.091L35.7657 9.37472C36.0161 9.80852 36.5708 9.95715 37.0046 9.7067C37.4384 9.45625 37.587 8.90155 37.3366 8.46775L33.2552 1.39856ZM31.5937 1.61731L26.2535 21.5469L28.0057 22.0164L33.3458 2.08679L31.5937 1.61731Z" fill="#183153"/>
<path d="M18.7438 50.6019C18.9943 51.0357 19.549 51.1844 19.9828 50.9339L27.052 46.8525C27.4858 46.6021 27.6344 46.0474 27.3839 45.6136C27.1335 45.1798 26.5788 45.0311 26.145 45.2816L19.8613 48.9095L16.2334 42.6258C15.9829 42.192 15.4282 42.0433 14.9944 42.2938C14.5606 42.5442 14.412 43.0989 14.6624 43.5327L18.7438 50.6019ZM20.4054 50.3832L25.7455 30.4536L23.9933 29.9841L18.6532 49.9137L20.4054 50.3832Z" fill="#183153"/>
<path d="M18.7438 50.6019C18.9943 51.0357 19.549 51.1844 19.9828 50.9339L27.052 46.8525C27.4858 46.6021 27.6344 46.0474 27.3839 45.6136C27.1335 45.1798 26.5788 45.0311 26.145 45.2816L19.8613 48.9095L16.2334 42.6258C15.9829 42.192 15.4282 42.0433 14.9944 42.2938C14.5606 42.5442 14.412 43.0989 14.6624 43.5327L18.7438 50.6019ZM20.4054 50.3832L25.7455 30.4536L23.9933 29.9841L18.6532 49.9137L20.4054 50.3832Z" fill="#183153"/>
<path d="M33.2552 1.39856C33.0047 0.964762 32.45 0.816131 32.0162 1.06659L24.9471 5.14798C24.5133 5.39844 24.3646 5.95313 24.6151 6.38693C24.8655 6.82073 25.4202 6.96937 25.854 6.71891L32.1377 3.091L35.7657 9.37472C36.0161 9.80852 36.5708 9.95715 37.0046 9.7067C37.4384 9.45625 37.587 8.90155 37.3366 8.46775L33.2552 1.39856ZM31.5937 1.61731L26.2535 21.5469L28.0057 22.0164L33.3458 2.08679L31.5937 1.61731Z" fill="#183153"/>
<path d="M33.2552 1.39856C33.0047 0.964762 32.45 0.816131 32.0162 1.06659L24.9471 5.14798C24.5133 5.39844 24.3646 5.95313 24.6151 6.38693C24.8655 6.82073 25.4202 6.96937 25.854 6.71891L32.1377 3.091L35.7657 9.37472C36.0161 9.80852 36.5708 9.95715 37.0046 9.7067C37.4384 9.45625 37.587 8.90155 37.3366 8.46775L33.2552 1.39856ZM31.5937 1.61731L26.2535 21.5469L28.0057 22.0164L33.3458 2.08679L31.5937 1.61731Z" fill="#183153"/>
<path d="M18.7438 50.6019C18.9943 51.0357 19.549 51.1844 19.9828 50.9339L27.052 46.8525C27.4858 46.6021 27.6344 46.0474 27.3839 45.6136C27.1335 45.1798 26.5788 45.0311 26.145 45.2816L19.8613 48.9095L16.2334 42.6258C15.9829 42.192 15.4282 42.0433 14.9944 42.2938C14.5606 42.5442 14.412 43.0989 14.6624 43.5327L18.7438 50.6019ZM20.4054 50.3832L25.7455 30.4536L23.9933 29.9841L18.6532 49.9137L20.4054 50.3832Z" fill="#183153"/>
<path d="M18.7438 50.6019C18.9943 51.0357 19.549 51.1844 19.9828 50.9339L27.052 46.8525C27.4858 46.6021 27.6344 46.0474 27.3839 45.6136C27.1335 45.1798 26.5788 45.0311 26.145 45.2816L19.8613 48.9095L16.2334 42.6258C15.9829 42.192 15.4282 42.0433 14.9944 42.2938C14.5606 42.5442 14.412 43.0989 14.6624 43.5327L18.7438 50.6019ZM20.4054 50.3832L25.7455 30.4536L23.9933 29.9841L18.6532 49.9137L20.4054 50.3832Z" fill="#183153"/>
<path d="M33.2552 1.39856C33.0047 0.964762 32.45 0.816131 32.0162 1.06659L24.9471 5.14798C24.5133 5.39844 24.3646 5.95313 24.6151 6.38693C24.8655 6.82073 25.4202 6.96937 25.854 6.71891L32.1377 3.091L35.7657 9.37472C36.0161 9.80852 36.5708 9.95715 37.0046 9.7067C37.4384 9.45625 37.587 8.90155 37.3366 8.46775L33.2552 1.39856ZM31.5937 1.61731L26.2535 21.5469L28.0057 22.0164L33.3458 2.08679L31.5937 1.61731Z" fill="#183153"/>
<path d="M33.2552 1.39856C33.0047 0.964762 32.45 0.816131 32.0162 1.06659L24.9471 5.14798C24.5133 5.39844 24.3646 5.95313 24.6151 6.38693C24.8655 6.82073 25.4202 6.96937 25.854 6.71891L32.1377 3.091L35.7657 9.37472C36.0161 9.80852 36.5708 9.95715 37.0046 9.7067C37.4384 9.45625 37.587 8.90155 37.3366 8.46775L33.2552 1.39856ZM31.5937 1.61731L26.2535 21.5469L28.0057 22.0164L33.3458 2.08679L31.5937 1.61731Z" fill="#183153"/>
<path d="M18.7438 50.6019C18.9943 51.0357 19.549 51.1844 19.9828 50.9339L27.052 46.8525C27.4858 46.6021 27.6344 46.0474 27.3839 45.6136C27.1335 45.1798 26.5788 45.0311 26.145 45.2816L19.8613 48.9095L16.2334 42.6258C15.9829 42.192 15.4282 42.0433 14.9944 42.2938C14.5606 42.5442 14.412 43.0989 14.6624 43.5327L18.7438 50.6019ZM20.4054 50.3832L25.7455 30.4536L23.9933 29.9841L18.6532 49.9137L20.4054 50.3832Z" fill="#183153"/>
<path d="M18.7438 50.6019C18.9943 51.0357 19.549 51.1844 19.9828 50.9339L27.052 46.8525C27.4858 46.6021 27.6344 46.0474 27.3839 45.6136C27.1335 45.1798 26.5788 45.0311 26.145 45.2816L19.8613 48.9095L16.2334 42.6258C15.9829 42.192 15.4282 42.0433 14.9944 42.2938C14.5606 42.5442 14.412 43.0989 14.6624 43.5327L18.7438 50.6019ZM20.4054 50.3832L25.7455 30.4536L23.9933 29.9841L18.6532 49.9137L20.4054 50.3832Z" fill="#183153"/>
<path d="M39.8803 4.43168C39.762 3.94495 39.2714 3.64634 38.7847 3.7647L30.8531 5.69357C30.3664 5.81193 30.0677 6.30245 30.1861 6.78918C30.3045 7.2759 30.795 7.57452 31.2817 7.45615L38.3321 5.74161L40.0466 12.7919C40.165 13.2787 40.6555 13.5773 41.1422 13.4589C41.6289 13.3405 41.9275 12.85 41.8092 12.3633L39.8803 4.43168ZM38.2243 4.17437L27.4955 21.7982L29.0449 22.7414L39.7737 5.11762L38.2243 4.17437Z" fill="#183153"/>
<path d="M39.8803 4.43168C39.762 3.94495 39.2714 3.64634 38.7847 3.7647L30.8531 5.69357C30.3664 5.81193 30.0677 6.30245 30.1861 6.78918C30.3045 7.2759 30.795 7.57452 31.2817 7.45615L38.3321 5.74161L40.0466 12.7919C40.165 13.2787 40.6555 13.5773 41.1422 13.4589C41.6289 13.3405 41.9275 12.85 41.8092 12.3633L39.8803 4.43168ZM38.2243 4.17437L27.4955 21.7982L29.0449 22.7414L39.7737 5.11762L38.2243 4.17437Z" fill="#183153"/>
<path d="M12.1187 47.5693C12.2371 48.056 12.7276 48.3546 13.2143 48.2363L21.1459 46.3074C21.6327 46.189 21.9313 45.6985 21.8129 45.2118C21.6945 44.7251 21.204 44.4265 20.7173 44.5448L13.667 46.2594L11.9524 39.209C11.8341 38.7223 11.3435 38.4237 10.8568 38.5421C10.3701 38.6604 10.0715 39.151 10.1898 39.6377L12.1187 47.5693ZM13.7747 47.8266L24.5035 30.2028L22.9541 29.2596L12.2253 46.8834L13.7747 47.8266Z" fill="#183153"/>
<path d="M12.1187 47.5693C12.2371 48.056 12.7276 48.3546 13.2143 48.2363L21.1459 46.3074C21.6327 46.189 21.9313 45.6985 21.8129 45.2118C21.6945 44.7251 21.204 44.4265 20.7173 44.5448L13.667 46.2594L11.9524 39.209C11.8341 38.7223 11.3435 38.4237 10.8568 38.5421C10.3701 38.6604 10.0715 39.151 10.1898 39.6377L12.1187 47.5693ZM13.7747 47.8266L24.5035 30.2028L22.9541 29.2596L12.2253 46.8834L13.7747 47.8266Z" fill="#183153"/>
<path d="M39.8803 4.43168C39.762 3.94495 39.2714 3.64634 38.7847 3.7647L30.8531 5.69357C30.3664 5.81193 30.0677 6.30245 30.1861 6.78918C30.3045 7.2759 30.795 7.57452 31.2817 7.45615L38.3321 5.74161L40.0466 12.7919C40.165 13.2787 40.6555 13.5773 41.1422 13.4589C41.6289 13.3405 41.9275 12.85 41.8092 12.3633L39.8803 4.43168ZM38.2243 4.17437L27.4955 21.7982L29.0449 22.7414L39.7737 5.11762L38.2243 4.17437Z" fill="#183153"/>
<path d="M39.8803 4.43168C39.762 3.94495 39.2714 3.64634 38.7847 3.7647L30.8531 5.69357C30.3664 5.81193 30.0677 6.30245 30.1861 6.78918C30.3045 7.2759 30.795 7.57452 31.2817 7.45615L38.3321 5.74161L40.0466 12.7919C40.165 13.2787 40.6555 13.5773 41.1422 13.4589C41.6289 13.3405 41.9275 12.85 41.8092 12.3633L39.8803 4.43168ZM38.2243 4.17437L27.4955 21.7982L29.0449 22.7414L39.7737 5.11762L38.2243 4.17437Z" fill="#183153"/>
<path d="M12.1187 47.5693C12.2371 48.056 12.7276 48.3546 13.2143 48.2363L21.1459 46.3074C21.6327 46.189 21.9313 45.6985 21.8129 45.2118C21.6945 44.7251 21.204 44.4265 20.7173 44.5448L13.667 46.2594L11.9524 39.209C11.8341 38.7223 11.3435 38.4237 10.8568 38.5421C10.3701 38.6604 10.0715 39.151 10.1898 39.6377L12.1187 47.5693ZM13.7747 47.8266L24.5035 30.2028L22.9541 29.2596L12.2253 46.8834L13.7747 47.8266Z" fill="#183153"/>
<path d="M12.1187 47.5693C12.2371 48.056 12.7276 48.3546 13.2143 48.2363L21.1459 46.3074C21.6327 46.189 21.9313 45.6985 21.8129 45.2118C21.6945 44.7251 21.204 44.4265 20.7173 44.5448L13.667 46.2594L11.9524 39.209C11.8341 38.7223 11.3435 38.4237 10.8568 38.5421C10.3701 38.6604 10.0715 39.151 10.1898 39.6377L12.1187 47.5693ZM13.7747 47.8266L24.5035 30.2028L22.9541 29.2596L12.2253 46.8834L13.7747 47.8266Z" fill="#183153"/>
<path d="M39.8803 4.43168C39.762 3.94495 39.2714 3.64634 38.7847 3.7647L30.8531 5.69357C30.3664 5.81193 30.0677 6.30245 30.1861 6.78918C30.3045 7.2759 30.795 7.57452 31.2817 7.45615L38.3321 5.74161L40.0466 12.7919C40.165 13.2787 40.6555 13.5773 41.1422 13.4589C41.6289 13.3405 41.9275 12.85 41.8092 12.3633L39.8803 4.43168ZM38.2243 4.17437L27.4955 21.7982L29.0449 22.7414L39.7737 5.11762L38.2243 4.17437Z" fill="#183153"/>
<path d="M39.8803 4.43168C39.762 3.94495 39.2714 3.64634 38.7847 3.7647L30.8531 5.69357C30.3664 5.81193 30.0677 6.30245 30.1861 6.78918C30.3045 7.2759 30.795 7.57452 31.2817 7.45615L38.3321 5.74161L40.0466 12.7919C40.165 13.2787 40.6555 13.5773 41.1422 13.4589C41.6289 13.3405 41.9275 12.85 41.8092 12.3633L39.8803 4.43168ZM38.2243 4.17437L27.4955 21.7982L29.0449 22.7414L39.7737 5.11762L38.2243 4.17437Z" fill="#183153"/>
<path d="M12.1187 47.5693C12.2371 48.056 12.7276 48.3546 13.2143 48.2363L21.1459 46.3074C21.6327 46.189 21.9313 45.6985 21.8129 45.2118C21.6945 44.7251 21.204 44.4265 20.7173 44.5448L13.667 46.2594L11.9524 39.209C11.8341 38.7223 11.3435 38.4237 10.8568 38.5421C10.3701 38.6604 10.0715 39.151 10.1898 39.6377L12.1187 47.5693ZM13.7747 47.8266L24.5035 30.2028L22.9541 29.2596L12.2253 46.8834L13.7747 47.8266Z" fill="#183153"/>
<path d="M12.1187 47.5693C12.2371 48.056 12.7276 48.3546 13.2143 48.2363L21.1459 46.3074C21.6327 46.189 21.9313 45.6985 21.8129 45.2118C21.6945 44.7251 21.204 44.4265 20.7173 44.5448L13.667 46.2594L11.9524 39.209C11.8341 38.7223 11.3435 38.4237 10.8568 38.5421C10.3701 38.6604 10.0715 39.151 10.1898 39.6377L12.1187 47.5693ZM13.7747 47.8266L24.5035 30.2028L22.9541 29.2596L12.2253 46.8834L13.7747 47.8266Z" fill="#183153"/>
<path d="M39.8803 4.43168C39.762 3.94495 39.2714 3.64634 38.7847 3.7647L30.8531 5.69357C30.3664 5.81193 30.0677 6.30245 30.1861 6.78918C30.3045 7.2759 30.795 7.57452 31.2817 7.45615L38.3321 5.74161L40.0466 12.7919C40.165 13.2787 40.6555 13.5773 41.1422 13.4589C41.6289 13.3405 41.9275 12.85 41.8092 12.3633L39.8803 4.43168ZM38.2243 4.17437L27.4955 21.7982L29.0449 22.7414L39.7737 5.11762L38.2243 4.17437Z" fill="#183153"/>
<path d="M39.8803 4.43168C39.762 3.94495 39.2714 3.64634 38.7847 3.7647L30.8531 5.69357C30.3664 5.81193 30.0677 6.30245 30.1861 6.78918C30.3045 7.2759 30.795 7.57452 31.2817 7.45615L38.3321 5.74161L40.0466 12.7919C40.165 13.2787 40.6555 13.5773 41.1422 13.4589C41.6289 13.3405 41.9275 12.85 41.8092 12.3633L39.8803 4.43168ZM38.2243 4.17437L27.4955 21.7982L29.0449 22.7414L39.7737 5.11762L38.2243 4.17437Z" fill="#183153"/>
<path d="M12.1187 47.5693C12.2371 48.056 12.7276 48.3546 13.2143 48.2363L21.1459 46.3074C21.6327 46.189 21.9313 45.6985 21.8129 45.2118C21.6945 44.7251 21.204 44.4265 20.7173 44.5448L13.667 46.2594L11.9524 39.209C11.8341 38.7223 11.3435 38.4237 10.8568 38.5421C10.3701 38.6604 10.0715 39.151 10.1898 39.6377L12.1187 47.5693ZM13.7747 47.8266L24.5035 30.2028L22.9541 29.2596L12.2253 46.8834L13.7747 47.8266Z" fill="#183153"/>
<path d="M12.1187 47.5693C12.2371 48.056 12.7276 48.3546 13.2143 48.2363L21.1459 46.3074C21.6327 46.189 21.9313 45.6985 21.8129 45.2118C21.6945 44.7251 21.204 44.4265 20.7173 44.5448L13.667 46.2594L11.9524 39.209C11.8341 38.7223 11.3435 38.4237 10.8568 38.5421C10.3701 38.6604 10.0715 39.151 10.1898 39.6377L12.1187 47.5693ZM13.7747 47.8266L24.5035 30.2028L22.9541 29.2596L12.2253 46.8834L13.7747 47.8266Z" fill="#183153"/>
<path d="M44.5837 8.32227C44.5837 7.82136 44.1777 7.41529 43.6768 7.41529L35.514 7.41529C35.0131 7.41529 34.607 7.82136 34.607 8.32226C34.607 8.82317 35.0131 9.22924 35.514 9.22924L42.7698 9.22924L42.7698 16.4851C42.7698 16.986 43.1758 17.392 43.6768 17.392C44.1777 17.392 44.5837 16.986 44.5837 16.4851L44.5837 8.32227ZM43.0354 7.68094L28.446 22.2704L29.7286 23.5531L44.3181 8.9636L43.0354 7.68094Z" fill="#183153"/>
<path d="M44.5837 8.32227C44.5837 7.82136 44.1777 7.41529 43.6768 7.41529L35.514 7.41529C35.0131 7.41529 34.607 7.82136 34.607 8.32226C34.607 8.82317 35.0131 9.22924 35.514 9.22924L42.7698 9.22924L42.7698 16.4851C42.7698 16.986 43.1758 17.392 43.6768 17.392C44.1777 17.392 44.5837 16.986 44.5837 16.4851L44.5837 8.32227ZM43.0354 7.68094L28.446 22.2704L29.7286 23.5531L44.3181 8.9636L43.0354 7.68094Z" fill="#183153"/>
<path d="M7.41529 43.6777C7.41529 44.1786 7.82136 44.5847 8.32227 44.5847L16.4851 44.5847C16.986 44.5847 17.392 44.1786 17.392 43.6777C17.392 43.1768 16.986 42.7708 16.4851 42.7708L9.22924 42.7708L9.22924 35.5149C9.22924 35.014 8.82318 34.608 8.32227 34.608C7.82136 34.608 7.41529 35.014 7.41529 35.5149L7.41529 43.6777ZM8.9636 44.3191L23.5531 29.7296L22.2704 28.4469L7.68094 43.0364L8.9636 44.3191Z" fill="#183153"/>
<path d="M7.41529 43.6777C7.41529 44.1786 7.82136 44.5847 8.32227 44.5847L16.4851 44.5847C16.986 44.5847 17.392 44.1786 17.392 43.6777C17.392 43.1768 16.986 42.7708 16.4851 42.7708L9.22924 42.7708L9.22924 35.5149C9.22924 35.014 8.82318 34.608 8.32227 34.608C7.82136 34.608 7.41529 35.014 7.41529 35.5149L7.41529 43.6777ZM8.9636 44.3191L23.5531 29.7296L22.2704 28.4469L7.68094 43.0364L8.9636 44.3191Z" fill="#183153"/>
<path d="M44.5837 8.32227C44.5837 7.82136 44.1777 7.41529 43.6768 7.41529L35.514 7.41529C35.0131 7.41529 34.607 7.82136 34.607 8.32226C34.607 8.82317 35.0131 9.22924 35.514 9.22924L42.7698 9.22924L42.7698 16.4851C42.7698 16.986 43.1758 17.392 43.6768 17.392C44.1777 17.392 44.5837 16.986 44.5837 16.4851L44.5837 8.32227ZM43.0354 7.68094L28.446 22.2704L29.7286 23.5531L44.3181 8.9636L43.0354 7.68094Z" fill="#183153"/>
<path d="M44.5837 8.32227C44.5837 7.82136 44.1777 7.41529 43.6768 7.41529L35.514 7.41529C35.0131 7.41529 34.607 7.82136 34.607 8.32226C34.607 8.82317 35.0131 9.22924 35.514 9.22924L42.7698 9.22924L42.7698 16.4851C42.7698 16.986 43.1758 17.392 43.6768 17.392C44.1777 17.392 44.5837 16.986 44.5837 16.4851L44.5837 8.32227ZM43.0354 7.68094L28.446 22.2704L29.7286 23.5531L44.3181 8.9636L43.0354 7.68094Z" fill="#183153"/>
<path d="M7.41529 43.6777C7.41529 44.1786 7.82136 44.5847 8.32227 44.5847L16.4851 44.5847C16.986 44.5847 17.392 44.1786 17.392 43.6777C17.392 43.1768 16.986 42.7708 16.4851 42.7708L9.22924 42.7708L9.22924 35.5149C9.22924 35.014 8.82318 34.608 8.32227 34.608C7.82136 34.608 7.41529 35.014 7.41529 35.5149L7.41529 43.6777ZM8.9636 44.3191L23.5531 29.7296L22.2704 28.4469L7.68094 43.0364L8.9636 44.3191Z" fill="#183153"/>
<path d="M7.41529 43.6777C7.41529 44.1786 7.82136 44.5847 8.32227 44.5847L16.4851 44.5847C16.986 44.5847 17.392 44.1786 17.392 43.6777C17.392 43.1768 16.986 42.7708 16.4851 42.7708L9.22924 42.7708L9.22924 35.5149C9.22924 35.014 8.82318 34.608 8.32227 34.608C7.82136 34.608 7.41529 35.014 7.41529 35.5149L7.41529 43.6777ZM8.9636 44.3191L23.5531 29.7296L22.2704 28.4469L7.68094 43.0364L8.9636 44.3191Z" fill="#183153"/>
<path d="M44.5837 8.32227C44.5837 7.82136 44.1777 7.41529 43.6768 7.41529L35.514 7.41529C35.0131 7.41529 34.607 7.82136 34.607 8.32226C34.607 8.82317 35.0131 9.22924 35.514 9.22924L42.7698 9.22924L42.7698 16.4851C42.7698 16.986 43.1758 17.392 43.6768 17.392C44.1777 17.392 44.5837 16.986 44.5837 16.4851L44.5837 8.32227ZM43.0354 7.68094L28.446 22.2704L29.7286 23.5531L44.3181 8.9636L43.0354 7.68094Z" fill="#183153"/>
<path d="M44.5837 8.32227C44.5837 7.82136 44.1777 7.41529 43.6768 7.41529L35.514 7.41529C35.0131 7.41529 34.607 7.82136 34.607 8.32226C34.607 8.82317 35.0131 9.22924 35.514 9.22924L42.7698 9.22924L42.7698 16.4851C42.7698 16.986 43.1758 17.392 43.6768 17.392C44.1777 17.392 44.5837 16.986 44.5837 16.4851L44.5837 8.32227ZM43.0354 7.68094L28.446 22.2704L29.7286 23.5531L44.3181 8.9636L43.0354 7.68094Z" fill="#183153"/>
<path d="M7.41529 43.6777C7.41529 44.1786 7.82136 44.5847 8.32227 44.5847L16.4851 44.5847C16.986 44.5847 17.392 44.1786 17.392 43.6777C17.392 43.1768 16.986 42.7708 16.4851 42.7708L9.22924 42.7708L9.22924 35.5149C9.22924 35.014 8.82318 34.608 8.32227 34.608C7.82136 34.608 7.41529 35.014 7.41529 35.5149L7.41529 43.6777ZM8.9636 44.3191L23.5531 29.7296L22.2704 28.4469L7.68094 43.0364L8.9636 44.3191Z" fill="#183153"/>
<path d="M7.41529 43.6777C7.41529 44.1786 7.82136 44.5847 8.32227 44.5847L16.4851 44.5847C16.986 44.5847 17.392 44.1786 17.392 43.6777C17.392 43.1768 16.986 42.7708 16.4851 42.7708L9.22924 42.7708L9.22924 35.5149C9.22924 35.014 8.82318 34.608 8.32227 34.608C7.82136 34.608 7.41529 35.014 7.41529 35.5149L7.41529 43.6777ZM8.9636 44.3191L23.5531 29.7296L22.2704 28.4469L7.68094 43.0364L8.9636 44.3191Z" fill="#183153"/>
<path d="M44.5837 8.32227C44.5837 7.82136 44.1777 7.41529 43.6768 7.41529L35.514 7.41529C35.0131 7.41529 34.607 7.82136 34.607 8.32226C34.607 8.82317 35.0131 9.22924 35.514 9.22924L42.7698 9.22924L42.7698 16.4851C42.7698 16.986 43.1758 17.392 43.6768 17.392C44.1777 17.392 44.5837 16.986 44.5837 16.4851L44.5837 8.32227ZM43.0354 7.68094L28.446 22.2704L29.7286 23.5531L44.3181 8.9636L43.0354 7.68094Z" fill="#183153"/>
<path d="M44.5837 8.32227C44.5837 7.82136 44.1777 7.41529 43.6768 7.41529L35.514 7.41529C35.0131 7.41529 34.607 7.82136 34.607 8.32226C34.607 8.82317 35.0131 9.22924 35.514 9.22924L42.7698 9.22924L42.7698 16.4851C42.7698 16.986 43.1758 17.392 43.6768 17.392C44.1777 17.392 44.5837 16.986 44.5837 16.4851L44.5837 8.32227ZM43.0354 7.68094L28.446 22.2704L29.7286 23.5531L44.3181 8.9636L43.0354 7.68094Z" fill="#183153"/>
<path d="M7.41529 43.6777C7.41529 44.1786 7.82136 44.5847 8.32227 44.5847L16.4851 44.5847C16.986 44.5847 17.392 44.1786 17.392 43.6777C17.392 43.1768 16.986 42.7708 16.4851 42.7708L9.22924 42.7708L9.22924 35.5149C9.22924 35.014 8.82318 34.608 8.32227 34.608C7.82136 34.608 7.41529 35.014 7.41529 35.5149L7.41529 43.6777ZM8.9636 44.3191L23.5531 29.7296L22.2704 28.4469L7.68094 43.0364L8.9636 44.3191Z" fill="#183153"/>
<path d="M7.41529 43.6777C7.41529 44.1786 7.82136 44.5847 8.32227 44.5847L16.4851 44.5847C16.986 44.5847 17.392 44.1786 17.392 43.6777C17.392 43.1768 16.986 42.7708 16.4851 42.7708L9.22924 42.7708L9.22924 35.5149C9.22924 35.014 8.82318 34.608 8.32227 34.608C7.82136 34.608 7.41529 35.014 7.41529 35.5149L7.41529 43.6777ZM8.9636 44.3191L23.5531 29.7296L22.2704 28.4469L7.68094 43.0364L8.9636 44.3191Z" fill="#183153"/>
<path d="M48.5274 13.7343C48.6571 13.2504 48.37 12.7531 47.8861 12.6234L40.0015 10.5108C39.5176 10.3811 39.0203 10.6682 38.8906 11.1521C38.761 11.6359 39.0481 12.1333 39.532 12.2629L46.5406 14.1408L44.6626 21.1494C44.533 21.6333 44.8201 22.1306 45.3039 22.2602C45.7878 22.3899 46.2851 22.1027 46.4148 21.6189L48.5274 13.7343ZM47.1979 12.714L29.3295 23.0303L30.2365 24.6013L48.1049 14.285L47.1979 12.714Z" fill="#183153"/>
<path d="M48.5274 13.7343C48.6571 13.2504 48.37 12.7531 47.8861 12.6234L40.0015 10.5108C39.5176 10.3811 39.0203 10.6682 38.8906 11.1521C38.761 11.6359 39.0481 12.1333 39.532 12.2629L46.5406 14.1408L44.6626 21.1494C44.533 21.6333 44.8201 22.1306 45.3039 22.2602C45.7878 22.3899 46.2851 22.1027 46.4148 21.6189L48.5274 13.7343ZM47.1979 12.714L29.3295 23.0303L30.2365 24.6013L48.1049 14.285L47.1979 12.714Z" fill="#183153"/>
<path d="M3.47354 38.2653C3.34389 38.7491 3.63103 39.2464 4.11487 39.3761L11.9995 41.4888C12.4834 41.6184 12.9807 41.3313 13.1103 40.8474C13.24 40.3636 12.9528 39.8663 12.469 39.7366L5.46042 37.8587L7.33837 30.8501C7.46801 30.3663 7.18088 29.8689 6.69704 29.7393C6.2132 29.6096 5.71587 29.8968 5.58622 30.3806L3.47354 38.2653ZM4.8031 39.2855L22.6715 28.9692L21.7645 27.3982L3.89612 37.7145L4.8031 39.2855Z" fill="#183153"/>
<path d="M3.47354 38.2653C3.34389 38.7491 3.63103 39.2464 4.11487 39.3761L11.9995 41.4888C12.4834 41.6184 12.9807 41.3313 13.1103 40.8474C13.24 40.3636 12.9528 39.8663 12.469 39.7366L5.46042 37.8587L7.33837 30.8501C7.46801 30.3663 7.18088 29.8689 6.69704 29.7393C6.2132 29.6096 5.71587 29.8968 5.58622 30.3806L3.47354 38.2653ZM4.8031 39.2855L22.6715 28.9692L21.7645 27.3982L3.89612 37.7145L4.8031 39.2855Z" fill="#183153"/>
<path d="M50.9319 19.9833C51.1824 19.5495 51.0338 18.9948 50.6 18.7443L43.5308 14.6629C43.097 14.4125 42.5423 14.5611 42.2918 14.9949C42.0414 15.4287 42.19 15.9834 42.6238 16.2339L48.9075 19.8618L45.2796 26.1455C45.0292 26.5793 45.1778 27.134 45.6116 27.3844C46.0454 27.6349 46.6001 27.4863 46.8506 27.0525L50.9319 19.9833ZM49.9117 18.6537L29.9822 23.9938L30.4517 25.746L50.3812 20.4059L49.9117 18.6537Z" fill="#183153"/>
<path d="M50.9319 19.9833C51.1824 19.5495 51.0338 18.9948 50.6 18.7443L43.5308 14.6629C43.097 14.4125 42.5423 14.5611 42.2918 14.9949C42.0414 15.4287 42.19 15.9834 42.6238 16.2339L48.9075 19.8618L45.2796 26.1455C45.0292 26.5793 45.1778 27.134 45.6116 27.3844C46.0454 27.6349 46.6001 27.4863 46.8506 27.0525L50.9319 19.9833ZM49.9117 18.6537L29.9822 23.9938L30.4517 25.746L50.3812 20.4059L49.9117 18.6537Z" fill="#183153"/>
<path d="M1.06707 32.0172C0.816619 32.451 0.96525 33.0057 1.39905 33.2562L8.46823 37.3376C8.90204 37.588 9.45673 37.4394 9.70719 37.0056C9.95764 36.5718 9.80901 36.0171 9.37521 35.7666L3.09149 32.1387L6.7194 25.855C6.96985 25.4212 6.82122 24.8665 6.38742 24.6161C5.95362 24.3656 5.39892 24.5142 5.14847 24.948L1.06707 32.0172ZM2.08728 33.3468L22.0169 28.0067L21.5474 26.2545L1.6178 31.5946L2.08728 33.3468Z" fill="#183153"/>
<path d="M1.06707 32.0172C0.816619 32.451 0.96525 33.0057 1.39905 33.2562L8.46823 37.3376C8.90204 37.588 9.45673 37.4394 9.70719 37.0056C9.95764 36.5718 9.80901 36.0171 9.37521 35.7666L3.09149 32.1387L6.7194 25.855C6.96985 25.4212 6.82122 24.8665 6.38742 24.6161C5.95362 24.3656 5.39892 24.5142 5.14847 24.948L1.06707 32.0172ZM2.08728 33.3468L22.0169 28.0067L21.5474 26.2545L1.6178 31.5946L2.08728 33.3468Z" fill="#183153"/>
<path d="M51.6423 26.6413C51.9965 26.2871 51.9965 25.7129 51.6423 25.3587L45.8703 19.5867C45.5161 19.2325 44.9419 19.2325 44.5877 19.5867C44.2335 19.9409 44.2335 20.5152 44.5877 20.8694L49.7183 26L44.5877 31.1306C44.2335 31.4848 44.2335 32.0591 44.5877 32.4133C44.9419 32.7675 45.5161 32.7675 45.8703 32.4133L51.6423 26.6413ZM51.001 25.093L30.3684 25.093L30.3684 26.907L51.001 26.907L51.001 25.093Z" fill="#183153"/>
<path d="M51.6423 26.6413C51.9965 26.2871 51.9965 25.7129 51.6423 25.3587L45.8703 19.5867C45.5161 19.2325 44.9419 19.2325 44.5877 19.5867C44.2335 19.9409 44.2335 20.5152 44.5877 20.8694L49.7183 26L44.5877 31.1306C44.2335 31.4848 44.2335 32.0591 44.5877 32.4133C44.9419 32.7675 45.5161 32.7675 45.8703 32.4133L51.6423 26.6413ZM51.001 25.093L30.3684 25.093L30.3684 26.907L51.001 26.907L51.001 25.093Z" fill="#183153"/>
<path d="M0.358671 25.3587C0.00447412 25.7129 0.00447409 26.2871 0.358671 26.6413L6.13063 32.4133C6.48483 32.7675 7.0591 32.7675 7.41329 32.4133C7.76749 32.0591 7.76749 31.4848 7.41329 31.1306L2.28266 26L7.41329 20.8694C7.76749 20.5152 7.76749 19.9409 7.41329 19.5867C7.0591 19.2325 6.48483 19.2325 6.13064 19.5867L0.358671 25.3587ZM1 26.907L21.6326 26.907L21.6326 25.093L1 25.093L1 26.907Z" fill="#183153"/>
<path d="M0.358671 25.3587C0.00447412 25.7129 0.00447409 26.2871 0.358671 26.6413L6.13063 32.4133C6.48483 32.7675 7.0591 32.7675 7.41329 32.4133C7.76749 32.0591 7.76749 31.4848 7.41329 31.1306L2.28266 26L7.41329 20.8694C7.76749 20.5152 7.76749 19.9409 7.41329 19.5867C7.0591 19.2325 6.48483 19.2325 6.13064 19.5867L0.358671 25.3587ZM1 26.907L21.6326 26.907L21.6326 25.093L1 25.093L1 26.907Z" fill="#183153"/>
<path d="M50.6 33.2562C51.0338 33.0057 51.1824 32.451 50.9319 32.0172L46.8506 24.948C46.6001 24.5142 46.0454 24.3656 45.6116 24.6161C45.1778 24.8665 45.0292 25.4212 45.2796 25.855L48.9075 32.1387L42.6238 35.7666C42.19 36.0171 42.0414 36.5718 42.2918 37.0056C42.5423 37.4394 43.097 37.588 43.5308 37.3376L50.6 33.2562ZM50.3812 31.5946L30.4517 26.2545L29.9822 28.0067L49.9117 33.3468L50.3812 31.5946Z" fill="#183153"/>
<path d="M50.6 33.2562C51.0338 33.0057 51.1824 32.451 50.9319 32.0172L46.8506 24.948C46.6001 24.5142 46.0454 24.3656 45.6116 24.6161C45.1778 24.8665 45.0292 25.4212 45.2796 25.855L48.9075 32.1387L42.6238 35.7666C42.19 36.0171 42.0414 36.5718 42.2918 37.0056C42.5423 37.4394 43.097 37.588 43.5308 37.3376L50.6 33.2562ZM50.3812 31.5946L30.4517 26.2545L29.9822 28.0067L49.9117 33.3468L50.3812 31.5946Z" fill="#183153"/>
<path d="M1.39807 18.7438C0.964274 18.9943 0.815643 19.549 1.0661 19.9828L5.14749 27.052C5.39795 27.4858 5.95265 27.6344 6.38645 27.3839C6.82025 27.1335 6.96888 26.5788 6.71842 26.145L3.09052 19.8613L9.37424 16.2334C9.80804 15.9829 9.95667 15.4282 9.70621 14.9944C9.45576 14.5606 8.90106 14.412 8.46726 14.6624L1.39807 18.7438ZM1.61682 20.4054L21.5464 25.7455L22.0159 23.9933L2.08631 18.6532L1.61682 20.4054Z" fill="#183153"/>
<path d="M1.39807 18.7438C0.964274 18.9943 0.815643 19.549 1.0661 19.9828L5.14749 27.052C5.39795 27.4858 5.95265 27.6344 6.38645 27.3839C6.82025 27.1335 6.96888 26.5788 6.71842 26.145L3.09052 19.8613L9.37424 16.2334C9.80804 15.9829 9.95667 15.4282 9.70621 14.9944C9.45576 14.5606 8.90106 14.412 8.46726 14.6624L1.39807 18.7438ZM1.61682 20.4054L21.5464 25.7455L22.0159 23.9933L2.08631 18.6532L1.61682 20.4054Z" fill="#183153"/>
<path d="M47.8861 39.3766C48.37 39.2469 48.6571 38.7496 48.5274 38.2657L46.4148 30.3811C46.2851 29.8973 45.7878 29.6101 45.3039 29.7398C44.8201 29.8694 44.533 30.3667 44.6626 30.8506L46.5406 37.8592L39.532 39.7371C39.0481 39.8667 38.761 40.3641 38.8906 40.8479C39.0203 41.3318 39.5176 41.6189 40.0015 41.4892L47.8861 39.3766ZM48.1049 37.715L30.2365 27.3987L29.3295 28.9696L47.1979 39.286L48.1049 37.715Z" fill="#183153"/>
<path d="M47.8861 39.3766C48.37 39.2469 48.6571 38.7496 48.5274 38.2657L46.4148 30.3811C46.2851 29.8973 45.7878 29.6101 45.3039 29.7398C44.8201 29.8694 44.533 30.3667 44.6626 30.8506L46.5406 37.8592L39.532 39.7371C39.0481 39.8667 38.761 40.3641 38.8906 40.8479C39.0203 41.3318 39.5176 41.6189 40.0015 41.4892L47.8861 39.3766ZM48.1049 37.715L30.2365 27.3987L29.3295 28.9696L47.1979 39.286L48.1049 37.715Z" fill="#183153"/>
<path d="M4.11487 12.6244C3.63103 12.7541 3.34389 13.2514 3.47354 13.7352L5.58622 21.6199C5.71587 22.1037 6.2132 22.3909 6.69704 22.2612C7.18088 22.1316 7.46801 21.6342 7.33837 21.1504L5.46042 14.1418L12.469 12.2639C12.9528 12.1342 13.24 11.6369 13.1103 11.1531C12.9807 10.6692 12.4834 10.3821 11.9995 10.5117L4.11487 12.6244ZM3.89612 14.286L21.7645 24.6023L22.6715 23.0313L4.8031 12.715L3.89612 14.286Z" fill="#183153"/>
<path d="M4.11487 12.6244C3.63103 12.7541 3.34389 13.2514 3.47354 13.7352L5.58622 21.6199C5.71587 22.1037 6.2132 22.3909 6.69704 22.2612C7.18088 22.1316 7.46801 21.6342 7.33837 21.1504L5.46042 14.1418L12.469 12.2639C12.9528 12.1342 13.24 11.6369 13.1103 11.1531C12.9807 10.6692 12.4834 10.3821 11.9995 10.5117L4.11487 12.6244ZM3.89612 14.286L21.7645 24.6023L22.6715 23.0313L4.8031 12.715L3.89612 14.286Z" fill="#183153"/>
<path d="M43.6777 44.5847C44.1786 44.5847 44.5847 44.1786 44.5847 43.6777L44.5847 35.5149C44.5847 35.014 44.1786 34.608 43.6777 34.608C43.1768 34.608 42.7708 35.014 42.7708 35.5149L42.7708 42.7708L35.5149 42.7708C35.014 42.7708 34.608 43.1768 34.608 43.6777C34.608 44.1786 35.014 44.5847 35.5149 44.5847L43.6777 44.5847ZM44.3191 43.0364L29.7296 28.4469L28.4469 29.7296L43.0364 44.3191L44.3191 43.0364Z" fill="#183153"/>
<path d="M43.6777 44.5847C44.1786 44.5847 44.5847 44.1786 44.5847 43.6777L44.5847 35.5149C44.5847 35.014 44.1786 34.608 43.6777 34.608C43.1768 34.608 42.7708 35.014 42.7708 35.5149L42.7708 42.7708L35.5149 42.7708C35.014 42.7708 34.608 43.1768 34.608 43.6777C34.608 44.1786 35.014 44.5847 35.5149 44.5847L43.6777 44.5847ZM44.3191 43.0364L29.7296 28.4469L28.4469 29.7296L43.0364 44.3191L44.3191 43.0364Z" fill="#183153"/>
<path d="M8.32227 7.41529C7.82136 7.41529 7.41529 7.82136 7.41529 8.32227L7.41529 16.4851C7.41529 16.986 7.82136 17.392 8.32227 17.392C8.82318 17.392 9.22924 16.986 9.22924 16.4851L9.22924 9.22924L16.4851 9.22924C16.986 9.22924 17.392 8.82318 17.392 8.32227C17.392 7.82136 16.986 7.41529 16.4851 7.41529L8.32227 7.41529ZM7.68094 8.9636L22.2704 23.5531L23.5531 22.2704L8.9636 7.68094L7.68094 8.9636Z" fill="#183153"/>
<path d="M8.32227 7.41529C7.82136 7.41529 7.41529 7.82136 7.41529 8.32227L7.41529 16.4851C7.41529 16.986 7.82136 17.392 8.32227 17.392C8.82318 17.392 9.22924 16.986 9.22924 16.4851L9.22924 9.22924L16.4851 9.22924C16.986 9.22924 17.392 8.82318 17.392 8.32227C17.392 7.82136 16.986 7.41529 16.4851 7.41529L8.32227 7.41529ZM7.68094 8.9636L22.2704 23.5531L23.5531 22.2704L8.9636 7.68094L7.68094 8.9636Z" fill="#183153"/>
<path d="M68.881 17.66C69.2276 17.66 69.521 17.7467 69.761 17.92C70.001 18.08 70.121 18.28 70.121 18.52C70.121 18.9467 69.9876 19.2933 69.721 19.56C69.4543 19.8133 69.0743 19.94 68.581 19.94C67.8076 19.94 67.221 19.9467 66.821 19.96C66.7943 20.12 66.6743 20.84 66.461 22.12C66.221 23.5467 66.0743 24.42 66.021 24.74L65.601 27.36C65.3076 29.32 65.0743 30.96 64.901 32.28C65.181 32.2667 65.561 32.26 66.041 32.26C66.7476 32.26 67.2276 32.3533 67.481 32.54C67.7343 32.7267 67.861 33.0067 67.861 33.38C67.861 33.7267 67.721 34.02 67.441 34.26C67.1743 34.5 66.7943 34.62 66.301 34.62C65.9676 34.62 65.441 34.6067 64.721 34.58C64.0543 34.5533 63.6143 34.54 63.401 34.54C62.561 34.54 61.641 34.6133 60.641 34.76C60.201 34.8267 59.8876 34.86 59.701 34.86C59.4076 34.86 59.161 34.78 58.961 34.62C58.761 34.46 58.661 34.2267 58.661 33.92C58.661 33.44 58.8743 33.0667 59.301 32.8C59.7276 32.5333 60.3276 32.3933 61.101 32.38L62.041 32.36L62.101 31.92C62.421 29.7867 62.6543 28.28 62.801 27.4L63.241 24.78C63.5076 23.2333 63.7476 21.64 63.961 20L62.281 20.02C61.801 20.02 61.4676 19.9467 61.281 19.8C61.1076 19.64 61.021 19.42 61.021 19.14C61.021 18.2333 61.6743 17.7467 62.981 17.68C63.5943 17.6533 64.341 17.64 65.221 17.64L68.881 17.66ZM73.6833 34.6C72.3767 34.6 71.3567 34.2333 70.6233 33.5C69.9033 32.7533 69.5433 31.7733 69.5433 30.56C69.5433 29.48 69.7567 28.5333 70.1833 27.72C70.61 26.9067 71.1633 26.28 71.8433 25.84C72.5233 25.4 73.2367 25.18 73.9833 25.18C74.7167 25.18 75.2833 25.4 75.6833 25.84C76.0967 26.2667 76.3033 26.82 76.3033 27.5C76.3033 28.06 76.1767 28.5333 75.9233 28.92C75.6833 29.3067 75.3633 29.5 74.9633 29.5C74.71 29.5 74.5033 29.44 74.3433 29.32C74.1967 29.2 74.1233 29.0333 74.1233 28.82C74.1233 28.7267 74.1367 28.62 74.1633 28.5C74.19 28.38 74.21 28.2933 74.2233 28.24C74.29 28.04 74.3233 27.8533 74.3233 27.68C74.3233 27.5067 74.2767 27.3733 74.1833 27.28C74.1033 27.1867 73.9833 27.14 73.8233 27.14C73.5167 27.14 73.23 27.28 72.9633 27.56C72.6967 27.8267 72.4833 28.1933 72.3233 28.66C72.1633 29.1267 72.0833 29.64 72.0833 30.2C72.0833 31.7467 72.7567 32.52 74.1033 32.52C74.65 32.52 75.2367 32.34 75.8633 31.98C76.5033 31.6067 77.13 31.0533 77.7433 30.32C77.9033 30.1333 78.0833 30.04 78.2833 30.04C78.4567 30.04 78.59 30.12 78.6833 30.28C78.79 30.44 78.8433 30.66 78.8433 30.94C78.8433 31.4467 78.7167 31.86 78.4633 32.18C77.8367 32.9533 77.0833 33.5533 76.2033 33.98C75.3367 34.3933 74.4967 34.6 73.6833 34.6ZM87.4266 28.36C87.5999 28.36 87.7333 28.4467 87.8266 28.62C87.9199 28.7933 87.9666 29.0133 87.9666 29.28C87.9666 29.92 87.7733 30.3 87.3866 30.42C86.5866 30.7 85.7066 30.86 84.7466 30.9C84.4933 32.02 83.9933 32.92 83.2466 33.6C82.4999 34.2667 81.6533 34.6 80.7066 34.6C79.9066 34.6 79.2199 34.4067 78.6466 34.02C78.0866 33.6333 77.6599 33.12 77.3666 32.48C77.0733 31.84 76.9266 31.1467 76.9266 30.4C76.9266 29.3867 77.1199 28.4867 77.5066 27.7C77.8933 26.9 78.4266 26.28 79.1066 25.84C79.7866 25.3867 80.5399 25.16 81.3666 25.16C82.3799 25.16 83.1933 25.5133 83.8066 26.22C84.4333 26.9133 84.7999 27.7733 84.9066 28.8C85.5333 28.76 86.2799 28.6267 87.1466 28.4C87.2533 28.3733 87.3466 28.36 87.4266 28.36ZM80.8666 32.48C81.2933 32.48 81.6599 32.3067 81.9666 31.96C82.2866 31.6133 82.4999 31.1133 82.6066 30.46C82.1933 30.18 81.8733 29.8133 81.6466 29.36C81.4333 28.9067 81.3266 28.4267 81.3266 27.92C81.3266 27.7067 81.3466 27.4933 81.3866 27.28H81.2866C80.7533 27.28 80.3066 27.54 79.9466 28.06C79.5999 28.5667 79.4266 29.2867 79.4266 30.22C79.4266 30.9533 79.5666 31.5133 79.8466 31.9C80.1399 32.2867 80.4799 32.48 80.8666 32.48ZM87.67 34.6C87.1634 34.6 86.8034 34.3333 86.59 33.8C86.39 33.2667 86.29 32.4133 86.29 31.24C86.29 29.5067 86.5367 27.86 87.03 26.3C87.15 25.9133 87.3434 25.6333 87.61 25.46C87.89 25.2733 88.2767 25.18 88.77 25.18C89.0367 25.18 89.2234 25.2133 89.33 25.28C89.4367 25.3467 89.49 25.4733 89.49 25.66C89.49 25.8733 89.39 26.3533 89.19 27.1C89.0567 27.6333 88.95 28.1 88.87 28.5C88.79 28.9 88.7234 29.3933 88.67 29.98C89.11 28.8333 89.6034 27.9 90.15 27.18C90.6967 26.46 91.23 25.9467 91.75 25.64C92.2834 25.3333 92.77 25.18 93.21 25.18C94.0767 25.18 94.51 25.6133 94.51 26.48C94.51 27 94.3634 27.94 94.07 29.3C93.8167 30.46 93.69 31.2267 93.69 31.6C93.69 32.1333 93.8834 32.4 94.27 32.4C94.5367 32.4 94.85 32.24 95.21 31.92C95.5834 31.5867 96.0767 31.0533 96.69 30.32C96.85 30.1333 97.03 30.04 97.23 30.04C97.4034 30.04 97.5367 30.12 97.63 30.28C97.7367 30.44 97.79 30.66 97.79 30.94C97.79 31.4733 97.6634 31.8867 97.41 32.18C96.8367 32.8867 96.2167 33.4667 95.55 33.92C94.8967 34.3733 94.15 34.6 93.31 34.6C92.63 34.6 92.1167 34.4067 91.77 34.02C91.4234 33.62 91.25 33.0467 91.25 32.3C91.25 31.9267 91.3434 31.26 91.53 30.3C91.7034 29.46 91.79 28.88 91.79 28.56C91.79 28.3467 91.7167 28.24 91.57 28.24C91.3967 28.24 91.15 28.4667 90.83 28.92C90.5234 29.36 90.2034 29.9467 89.87 30.68C89.55 31.4133 89.29 32.1867 89.09 33C88.9434 33.6267 88.77 34.0533 88.57 34.28C88.3834 34.4933 88.0834 34.6 87.67 34.6ZM104.272 34.6C102.685 34.6 101.305 34.3133 100.132 33.74C98.9586 33.1533 98.0586 32.3267 97.4319 31.26C96.8052 30.1933 96.4919 28.9533 96.4919 27.54C96.4919 25.58 96.8586 23.84 97.5919 22.32C98.3386 20.8 99.3452 19.6267 100.612 18.8C101.879 17.96 103.285 17.54 104.832 17.54C106.272 17.54 107.365 17.9133 108.112 18.66C108.859 19.3933 109.232 20.3667 109.232 21.58C109.232 22.3933 109.085 23.0467 108.792 23.54C108.512 24.0333 108.105 24.28 107.572 24.28C107.199 24.28 106.905 24.1933 106.692 24.02C106.479 23.8467 106.372 23.5933 106.372 23.26C106.372 23.14 106.399 22.92 106.452 22.6C106.532 22.2 106.572 21.88 106.572 21.64C106.572 20.4267 105.925 19.82 104.632 19.82C103.752 19.82 102.912 20.1067 102.112 20.68C101.312 21.2533 100.665 22.1 100.172 23.22C99.6786 24.3267 99.4319 25.6467 99.4319 27.18C99.4319 28.78 99.8786 30.02 100.772 30.9C101.665 31.7667 102.985 32.2 104.732 32.2C105.599 32.2 106.472 32.0933 107.352 31.88C108.245 31.6533 109.232 31.3133 110.312 30.86C110.512 30.78 110.679 30.74 110.812 30.74C111.025 30.74 111.185 30.82 111.292 30.98C111.399 31.14 111.452 31.3467 111.452 31.6C111.452 32.4133 111.012 33.0133 110.132 33.4C109.185 33.8133 108.199 34.12 107.172 34.32C106.159 34.5067 105.192 34.6 104.272 34.6ZM112.503 23.86C111.943 23.86 111.523 23.7333 111.243 23.48C110.963 23.2133 110.823 22.8467 110.823 22.38C110.823 21.9133 111.003 21.5267 111.363 21.22C111.736 20.9 112.196 20.74 112.743 20.74C113.236 20.74 113.636 20.86 113.943 21.1C114.25 21.34 114.403 21.68 114.403 22.12C114.403 22.6533 114.23 23.08 113.883 23.4C113.536 23.7067 113.076 23.86 112.503 23.86ZM112.343 34.6C111.476 34.6 110.843 34.2933 110.443 33.68C110.056 33.0667 109.863 32.2533 109.863 31.24C109.863 30.64 109.936 29.8733 110.083 28.94C110.243 27.9933 110.443 27.1133 110.683 26.3C110.803 25.8733 110.963 25.58 111.163 25.42C111.363 25.26 111.683 25.18 112.123 25.18C112.803 25.18 113.143 25.4067 113.143 25.86C113.143 26.1933 113.016 26.9667 112.763 28.18C112.443 29.6467 112.283 30.64 112.283 31.16C112.283 31.56 112.336 31.8667 112.443 32.08C112.55 32.2933 112.73 32.4 112.983 32.4C113.223 32.4 113.523 32.2333 113.883 31.9C114.243 31.5667 114.723 31.04 115.323 30.32C115.483 30.1333 115.663 30.04 115.863 30.04C116.036 30.04 116.17 30.12 116.263 30.28C116.37 30.44 116.423 30.66 116.423 30.94C116.423 31.4733 116.296 31.8867 116.043 32.18C114.723 33.7933 113.49 34.6 112.343 34.6ZM123.725 30.04C123.898 30.04 124.031 30.12 124.125 30.28C124.231 30.44 124.285 30.66 124.285 30.94C124.285 31.4733 124.158 31.8867 123.905 32.18C123.331 32.8867 122.705 33.4667 122.025 33.92C121.345 34.3733 120.565 34.6 119.685 34.6C116.965 34.6 115.605 32.6867 115.605 28.86C115.605 28.2733 115.625 27.68 115.665 27.08H114.885C114.485 27.08 114.211 27.0067 114.065 26.86C113.931 26.7133 113.865 26.48 113.865 26.16C113.865 25.4133 114.165 25.04 114.765 25.04H115.905C116.131 23.5733 116.478 22.2333 116.945 21.02C117.411 19.8067 117.971 18.84 118.625 18.12C119.291 17.4 120.005 17.04 120.765 17.04C121.325 17.04 121.765 17.2867 122.085 17.78C122.405 18.2733 122.565 18.8933 122.565 19.64C122.565 21.7067 121.698 23.5067 119.965 25.04H122.205C122.418 25.04 122.571 25.0867 122.665 25.18C122.758 25.2733 122.805 25.4467 122.805 25.7C122.805 26.62 122.051 27.08 120.545 27.08H118.105C118.078 27.7467 118.065 28.2667 118.065 28.64C118.065 30.0267 118.225 31 118.545 31.56C118.878 32.12 119.398 32.4 120.105 32.4C120.678 32.4 121.185 32.2267 121.625 31.88C122.065 31.5333 122.585 31.0133 123.185 30.32C123.345 30.1333 123.525 30.04 123.725 30.04ZM120.225 18.96C120.025 18.96 119.798 19.2133 119.545 19.72C119.305 20.2133 119.071 20.9067 118.845 21.8C118.631 22.68 118.451 23.66 118.305 24.74C119.091 24.06 119.678 23.3 120.065 22.46C120.465 21.6067 120.665 20.8333 120.665 20.14C120.665 19.3533 120.518 18.96 120.225 18.96ZM129.656 25.18C129.963 25.18 130.176 25.22 130.296 25.3C130.416 25.38 130.476 25.5133 130.476 25.7C130.476 26.02 130.303 27.16 129.956 29.12C129.65 31 129.47 32.1133 129.416 32.46C128.923 35.8867 128.243 38.6 127.376 40.6C126.51 42.6 125.356 43.6 123.916 43.6C123.236 43.6 122.683 43.3867 122.256 42.96C121.83 42.5467 121.616 42 121.616 41.32C121.616 40.6933 121.756 40.0533 122.036 39.4C122.33 38.7467 122.863 37.9933 123.636 37.14C124.423 36.3 125.53 35.3333 126.956 34.24L127.016 33.78C127.11 33.2867 127.216 32.58 127.336 31.66C127.07 32.62 126.696 33.3533 126.216 33.86C125.736 34.3533 125.23 34.6 124.696 34.6C124.096 34.6 123.603 34.3267 123.216 33.78C122.843 33.22 122.656 32.5267 122.656 31.7C122.656 30.7 122.723 29.7867 122.856 28.96C122.99 28.12 123.21 27.2333 123.516 26.3C123.65 25.9 123.836 25.6133 124.076 25.44C124.316 25.2667 124.696 25.18 125.216 25.18C125.51 25.18 125.71 25.2267 125.816 25.32C125.936 25.4133 125.996 25.5533 125.996 25.74C125.996 25.8467 125.923 26.2067 125.776 26.82C125.643 27.3133 125.536 27.76 125.456 28.16C125.35 28.7067 125.256 29.2333 125.176 29.74C125.096 30.2333 125.056 30.64 125.056 30.96C125.056 31.4667 125.196 31.72 125.476 31.72C125.676 31.72 125.923 31.52 126.216 31.12C126.523 30.72 126.843 30.1133 127.176 29.3C127.523 28.4867 127.856 27.4867 128.176 26.3C128.283 25.9 128.443 25.6133 128.656 25.44C128.883 25.2667 129.216 25.18 129.656 25.18ZM124.136 41.66C124.47 41.66 124.843 41.2733 125.256 40.5C125.67 39.7267 126.083 38.44 126.496 36.64C125.47 37.5067 124.723 38.2933 124.256 39C123.803 39.72 123.576 40.3467 123.576 40.88C123.576 41.1067 123.616 41.2933 123.696 41.44C123.79 41.5867 123.936 41.66 124.136 41.66Z" fill="#183153"/>
</svg>
