<svg width="36" height="43" viewBox="0 0 36 43" fill="none" xmlns="http://www.w3.org/2000/svg">
<path d="M18.0003 0.166992C22.6969 0.166992 27.2011 2.03269 30.522 5.35364C33.843 8.6746 35.7087 13.1788 35.7087 17.8753C35.7087 31.417 24.2503 42.8753 18.0003 42.8753C11.7503 42.8753 0.291992 31.417 0.291992 17.8753C0.291992 13.1788 2.15769 8.6746 5.47864 5.35364C8.7996 2.03269 13.3038 0.166992 18.0003 0.166992ZM18.0003 4.33366C14.4089 4.33366 10.9645 5.76037 8.42492 8.29992C5.88537 10.8395 4.45866 14.2839 4.45866 17.8753C4.45866 27.8628 13.1357 38.7087 18.0003 38.7087C22.8649 38.7087 31.542 27.8628 31.542 17.8753C31.542 14.2839 30.1153 10.8395 27.5757 8.29992C25.0362 5.76037 21.5918 4.33366 18.0003 4.33366ZM29.4587 18.917C29.792 18.917 30.1232 18.9337 30.4482 18.9691C30.5959 20.3595 30.4306 21.7654 29.9646 23.0837C29.4985 24.402 28.7435 25.5994 27.7548 26.5881C26.7661 27.5768 25.5687 28.3319 24.2504 28.7979C22.9321 29.264 21.5262 29.4292 20.1357 29.2816C19.997 27.9743 20.1347 26.6524 20.54 25.4018C20.9453 24.1512 21.6091 22.9998 22.4882 22.0224C23.3674 21.045 24.4423 20.2634 25.6432 19.7284C26.8441 19.1934 28.144 18.917 29.4587 18.917ZM6.54199 18.917C7.85664 18.917 9.15659 19.1934 10.3575 19.7284C11.5583 20.2634 12.6332 21.045 13.5124 22.0224C14.3916 22.9998 15.0554 24.1512 15.4607 25.4018C15.8659 26.6524 16.0037 27.9743 15.8649 29.2816C14.4745 29.4292 13.0686 29.264 11.7503 28.7979C10.432 28.3319 9.2346 27.5768 8.24587 26.5881C7.25715 25.5994 6.50211 24.402 6.03607 23.0837C5.57002 21.7654 5.40477 20.3595 5.55241 18.9691C5.87533 18.9337 6.20866 18.917 6.54199 18.917Z" fill="#183153"/>
</svg>
