<svg width="16" height="21" viewBox="0 0 16 21" fill="none" xmlns="http://www.w3.org/2000/svg">
<path d="M2 2V18.38L6.5945 14.7035C6.99344 14.3844 7.48912 14.2105 8 14.2105C8.51088 14.2105 9.00656 14.3844 9.4055 14.7035L14 18.3785V2H2ZM1.25 0.5H14.75C14.9489 0.5 15.1397 0.579018 15.2803 0.71967C15.421 0.860322 15.5 1.05109 15.5 1.25V19.94C15.4998 20.0811 15.4598 20.2193 15.3846 20.3387C15.3093 20.4581 15.2019 20.5539 15.0747 20.615C14.9475 20.6761 14.8056 20.7001 14.6654 20.6841C14.5252 20.6682 14.3923 20.6131 14.282 20.525L8.468 15.875C8.3351 15.7689 8.17007 15.7111 8 15.7111C7.82993 15.7111 7.6649 15.7689 7.532 15.875L1.718 20.525C1.60772 20.6131 1.47483 20.6682 1.3346 20.6841C1.19438 20.7001 1.0525 20.6761 0.925289 20.615C0.798074 20.5539 0.690679 20.4581 0.615448 20.3387C0.540217 20.2193 0.500201 20.0811 0.5 19.94V1.25C0.5 1.05109 0.579018 0.860322 0.71967 0.71967C0.860322 0.579018 1.05109 0.5 1.25 0.5Z" fill="#FAB005"/>
</svg>
