<svg width="18" height="22" viewBox="0 0 18 22" fill="none" xmlns="http://www.w3.org/2000/svg">
<path d="M4.91995 13.5111H13.08M2.17495 1.25109C1.91409 1.25762 1.66611 1.36585 1.48395 1.55268C1.30179 1.73952 1.19987 1.99015 1.19995 2.25109V19.8011C1.19987 20.062 1.30179 20.3127 1.48395 20.4995C1.66611 20.6863 1.91409 20.7946 2.17495 20.8011H15.825C16.0902 20.8011 16.3445 20.6957 16.5321 20.5082C16.7196 20.3207 16.825 20.0663 16.825 19.8011V6.24609H12.825C12.5641 6.23957 12.3161 6.13134 12.134 5.94451C11.9518 5.75767 11.8499 5.50704 11.85 5.24609V1.24609L2.17495 1.25109ZM11.805 1.25109L16.8 6.24609L11.805 1.25109ZM4.91995 10.4861H13.08H4.91995ZM4.91995 16.5361H13.08H4.91995Z" stroke="#FAB005" stroke-linecap="round" stroke-linejoin="round"/>
</svg>
