<svg width="16" height="8" viewBox="0 0 16 8" fill="none" xmlns="http://www.w3.org/2000/svg">
<path d="M2 8C1.46957 8 0.960859 7.78929 0.585786 7.41421C0.210714 7.03914 0 6.53043 0 6C0 5.46957 0.210714 4.96086 0.585786 4.58579C0.960859 4.21071 1.46957 4 2 4C2.53043 4 3.03914 4.21071 3.41421 4.58579C3.78929 4.96086 4 5.46957 4 6C4 6.53043 3.78929 7.03914 3.41421 7.41421C3.03914 7.78929 2.53043 8 2 8ZM8 6C7.46957 6 6.96086 5.78929 6.58579 5.41421C6.21071 5.03914 6 4.53043 6 4C6 3.46957 6.21071 2.96086 6.58579 2.58579C6.96086 2.21071 7.46957 2 8 2C8.53043 2 9.03914 2.21071 9.41421 2.58579C9.78929 2.96086 10 3.46957 10 4C10 4.53043 9.78929 5.03914 9.41421 5.41421C9.03914 5.78929 8.53043 6 8 6ZM14 4C13.4696 4 12.9609 3.78929 12.5858 3.41421C12.2107 3.03914 12 2.53043 12 2C12 1.46957 12.2107 0.96086 12.5858 0.585787C12.9609 0.210714 13.4696 0 14 0C14.5304 0 15.0391 0.210714 15.4142 0.585787C15.7893 0.96086 16 1.46957 16 2C16 2.53043 15.7893 3.03914 15.4142 3.41421C15.0391 3.78929 14.5304 4 14 4Z" fill="#FAB005"/>
</svg>
