<svg width="46" height="38" viewBox="0 0 46 38" fill="none" xmlns="http://www.w3.org/2000/svg">
<path d="M37.3775 14.8333C38.2005 16.2616 39.5546 17.3067 41.1448 17.741C42.735 18.1754 44.4323 17.9637 45.8671 17.1521C46.0358 18.6597 45.7301 20.1824 44.9926 21.508C44.2551 22.8337 43.1225 23.8963 41.7525 24.5479L41.7504 37.75H27.1671V33.5833C27.1674 32.5321 26.7704 31.5197 26.0557 30.7489C25.3409 29.9781 24.3612 29.5059 23.3129 29.4271L23.0004 29.4167C21.9492 29.4163 20.9368 29.8133 20.166 30.5281C19.3952 31.2429 18.923 32.2226 18.8442 33.2708L18.8338 33.5833V37.75H4.25044V24.55C2.87783 23.8994 1.74269 22.8363 1.00354 21.5092C0.264381 20.1822 -0.0418789 18.6574 0.127524 17.1479C1.56218 17.9612 3.26018 18.1742 4.85128 17.7406C6.44239 17.3071 7.79754 16.262 8.62127 14.8333H37.3775ZM35.3546 19H10.6442L10.4859 19.1646C9.58794 20.0396 8.53794 20.7479 7.39002 21.2521L7.19002 21.3333L8.41711 21.9167L8.41502 33.5833L14.6692 33.5812V33.4312L14.69 32.9667C15.0004 28.7667 18.3984 25.4687 22.7192 25.2625L23.1525 25.2521L23.6171 25.2729C25.6424 25.4231 27.543 26.3077 28.9621 27.7605C30.3811 29.2133 31.2208 31.1343 31.3234 33.1625L31.3317 33.5812L37.5838 33.5833L37.5859 21.9167L38.8088 21.3333L38.6109 21.25C37.4618 20.7469 36.413 20.0404 35.515 19.1646L35.3546 19ZM33.4921 0.25C33.6411 1.28354 34.0104 2.27302 34.5749 3.15149C35.1395 4.02996 35.8861 4.77693 36.7643 5.34187C37.6425 5.9068 38.6318 6.27652 39.6653 6.42601C40.6988 6.57549 41.7523 6.50126 42.7546 6.20833C42.5762 7.93453 41.788 9.54052 40.5317 10.7377C39.2754 11.9348 37.6332 12.6447 35.9004 12.7396L35.5004 12.75H10.5004C8.69622 12.7503 6.95595 12.0817 5.61607 10.8734C4.27619 9.66511 3.43185 8.00299 3.24627 6.20833C4.24857 6.50126 5.3021 6.57549 6.33557 6.42601C7.36905 6.27652 8.35836 5.9068 9.23657 5.34187C10.1148 4.77693 10.8614 4.02996 11.426 3.15149C11.9905 2.27302 12.3598 1.28354 12.5088 0.25H33.4921ZM30.5004 4.41667H15.4984C14.7478 5.88635 13.689 7.17682 12.3942 8.2L11.8775 8.58333H34.1213L34.0963 8.56667C32.7563 7.61934 31.6346 6.39609 30.8067 4.97917L30.5004 4.41667Z" fill="#183153"/>
</svg>
