<svg width="60" height="60" viewBox="0 0 60 60" fill="none" xmlns="http://www.w3.org/2000/svg">
<path d="M29.9999 59.1654C13.8912 59.1654 0.833252 46.1074 0.833252 29.9987C0.833252 13.8899 13.8912 0.832031 29.9999 0.832031C46.1087 0.832031 59.1666 13.8899 59.1666 29.9987C59.1666 46.1074 46.1087 59.1654 29.9999 59.1654ZM15.4545 48.2454C19.5832 51.5462 24.714 53.3404 29.9999 53.332C35.7458 53.332 41.0045 51.2554 45.0703 47.8137C43.1708 45.8646 40.8997 44.3163 38.3913 43.2602C35.8829 42.2042 33.1882 41.6618 30.4666 41.6654C27.645 41.6621 24.8535 42.2453 22.2692 43.3781C19.6849 44.5108 17.3643 46.1683 15.4545 48.2454ZM11.3799 44.057C13.8312 41.4556 16.7894 39.3837 20.072 37.9691C23.3546 36.5546 26.8922 35.8272 30.4666 35.832C33.9131 35.8275 37.3265 36.5039 40.5108 37.8223C43.6952 39.1407 46.5878 41.0751 49.0224 43.5145C51.5193 40.0003 52.9938 35.8631 53.2824 31.5618C53.571 27.2605 52.6623 22.9634 50.6572 19.1471C48.6521 15.3309 45.6289 12.1447 41.9232 9.94208C38.2174 7.73948 33.9738 6.60656 29.6633 6.66902C25.3529 6.73147 21.1439 7.98686 17.5035 10.2959C13.8631 12.6049 10.9335 15.8774 9.03985 19.7501C7.14616 23.6229 6.36236 27.9445 6.77542 32.2356C7.18849 36.5267 8.78226 40.6195 11.3799 44.0599V44.057ZM29.9999 32.9154C26.9057 32.9154 23.9383 31.6862 21.7503 29.4983C19.5624 27.3104 18.3333 24.3429 18.3333 21.2487C18.3333 18.1545 19.5624 15.187 21.7503 12.9991C23.9383 10.8112 26.9057 9.58203 29.9999 9.58203C33.0941 9.58203 36.0616 10.8112 38.2495 12.9991C40.4374 15.187 41.6666 18.1545 41.6666 21.2487C41.6666 24.3429 40.4374 27.3104 38.2495 29.4983C36.0616 31.6862 33.0941 32.9154 29.9999 32.9154ZM29.9999 27.082C31.547 27.082 33.0307 26.4674 34.1247 25.3735C35.2187 24.2795 35.8333 22.7958 35.8333 21.2487C35.8333 19.7016 35.2187 18.2179 34.1247 17.1239C33.0307 16.0299 31.547 15.4154 29.9999 15.4154C28.4528 15.4154 26.9691 16.0299 25.8751 17.1239C24.7812 18.2179 24.1666 19.7016 24.1666 21.2487C24.1666 22.7958 24.7812 24.2795 25.8751 25.3735C26.9691 26.4674 28.4528 27.082 29.9999 27.082Z" fill="#FAB005"/>
</svg>
