<svg width="70" height="70" viewBox="0 0 70 70" fill="none" xmlns="http://www.w3.org/2000/svg">
<circle cx="35" cy="35" r="34.5" stroke="#FAB005"/>
<path d="M35.2666 33.1166C35.1 33.1 34.9 33.1 34.7166 33.1166C30.75 32.9833 27.6 29.7333 27.6 25.7333C27.6 21.65 30.9 18.3333 35 18.3333C39.0833 18.3333 42.4 21.65 42.4 25.7333C42.3833 29.7333 39.2333 32.9833 35.2666 33.1166Z" stroke="#FAB005" stroke-width="1.5" stroke-linecap="round" stroke-linejoin="round"/>
<path d="M26.9333 39.2667C22.9 41.9667 22.9 46.3667 26.9333 49.05C31.5167 52.1167 39.0333 52.1167 43.6167 49.05C47.65 46.35 47.65 41.95 43.6167 39.2667C39.05 36.2167 31.5333 36.2167 26.9333 39.2667Z" stroke="#FAB005" stroke-width="1.5" stroke-linecap="round" stroke-linejoin="round"/>
</svg>
