<svg width="30" height="30" viewBox="0 0 30 30" fill="none" xmlns="http://www.w3.org/2000/svg">
<path d="M7.5 6V1.5C7.5 1.10218 7.65804 0.720644 7.93934 0.43934C8.22064 0.158035 8.60218 0 9 0H21C21.3978 0 21.7794 0.158035 22.0607 0.43934C22.342 0.720644 22.5 1.10218 22.5 1.5V6H30V9H27V28.5C27 28.8978 26.842 29.2794 26.5607 29.5607C26.2794 29.842 25.8978 30 25.5 30H4.5C4.10218 30 3.72064 29.842 3.43934 29.5607C3.15804 29.2794 3 28.8978 3 28.5V9H0V6H7.5ZM10.5 3V6H19.5V3H10.5Z" fill="#183153"/>
</svg>
