<svg width="125" height="55" viewBox="0 0 125 55" fill="none" xmlns="http://www.w3.org/2000/svg">
<path d="M67.2058 16.9445C67.5208 16.9445 67.7874 17.0233 68.0055 17.1808C68.2236 17.3262 68.3326 17.5079 68.3326 17.726C68.3326 18.1137 68.2115 18.4288 67.9692 18.6711C67.7268 18.9013 67.3815 19.0164 66.9332 19.0164C66.2304 19.0164 65.6973 19.0225 65.3338 19.0346C65.3096 19.18 65.2005 19.8343 65.0067 20.9974C64.7886 22.2939 64.6553 23.0875 64.6068 23.3783L64.2252 25.7592C63.9586 27.5403 63.7466 29.0306 63.5891 30.2302C63.8435 30.2181 64.1888 30.212 64.625 30.212C65.2672 30.212 65.7034 30.2968 65.9336 30.4664C66.1638 30.6361 66.2789 30.8905 66.2789 31.2298C66.2789 31.5448 66.1517 31.8114 65.8972 32.0295C65.6549 32.2476 65.3096 32.3566 64.8613 32.3566C64.5584 32.3566 64.0798 32.3445 63.4255 32.3203C62.8197 32.296 62.4198 32.2839 62.226 32.2839C61.4626 32.2839 60.6266 32.3505 59.7179 32.4838C59.318 32.5444 59.0333 32.5747 58.8637 32.5747C58.5971 32.5747 58.3729 32.502 58.1912 32.3566C58.0094 32.2112 57.9186 31.9992 57.9186 31.7205C57.9186 31.2843 58.1124 30.945 58.5002 30.7027C58.8879 30.4604 59.4331 30.3332 60.1359 30.321L60.9901 30.3029L61.0446 29.903C61.3354 27.9644 61.5474 26.5952 61.6807 25.7956L62.0806 23.4147C62.3229 22.0092 62.541 20.5613 62.7349 19.0709L61.2082 19.0891C60.772 19.0891 60.4691 19.0225 60.2995 18.8892C60.1419 18.7438 60.0632 18.5439 60.0632 18.2894C60.0632 17.4655 60.6569 17.0233 61.8443 16.9627C62.4017 16.9384 63.0802 16.9263 63.8799 16.9263L67.2058 16.9445ZM71.5699 32.3384C70.3825 32.3384 69.4555 32.0052 68.7891 31.3388C68.1349 30.6603 67.8077 29.7697 67.8077 28.6672C67.8077 27.6857 68.0016 26.8255 68.3893 26.0863C68.777 25.3472 69.2799 24.7778 69.8978 24.3779C70.5157 23.9781 71.164 23.7782 71.8425 23.7782C72.5089 23.7782 73.0238 23.9781 73.3873 24.3779C73.7629 24.7657 73.9507 25.2685 73.9507 25.8864C73.9507 26.3953 73.8356 26.8255 73.6054 27.1768C73.3873 27.5282 73.0965 27.7039 72.733 27.7039C72.5028 27.7039 72.315 27.6494 72.1696 27.5403C72.0364 27.4313 71.9697 27.2798 71.9697 27.086C71.9697 27.0011 71.9818 26.9042 72.0061 26.7952C72.0303 26.6861 72.0485 26.6074 72.0606 26.5589C72.1212 26.3771 72.1515 26.2075 72.1515 26.05C72.1515 25.8925 72.109 25.7713 72.0242 25.6865C71.9515 25.6017 71.8425 25.5593 71.6971 25.5593C71.4184 25.5593 71.1579 25.6865 70.9156 25.941C70.6733 26.1833 70.4794 26.5165 70.334 26.9406C70.1886 27.3646 70.1159 27.8311 70.1159 28.34C70.1159 29.7455 70.7278 30.4483 71.9515 30.4483C72.4483 30.4483 72.9814 30.2847 73.5509 29.9576C74.1325 29.6183 74.702 29.1155 75.2593 28.4491C75.4047 28.2794 75.5683 28.1946 75.75 28.1946C75.9076 28.1946 76.0287 28.2673 76.1135 28.4127C76.2105 28.5581 76.2589 28.758 76.2589 29.0125C76.2589 29.4729 76.1438 29.8485 75.9136 30.1393C75.3441 30.8421 74.6596 31.3873 73.8599 31.775C73.0723 32.1506 72.309 32.3384 71.5699 32.3384ZM84.0588 26.6679C84.2164 26.6679 84.3375 26.7467 84.4223 26.9042C84.5071 27.0617 84.5496 27.2616 84.5496 27.504C84.5496 28.0856 84.3739 28.4309 84.0225 28.5399C83.2955 28.7944 82.4958 28.9398 81.6234 28.9761C81.3932 29.9939 80.9389 30.8118 80.2603 31.4297C79.5818 32.0355 78.8124 32.3384 77.9522 32.3384C77.2252 32.3384 76.6012 32.1627 76.0802 31.8114C75.5713 31.46 75.1835 30.9935 74.917 30.4119C74.6504 29.8303 74.5171 29.2003 74.5171 28.5218C74.5171 27.6009 74.6928 26.783 75.0442 26.0682C75.3956 25.3412 75.8802 24.7778 76.4982 24.3779C77.1161 23.966 77.8007 23.76 78.5519 23.76C79.4728 23.76 80.2119 24.0811 80.7692 24.7232C81.3387 25.3533 81.6719 26.1348 81.7688 27.0678C82.3383 27.0314 83.0168 26.9103 83.8044 26.7043C83.9013 26.6801 83.9861 26.6679 84.0588 26.6679ZM78.0976 30.4119C78.4853 30.4119 78.8185 30.2544 79.0972 29.9394C79.388 29.6243 79.5818 29.17 79.6787 28.5763C79.3031 28.3218 79.0123 27.9886 78.8064 27.5767C78.6125 27.1647 78.5156 26.7285 78.5156 26.2681C78.5156 26.0742 78.5337 25.8804 78.5701 25.6865H78.4792C77.9946 25.6865 77.5887 25.9228 77.2615 26.3953C76.9465 26.8557 76.789 27.51 76.789 28.3582C76.789 29.0246 76.9162 29.5335 77.1706 29.8849C77.4372 30.2362 77.7462 30.4119 78.0976 30.4119ZM84.2801 32.3384C83.8196 32.3384 83.4925 32.0961 83.2986 31.6114C83.1169 31.1268 83.026 30.3513 83.026 29.2851C83.026 27.71 83.2502 26.2136 83.6985 24.7959C83.8075 24.4446 83.9832 24.1901 84.2255 24.0326C84.48 23.863 84.8314 23.7782 85.2797 23.7782C85.522 23.7782 85.6916 23.8085 85.7886 23.869C85.8855 23.9296 85.934 24.0447 85.934 24.2144C85.934 24.4082 85.8431 24.8444 85.6613 25.5229C85.5402 26.0076 85.4432 26.4317 85.3705 26.7952C85.2978 27.1587 85.2373 27.607 85.1888 28.1401C85.5886 27.0981 86.0369 26.2499 86.5337 25.5956C87.0305 24.9413 87.5151 24.4749 87.9877 24.1962C88.4723 23.9175 88.9146 23.7782 89.3144 23.7782C89.7022 23.7782 89.993 23.8812 90.1868 24.0871C90.3928 24.281 90.4958 24.5718 90.4958 24.9595C90.4958 25.2745 90.4292 25.8683 90.2959 26.7406C90.1747 27.4797 90.0778 28.1825 90.0051 28.8489C89.9324 29.5032 89.896 30.2362 89.896 31.048C89.896 31.5085 89.7991 31.8417 89.6052 32.0476C89.4235 32.2415 89.1206 32.3384 88.6965 32.3384C88.2967 32.3384 88.0059 32.2354 87.8241 32.0295C87.6424 31.8235 87.5515 31.5145 87.5515 31.1026C87.5515 30.6179 87.6363 29.8182 87.8059 28.7035C87.9513 27.7342 88.024 27.1162 88.024 26.8497C88.024 26.6558 87.9574 26.5589 87.8241 26.5589C87.6666 26.5589 87.4425 26.7649 87.1517 27.1768C86.873 27.5767 86.5822 28.1098 86.2793 28.7762C85.9885 29.4426 85.7522 30.1454 85.5705 30.8845C85.4372 31.4539 85.2797 31.8417 85.0979 32.0476C84.9283 32.2415 84.6557 32.3384 84.2801 32.3384Z" fill="#F5F5F5"/>
<path d="M99.4021 34.042C97.9602 34.042 96.7062 33.7815 95.6399 33.2605C94.5737 32.7274 93.7558 31.9762 93.1863 31.0069C92.6169 30.0376 92.3321 28.9107 92.3321 27.6264C92.3321 25.8453 92.6653 24.2641 93.3317 22.8828C94.0103 21.5015 94.925 20.4353 96.0761 19.6841C97.2272 18.9207 98.5054 18.5391 99.911 18.5391C101.22 18.5391 102.213 18.8783 102.892 19.5568C103.57 20.2232 103.909 21.1077 103.909 22.2103C103.909 22.9494 103.776 23.5432 103.51 23.9915C103.255 24.4398 102.886 24.6639 102.401 24.6639C102.062 24.6639 101.795 24.5852 101.601 24.4277C101.407 24.2701 101.31 24.0399 101.31 23.737C101.31 23.628 101.335 23.428 101.383 23.1372C101.456 22.7738 101.492 22.483 101.492 22.2649C101.492 21.1623 100.905 20.611 99.7292 20.611C98.9295 20.611 98.1662 20.8715 97.4392 21.3925C96.7122 21.9135 96.1246 22.6829 95.6763 23.7007C95.228 24.7063 95.0038 25.9059 95.0038 27.2992C95.0038 28.7532 95.4097 29.88 96.2215 30.6797C97.0333 31.4673 98.2328 31.8611 99.8201 31.8611C100.608 31.8611 101.401 31.7642 102.201 31.5703C103.013 31.3643 103.909 31.0553 104.891 30.6434C105.073 30.5707 105.224 30.5343 105.345 30.5343C105.539 30.5343 105.684 30.607 105.781 30.7524C105.878 30.8978 105.927 31.0856 105.927 31.3158C105.927 32.0549 105.527 32.6002 104.727 32.9516C103.867 33.3272 102.97 33.6059 102.037 33.7876C101.117 33.9572 100.238 34.042 99.4021 34.042ZM106.882 24.2823C106.373 24.2823 105.991 24.1671 105.737 23.9369C105.482 23.6946 105.355 23.3614 105.355 22.9373C105.355 22.5133 105.519 22.1619 105.846 21.8832C106.185 21.5924 106.603 21.447 107.1 21.447C107.548 21.447 107.912 21.5561 108.19 21.7742C108.469 21.9922 108.608 22.3012 108.608 22.7011C108.608 23.1857 108.451 23.5734 108.136 23.8642C107.821 24.1429 107.403 24.2823 106.882 24.2823ZM106.736 34.042C105.949 34.042 105.373 33.7634 105.01 33.206C104.658 32.6487 104.483 31.9096 104.483 30.9887C104.483 30.4435 104.549 29.7468 104.683 28.8986C104.828 28.0383 105.01 27.2387 105.228 26.4996C105.337 26.1118 105.482 25.8453 105.664 25.6999C105.846 25.5545 106.137 25.4818 106.536 25.4818C107.154 25.4818 107.463 25.6878 107.463 26.0997C107.463 26.4026 107.348 27.1054 107.118 28.208C106.827 29.5408 106.682 30.4435 106.682 30.916C106.682 31.2795 106.73 31.5582 106.827 31.752C106.924 31.9459 107.088 32.0428 107.318 32.0428C107.536 32.0428 107.809 31.8914 108.136 31.5885C108.463 31.2856 108.899 30.807 109.444 30.1527C109.59 29.983 109.753 29.8982 109.935 29.8982C110.093 29.8982 110.214 29.9709 110.299 30.1163C110.396 30.2617 110.444 30.4616 110.444 30.7161C110.444 31.2007 110.329 31.5763 110.099 31.8429C108.899 33.309 107.778 34.042 106.736 34.042ZM117.079 29.8982C117.237 29.8982 117.358 29.9709 117.443 30.1163C117.54 30.2617 117.588 30.4616 117.588 30.7161C117.588 31.2007 117.473 31.5763 117.243 31.8429C116.722 32.4851 116.153 33.0121 115.535 33.4241C114.917 33.8361 114.208 34.042 113.408 34.042C110.936 34.042 109.701 32.3033 109.701 28.8259C109.701 28.2928 109.719 27.7536 109.755 27.2084H109.046C108.683 27.2084 108.434 27.1417 108.301 27.0085C108.18 26.8752 108.119 26.6631 108.119 26.3723C108.119 25.6938 108.392 25.3546 108.937 25.3546H109.973C110.179 24.0218 110.494 22.804 110.918 21.7015C111.342 20.5989 111.851 19.7204 112.445 19.0661C113.051 18.4118 113.699 18.0847 114.39 18.0847C114.899 18.0847 115.298 18.3088 115.589 18.7572C115.88 19.2055 116.025 19.7689 116.025 20.4474C116.025 22.3254 115.238 23.9612 113.663 25.3546H115.698C115.892 25.3546 116.031 25.397 116.116 25.4818C116.201 25.5666 116.243 25.7241 116.243 25.9543C116.243 26.7904 115.559 27.2084 114.19 27.2084H111.972C111.948 27.8142 111.936 28.2867 111.936 28.626C111.936 29.8861 112.081 30.7706 112.372 31.2795C112.675 31.7884 113.148 32.0428 113.79 32.0428C114.311 32.0428 114.771 31.8853 115.171 31.5703C115.571 31.2553 116.044 30.7827 116.589 30.1527C116.734 29.983 116.898 29.8982 117.079 29.8982ZM113.899 19.8295C113.717 19.8295 113.511 20.0597 113.281 20.5201C113.063 20.9684 112.851 21.5985 112.645 22.4103C112.451 23.2099 112.287 24.1005 112.154 25.0819C112.869 24.464 113.402 23.7734 113.754 23.01C114.117 22.2346 114.299 21.5318 114.299 20.9018C114.299 20.1869 114.165 19.8295 113.899 19.8295ZM122.47 25.4818C122.748 25.4818 122.942 25.5181 123.051 25.5908C123.16 25.6635 123.215 25.7847 123.215 25.9543C123.215 26.2451 123.057 27.2811 122.742 29.0622C122.464 30.7706 122.3 31.7823 122.252 32.0974C121.803 35.2113 121.185 37.677 120.398 39.4944C119.61 41.3119 118.562 42.2206 117.254 42.2206C116.636 42.2206 116.133 42.0268 115.745 41.6391C115.357 41.2634 115.163 40.7667 115.163 40.1487C115.163 39.5793 115.291 38.9977 115.545 38.404C115.812 37.8103 116.296 37.1257 116.999 36.3502C117.714 35.5869 118.72 34.7084 120.016 33.7149L120.071 33.2969C120.155 32.8486 120.252 32.2064 120.361 31.3704C120.119 32.2428 119.78 32.9092 119.344 33.3696C118.907 33.8179 118.447 34.042 117.962 34.042C117.417 34.042 116.969 33.7937 116.617 33.2969C116.278 32.788 116.109 32.1579 116.109 31.4067C116.109 30.498 116.169 29.668 116.29 28.9168C116.411 28.1535 116.611 27.3477 116.89 26.4996C117.011 26.1361 117.181 25.8756 117.399 25.7181C117.617 25.5605 117.962 25.4818 118.435 25.4818C118.701 25.4818 118.883 25.5242 118.98 25.609C119.089 25.6938 119.144 25.821 119.144 25.9907C119.144 26.0876 119.077 26.4147 118.944 26.9721C118.823 27.4204 118.726 27.8263 118.653 28.1898C118.556 28.6866 118.471 29.1652 118.399 29.6256C118.326 30.0739 118.29 30.4435 118.29 30.7343C118.29 31.1947 118.417 31.4249 118.671 31.4249C118.853 31.4249 119.077 31.2431 119.344 30.8797C119.622 30.5162 119.913 29.9649 120.216 29.2258C120.531 28.4867 120.834 27.5779 121.125 26.4996C121.222 26.1361 121.367 25.8756 121.561 25.7181C121.767 25.5605 122.07 25.4818 122.47 25.4818ZM117.453 40.4577C117.756 40.4577 118.096 40.1063 118.471 39.4036C118.847 38.7008 119.222 37.5316 119.598 35.8959C118.665 36.6834 117.987 37.3983 117.563 38.0405C117.151 38.6948 116.945 39.2642 116.945 39.7489C116.945 39.9549 116.981 40.1245 117.054 40.2578C117.138 40.3911 117.272 40.4577 117.453 40.4577Z" fill="#F5F5F5"/>
<path d="M28.3618 1.19679C27.9182 0.753183 27.199 0.753183 26.7554 1.19679L19.5265 8.42571C19.0829 8.86931 19.0829 9.58854 19.5265 10.0321C19.9701 10.4757 20.6893 10.4757 21.1329 10.0321L27.5586 3.60643L33.9843 10.0321C34.4279 10.4757 35.1471 10.4757 35.5907 10.0321C36.0343 9.58854 36.0343 8.86932 35.5907 8.42571L28.3618 1.19679ZM26.4227 2L26.4227 23.0931L28.6945 23.0931L28.6945 2L26.4227 2Z" fill="#F5F5F5"/>
<path d="M28.3618 1.19679C27.9182 0.753183 27.199 0.753183 26.7554 1.19679L19.5265 8.42571C19.0829 8.86931 19.0829 9.58854 19.5265 10.0321C19.9701 10.4757 20.6893 10.4757 21.1329 10.0321L27.5586 3.60643L33.9843 10.0321C34.4279 10.4757 35.1471 10.4757 35.5907 10.0321C36.0343 9.58854 36.0343 8.86932 35.5907 8.42571L28.3618 1.19679ZM26.4227 2L26.4227 23.0931L28.6945 23.0931L28.6945 2L26.4227 2Z" fill="#F5F5F5"/>
<path d="M26.7554 53.9194C27.199 54.363 27.9182 54.363 28.3618 53.9194L35.5907 46.6905C36.0343 46.2469 36.0343 45.5277 35.5907 45.0841C35.1471 44.6405 34.4279 44.6405 33.9843 45.0841L27.5586 51.5098L21.1329 45.0841C20.6893 44.6405 19.9701 44.6405 19.5265 45.0841C19.0829 45.5277 19.0829 46.2469 19.5265 46.6905L26.7554 53.9194ZM28.6945 53.1162L28.6945 32.0231L26.4227 32.0231L26.4227 53.1162L28.6945 53.1162Z" fill="#F5F5F5"/>
<path d="M26.7554 53.9194C27.199 54.363 27.9182 54.363 28.3618 53.9194L35.5907 46.6905C36.0343 46.2469 36.0343 45.5277 35.5907 45.0841C35.1471 44.6405 34.4279 44.6405 33.9843 45.0841L27.5586 51.5098L21.1329 45.0841C20.6893 44.6405 19.9701 44.6405 19.5265 45.0841C19.0829 45.5277 19.0829 46.2469 19.5265 46.6905L26.7554 53.9194ZM28.6945 53.1162L28.6945 32.0231L26.4227 32.0231L26.4227 53.1162L28.6945 53.1162Z" fill="#F5F5F5"/>
<path d="M28.3618 1.19679C27.9182 0.753183 27.199 0.753183 26.7554 1.19679L19.5265 8.42571C19.0829 8.86931 19.0829 9.58854 19.5265 10.0321C19.9701 10.4757 20.6893 10.4757 21.1329 10.0321L27.5586 3.60643L33.9843 10.0321C34.4279 10.4757 35.1471 10.4757 35.5907 10.0321C36.0343 9.58854 36.0343 8.86932 35.5907 8.42571L28.3618 1.19679ZM26.4227 2L26.4227 23.0931L28.6945 23.0931L28.6945 2L26.4227 2Z" fill="#F5F5F5"/>
<path d="M28.3618 1.19679C27.9182 0.753183 27.199 0.753183 26.7554 1.19679L19.5265 8.42571C19.0829 8.86931 19.0829 9.58854 19.5265 10.0321C19.9701 10.4757 20.6893 10.4757 21.1329 10.0321L27.5586 3.60643L33.9843 10.0321C34.4279 10.4757 35.1471 10.4757 35.5907 10.0321C36.0343 9.58854 36.0343 8.86932 35.5907 8.42571L28.3618 1.19679ZM26.4227 2L26.4227 23.0931L28.6945 23.0931L28.6945 2L26.4227 2Z" fill="#F5F5F5"/>
<path d="M26.7554 53.9194C27.199 54.363 27.9182 54.363 28.3618 53.9194L35.5907 46.6905C36.0343 46.2469 36.0343 45.5277 35.5907 45.0841C35.1471 44.6405 34.4279 44.6405 33.9843 45.0841L27.5586 51.5098L21.1329 45.0841C20.6893 44.6405 19.9701 44.6405 19.5265 45.0841C19.0829 45.5277 19.0829 46.2469 19.5265 46.6905L26.7554 53.9194ZM28.6945 53.1162L28.6945 32.0231L26.4227 32.0231L26.4227 53.1162L28.6945 53.1162Z" fill="#F5F5F5"/>
<path d="M26.7554 53.9194C27.199 54.363 27.9182 54.363 28.3618 53.9194L35.5907 46.6905C36.0343 46.2469 36.0343 45.5277 35.5907 45.0841C35.1471 44.6405 34.4279 44.6405 33.9843 45.0841L27.5586 51.5098L21.1329 45.0841C20.6893 44.6405 19.9701 44.6405 19.5265 45.0841C19.0829 45.5277 19.0829 46.2469 19.5265 46.6905L26.7554 53.9194ZM28.6945 53.1162L28.6945 32.0231L26.4227 32.0231L26.4227 53.1162L28.6945 53.1162Z" fill="#F5F5F5"/>
<path d="M28.3618 1.19679C27.9182 0.753183 27.199 0.753183 26.7554 1.19679L19.5265 8.42571C19.0829 8.86931 19.0829 9.58854 19.5265 10.0321C19.9701 10.4757 20.6893 10.4757 21.1329 10.0321L27.5586 3.60643L33.9843 10.0321C34.4279 10.4757 35.1471 10.4757 35.5907 10.0321C36.0343 9.58854 36.0343 8.86932 35.5907 8.42571L28.3618 1.19679ZM26.4227 2L26.4227 23.0931L28.6945 23.0931L28.6945 2L26.4227 2Z" fill="#F5F5F5"/>
<path d="M28.3618 1.19679C27.9182 0.753183 27.199 0.753183 26.7554 1.19679L19.5265 8.42571C19.0829 8.86931 19.0829 9.58854 19.5265 10.0321C19.9701 10.4757 20.6893 10.4757 21.1329 10.0321L27.5586 3.60643L33.9843 10.0321C34.4279 10.4757 35.1471 10.4757 35.5907 10.0321C36.0343 9.58854 36.0343 8.86932 35.5907 8.42571L28.3618 1.19679ZM26.4227 2L26.4227 23.0931L28.6945 23.0931L28.6945 2L26.4227 2Z" fill="#F5F5F5"/>
<path d="M26.7554 53.9194C27.199 54.363 27.9182 54.363 28.3618 53.9194L35.5907 46.6905C36.0343 46.2469 36.0343 45.5277 35.5907 45.0841C35.1471 44.6405 34.4279 44.6405 33.9843 45.0841L27.5586 51.5098L21.1329 45.0841C20.6893 44.6405 19.9701 44.6405 19.5265 45.0841C19.0829 45.5277 19.0829 46.2469 19.5265 46.6905L26.7554 53.9194ZM28.6945 53.1162L28.6945 32.0231L26.4227 32.0231L26.4227 53.1162L28.6945 53.1162Z" fill="#F5F5F5"/>
<path d="M26.7554 53.9194C27.199 54.363 27.9182 54.363 28.3618 53.9194L35.5907 46.6905C36.0343 46.2469 36.0343 45.5277 35.5907 45.0841C35.1471 44.6405 34.4279 44.6405 33.9843 45.0841L27.5586 51.5098L21.1329 45.0841C20.6893 44.6405 19.9701 44.6405 19.5265 45.0841C19.0829 45.5277 19.0829 46.2469 19.5265 46.6905L26.7554 53.9194ZM28.6945 53.1162L28.6945 32.0231L26.4227 32.0231L26.4227 53.1162L28.6945 53.1162Z" fill="#F5F5F5"/>
<path d="M28.3618 1.19679C27.9182 0.753183 27.199 0.753183 26.7554 1.19679L19.5265 8.42571C19.0829 8.86931 19.0829 9.58854 19.5265 10.0321C19.9701 10.4757 20.6893 10.4757 21.1329 10.0321L27.5586 3.60643L33.9843 10.0321C34.4279 10.4757 35.1471 10.4757 35.5907 10.0321C36.0343 9.58854 36.0343 8.86932 35.5907 8.42571L28.3618 1.19679ZM26.4227 2L26.4227 23.0931L28.6945 23.0931L28.6945 2L26.4227 2Z" fill="#F5F5F5"/>
<path d="M28.3618 1.19679C27.9182 0.753183 27.199 0.753183 26.7554 1.19679L19.5265 8.42571C19.0829 8.86931 19.0829 9.58854 19.5265 10.0321C19.9701 10.4757 20.6893 10.4757 21.1329 10.0321L27.5586 3.60643L33.9843 10.0321C34.4279 10.4757 35.1471 10.4757 35.5907 10.0321C36.0343 9.58854 36.0343 8.86932 35.5907 8.42571L28.3618 1.19679ZM26.4227 2L26.4227 23.0931L28.6945 23.0931L28.6945 2L26.4227 2Z" fill="#F5F5F5"/>
<path d="M26.7554 53.9194C27.199 54.363 27.9182 54.363 28.3618 53.9194L35.5907 46.6905C36.0343 46.2469 36.0343 45.5277 35.5907 45.0841C35.1471 44.6405 34.4279 44.6405 33.9843 45.0841L27.5586 51.5098L21.1329 45.0841C20.6893 44.6405 19.9701 44.6405 19.5265 45.0841C19.0829 45.5277 19.0829 46.2469 19.5265 46.6905L26.7554 53.9194ZM28.6945 53.1162L28.6945 32.0231L26.4227 32.0231L26.4227 53.1162L28.6945 53.1162Z" fill="#F5F5F5"/>
<path d="M26.7554 53.9194C27.199 54.363 27.9182 54.363 28.3618 53.9194L35.5907 46.6905C36.0343 46.2469 36.0343 45.5277 35.5907 45.0841C35.1471 44.6405 34.4279 44.6405 33.9843 45.0841L27.5586 51.5098L21.1329 45.0841C20.6893 44.6405 19.9701 44.6405 19.5265 45.0841C19.0829 45.5277 19.0829 46.2469 19.5265 46.6905L26.7554 53.9194ZM28.6945 53.1162L28.6945 32.0231L26.4227 32.0231L26.4227 53.1162L28.6945 53.1162Z" fill="#F5F5F5"/>
<path d="M21.3407 1.92805C20.7953 1.61799 20.1019 1.80874 19.7918 2.35411L14.739 11.2414C14.429 11.7868 14.6197 12.4803 15.1651 12.7903C15.7105 13.1004 16.4039 12.9096 16.714 12.3643L21.2054 4.46443L29.1052 8.95578C29.6506 9.26584 30.344 9.07509 30.6541 8.52972C30.9641 7.98435 30.7734 7.29088 30.228 6.98082L21.3407 1.92805ZM19.6841 3.2168L25.2784 23.5545L27.4689 22.952L21.8745 2.61426L19.6841 3.2168Z" fill="#F5F5F5"/>
<path d="M21.3407 1.92805C20.7953 1.61799 20.1019 1.80874 19.7918 2.35411L14.739 11.2414C14.429 11.7868 14.6197 12.4803 15.1651 12.7903C15.7105 13.1004 16.4039 12.9096 16.714 12.3643L21.2054 4.46443L29.1052 8.95578C29.6506 9.26584 30.344 9.07509 30.6541 8.52972C30.9641 7.98435 30.7734 7.29088 30.228 6.98082L21.3407 1.92805ZM19.6841 3.2168L25.2784 23.5545L27.4689 22.952L21.8745 2.61426L19.6841 3.2168Z" fill="#F5F5F5"/>
<path d="M33.7755 53.1887C34.3209 53.4987 35.0143 53.308 35.3244 52.7626L40.3772 43.8753C40.6872 43.3299 40.4965 42.6364 39.9511 42.3264C39.4057 42.0163 38.7123 42.2071 38.4022 42.7524L33.9109 50.6523L26.011 46.1609C25.4657 45.8509 24.7722 46.0416 24.4621 46.587C24.1521 47.1324 24.3428 47.8258 24.8882 48.1359L33.7755 53.1887ZM35.4322 51.8999L29.8378 31.5622L27.6473 32.1647L33.2417 52.5024L35.4322 51.8999Z" fill="#F5F5F5"/>
<path d="M33.7755 53.1887C34.3209 53.4987 35.0143 53.308 35.3244 52.7626L40.3772 43.8753C40.6872 43.3299 40.4965 42.6364 39.9511 42.3264C39.4057 42.0163 38.7123 42.2071 38.4022 42.7524L33.9109 50.6523L26.011 46.1609C25.4657 45.8509 24.7722 46.0416 24.4621 46.587C24.1521 47.1324 24.3428 47.8258 24.8882 48.1359L33.7755 53.1887ZM35.4322 51.8999L29.8378 31.5622L27.6473 32.1647L33.2417 52.5024L35.4322 51.8999Z" fill="#F5F5F5"/>
<path d="M15.0733 4.32711C14.4673 4.16474 13.8445 4.52435 13.6821 5.13032L11.0361 15.0052C10.8737 15.6112 11.2334 16.2341 11.8393 16.3964C12.4453 16.5588 13.0682 16.1992 13.2305 15.5932L15.5825 6.81552L24.3602 9.1675C24.9662 9.32987 25.589 8.97026 25.7514 8.36428C25.9138 7.75831 25.5542 7.13545 24.9482 6.97308L15.0733 4.32711ZM13.7956 5.99227L24.3421 24.2595L26.3096 23.1236L15.763 4.85636L13.7956 5.99227Z" fill="#F5F5F5"/>
<path d="M15.0733 4.32711C14.4673 4.16474 13.8445 4.52435 13.6821 5.13032L11.0361 15.0052C10.8737 15.6112 11.2334 16.2341 11.8393 16.3964C12.4453 16.5588 13.0682 16.1992 13.2305 15.5932L15.5825 6.81552L24.3602 9.1675C24.9662 9.32987 25.589 8.97026 25.7514 8.36428C25.9138 7.75831 25.5542 7.13545 24.9482 6.97308L15.0733 4.32711ZM13.7956 5.99227L24.3421 24.2595L26.3096 23.1236L15.763 4.85636L13.7956 5.99227Z" fill="#F5F5F5"/>
<path d="M40.0439 50.7896C40.6499 50.952 41.2727 50.5924 41.4351 49.9864L44.0811 40.1115C44.2434 39.5055 43.8838 38.8826 43.2779 38.7203C42.6719 38.5579 42.049 38.9175 41.8867 39.5235L39.5347 48.3012L30.757 45.9492C30.151 45.7868 29.5282 46.1464 29.3658 46.7524C29.2034 47.3584 29.563 47.9813 30.169 48.1436L40.0439 50.7896ZM41.3216 49.1244L30.7751 30.8572L28.8076 31.9931L39.3542 50.2603L41.3216 49.1244Z" fill="#F5F5F5"/>
<path d="M40.0439 50.7896C40.6499 50.952 41.2727 50.5924 41.4351 49.9864L44.0811 40.1115C44.2434 39.5055 43.8838 38.8826 43.2779 38.7203C42.6719 38.5579 42.049 38.9175 41.8867 39.5235L39.5347 48.3012L30.757 45.9492C30.151 45.7868 29.5282 46.1464 29.3658 46.7524C29.2034 47.3584 29.563 47.9813 30.169 48.1436L40.0439 50.7896ZM41.3216 49.1244L30.7751 30.8572L28.8076 31.9931L39.3542 50.2603L41.3216 49.1244Z" fill="#F5F5F5"/>
<path d="M35.1566 2.30314C34.8429 1.75984 34.1482 1.57369 33.6049 1.88736L24.7513 6.99898C24.208 7.31266 24.0219 8.00737 24.3355 8.55067C24.6492 9.09397 25.3439 9.28012 25.8872 8.96645L33.7571 4.42278L38.3007 12.2926C38.6144 12.8359 39.3091 13.0221 39.8524 12.7084C40.3957 12.3947 40.5819 11.7 40.2682 11.1567L35.1566 2.30314ZM33.0756 2.5771L27.6163 22.9515L29.8108 23.5395L35.2701 3.16509L33.0756 2.5771Z" fill="#F5F5F5"/>
<path d="M35.1566 2.30314C34.8429 1.75984 34.1482 1.57369 33.6049 1.88736L24.7513 6.99898C24.208 7.31266 24.0219 8.00737 24.3355 8.55067C24.6492 9.09397 25.3439 9.28012 25.8872 8.96645L33.7571 4.42278L38.3007 12.2926C38.6144 12.8359 39.3091 13.0221 39.8524 12.7084C40.3957 12.3947 40.5819 11.7 40.2682 11.1567L35.1566 2.30314ZM33.0756 2.5771L27.6163 22.9515L29.8108 23.5395L35.2701 3.16509L33.0756 2.5771Z" fill="#F5F5F5"/>
<path d="M19.9596 52.8136C20.2733 53.3569 20.968 53.543 21.5113 53.2293L30.3649 48.1177C30.9082 47.804 31.0944 47.1093 30.7807 46.566C30.467 46.0227 29.7723 45.8366 29.229 46.1503L21.3591 50.6939L16.8155 42.8241C16.5018 42.2808 15.8071 42.0946 15.2638 42.4083C14.7205 42.722 14.5343 43.4167 14.848 43.96L19.9596 52.8136ZM22.0406 52.5396L27.4999 32.1652L25.3055 31.5772L19.8461 51.9516L22.0406 52.5396Z" fill="#F5F5F5"/>
<path d="M19.9596 52.8136C20.2733 53.3569 20.968 53.543 21.5113 53.2293L30.3649 48.1177C30.9082 47.804 31.0944 47.1093 30.7807 46.566C30.467 46.0227 29.7723 45.8366 29.229 46.1503L21.3591 50.6939L16.8155 42.8241C16.5018 42.2808 15.8071 42.0946 15.2638 42.4083C14.7205 42.722 14.5343 43.4167 14.848 43.96L19.9596 52.8136ZM22.0406 52.5396L27.4999 32.1652L25.3055 31.5772L19.8461 51.9516L22.0406 52.5396Z" fill="#F5F5F5"/>
<path d="M35.1566 2.30314C34.8429 1.75984 34.1482 1.57369 33.6049 1.88736L24.7513 6.99898C24.208 7.31266 24.0219 8.00737 24.3355 8.55067C24.6492 9.09397 25.3439 9.28012 25.8872 8.96645L33.7571 4.42278L38.3007 12.2926C38.6144 12.8359 39.3091 13.0221 39.8524 12.7084C40.3957 12.3947 40.5819 11.7 40.2682 11.1567L35.1566 2.30314ZM33.0756 2.5771L27.6163 22.9515L29.8108 23.5395L35.2701 3.16509L33.0756 2.5771Z" fill="#F5F5F5"/>
<path d="M35.1566 2.30314C34.8429 1.75984 34.1482 1.57369 33.6049 1.88736L24.7513 6.99898C24.208 7.31266 24.0219 8.00737 24.3355 8.55067C24.6492 9.09397 25.3439 9.28012 25.8872 8.96645L33.7571 4.42278L38.3007 12.2926C38.6144 12.8359 39.3091 13.0221 39.8524 12.7084C40.3957 12.3947 40.5819 11.7 40.2682 11.1567L35.1566 2.30314ZM33.0756 2.5771L27.6163 22.9515L29.8108 23.5395L35.2701 3.16509L33.0756 2.5771Z" fill="#F5F5F5"/>
<path d="M19.9596 52.8136C20.2733 53.3569 20.968 53.543 21.5113 53.2293L30.3649 48.1177C30.9082 47.804 31.0944 47.1093 30.7807 46.566C30.467 46.0227 29.7723 45.8366 29.229 46.1503L21.3591 50.6939L16.8155 42.8241C16.5018 42.2808 15.8071 42.0946 15.2638 42.4083C14.7205 42.722 14.5343 43.4167 14.848 43.96L19.9596 52.8136ZM22.0406 52.5396L27.4999 32.1652L25.3055 31.5772L19.8461 51.9516L22.0406 52.5396Z" fill="#F5F5F5"/>
<path d="M19.9596 52.8136C20.2733 53.3569 20.968 53.543 21.5113 53.2293L30.3649 48.1177C30.9082 47.804 31.0944 47.1093 30.7807 46.566C30.467 46.0227 29.7723 45.8366 29.229 46.1503L21.3591 50.6939L16.8155 42.8241C16.5018 42.2808 15.8071 42.0946 15.2638 42.4083C14.7205 42.722 14.5343 43.4167 14.848 43.96L19.9596 52.8136ZM22.0406 52.5396L27.4999 32.1652L25.3055 31.5772L19.8461 51.9516L22.0406 52.5396Z" fill="#F5F5F5"/>
<path d="M35.1566 2.30314C34.8429 1.75984 34.1482 1.57369 33.6049 1.88736L24.7513 6.99898C24.208 7.31266 24.0219 8.00737 24.3355 8.55067C24.6492 9.09397 25.3439 9.28012 25.8872 8.96645L33.7571 4.42278L38.3007 12.2926C38.6144 12.8359 39.3091 13.0221 39.8524 12.7084C40.3957 12.3947 40.5819 11.7 40.2682 11.1567L35.1566 2.30314ZM33.0756 2.5771L27.6163 22.9515L29.8108 23.5395L35.2701 3.16509L33.0756 2.5771Z" fill="#F5F5F5"/>
<path d="M35.1566 2.30314C34.8429 1.75984 34.1482 1.57369 33.6049 1.88736L24.7513 6.99898C24.208 7.31266 24.0219 8.00737 24.3355 8.55067C24.6492 9.09397 25.3439 9.28012 25.8872 8.96645L33.7571 4.42278L38.3007 12.2926C38.6144 12.8359 39.3091 13.0221 39.8524 12.7084C40.3957 12.3947 40.5819 11.7 40.2682 11.1567L35.1566 2.30314ZM33.0756 2.5771L27.6163 22.9515L29.8108 23.5395L35.2701 3.16509L33.0756 2.5771Z" fill="#F5F5F5"/>
<path d="M19.9596 52.8136C20.2733 53.3569 20.968 53.543 21.5113 53.2293L30.3649 48.1177C30.9082 47.804 31.0944 47.1093 30.7807 46.566C30.467 46.0227 29.7723 45.8366 29.229 46.1503L21.3591 50.6939L16.8155 42.8241C16.5018 42.2808 15.8071 42.0946 15.2638 42.4083C14.7205 42.722 14.5343 43.4167 14.848 43.96L19.9596 52.8136ZM22.0406 52.5396L27.4999 32.1652L25.3055 31.5772L19.8461 51.9516L22.0406 52.5396Z" fill="#F5F5F5"/>
<path d="M19.9596 52.8136C20.2733 53.3569 20.968 53.543 21.5113 53.2293L30.3649 48.1177C30.9082 47.804 31.0944 47.1093 30.7807 46.566C30.467 46.0227 29.7723 45.8366 29.229 46.1503L21.3591 50.6939L16.8155 42.8241C16.5018 42.2808 15.8071 42.0946 15.2638 42.4083C14.7205 42.722 14.5343 43.4167 14.848 43.96L19.9596 52.8136ZM22.0406 52.5396L27.4999 32.1652L25.3055 31.5772L19.8461 51.9516L22.0406 52.5396Z" fill="#F5F5F5"/>
<path d="M35.1566 2.30314C34.8429 1.75984 34.1482 1.57369 33.6049 1.88736L24.7513 6.99898C24.208 7.31266 24.0219 8.00737 24.3355 8.55067C24.6492 9.09397 25.3439 9.28012 25.8872 8.96645L33.7571 4.42278L38.3007 12.2926C38.6144 12.8359 39.3091 13.0221 39.8524 12.7084C40.3957 12.3947 40.5819 11.7 40.2682 11.1567L35.1566 2.30314ZM33.0756 2.5771L27.6163 22.9515L29.8108 23.5395L35.2701 3.16509L33.0756 2.5771Z" fill="#F5F5F5"/>
<path d="M35.1566 2.30314C34.8429 1.75984 34.1482 1.57369 33.6049 1.88736L24.7513 6.99898C24.208 7.31266 24.0219 8.00737 24.3355 8.55067C24.6492 9.09397 25.3439 9.28012 25.8872 8.96645L33.7571 4.42278L38.3007 12.2926C38.6144 12.8359 39.3091 13.0221 39.8524 12.7084C40.3957 12.3947 40.5819 11.7 40.2682 11.1567L35.1566 2.30314ZM33.0756 2.5771L27.6163 22.9515L29.8108 23.5395L35.2701 3.16509L33.0756 2.5771Z" fill="#F5F5F5"/>
<path d="M19.9596 52.8136C20.2733 53.3569 20.968 53.543 21.5113 53.2293L30.3649 48.1177C30.9082 47.804 31.0944 47.1093 30.7807 46.566C30.467 46.0227 29.7723 45.8366 29.229 46.1503L21.3591 50.6939L16.8155 42.8241C16.5018 42.2808 15.8071 42.0946 15.2638 42.4083C14.7205 42.722 14.5343 43.4167 14.848 43.96L19.9596 52.8136ZM22.0406 52.5396L27.4999 32.1652L25.3055 31.5772L19.8461 51.9516L22.0406 52.5396Z" fill="#F5F5F5"/>
<path d="M19.9596 52.8136C20.2733 53.3569 20.968 53.543 21.5113 53.2293L30.3649 48.1177C30.9082 47.804 31.0944 47.1093 30.7807 46.566C30.467 46.0227 29.7723 45.8366 29.229 46.1503L21.3591 50.6939L16.8155 42.8241C16.5018 42.2808 15.8071 42.0946 15.2638 42.4083C14.7205 42.722 14.5343 43.4167 14.848 43.96L19.9596 52.8136ZM22.0406 52.5396L27.4999 32.1652L25.3055 31.5772L19.8461 51.9516L22.0406 52.5396Z" fill="#F5F5F5"/>
<path d="M41.9514 5.45863C41.8032 4.84905 41.1888 4.47506 40.5792 4.6233L30.6455 7.03905C30.0359 7.18729 29.6619 7.80163 29.8102 8.41122C29.9584 9.0208 30.5728 9.39479 31.1823 9.24655L40.0123 7.09921L42.1597 15.9292C42.3079 16.5388 42.9222 16.9128 43.5318 16.7645C44.1414 16.6163 44.5154 16.0019 44.3672 15.3924L41.9514 5.45863ZM39.8774 5.13638L28.9091 23.1535L30.8496 24.3349L41.8179 6.31772L39.8774 5.13638Z" fill="#F5F5F5"/>
<path d="M41.9514 5.45863C41.8032 4.84905 41.1888 4.47506 40.5792 4.6233L30.6455 7.03905C30.0359 7.18729 29.6619 7.80163 29.8102 8.41122C29.9584 9.0208 30.5728 9.39479 31.1823 9.24655L40.0123 7.09921L42.1597 15.9292C42.3079 16.5388 42.9222 16.9128 43.5318 16.7645C44.1414 16.6163 44.5154 16.0019 44.3672 15.3924L41.9514 5.45863ZM39.8774 5.13638L28.9091 23.1535L30.8496 24.3349L41.8179 6.31772L39.8774 5.13638Z" fill="#F5F5F5"/>
<path d="M13.1638 49.6576C13.3121 50.2672 13.9264 50.6411 14.536 50.4929L24.4697 48.0772C25.0793 47.9289 25.4533 47.3146 25.3051 46.705C25.1568 46.0954 24.5425 45.7214 23.9329 45.8697L15.1029 48.017L12.9556 39.187C12.8073 38.5774 12.193 38.2034 11.5834 38.3517C10.9738 38.4999 10.5998 39.1143 10.7481 39.7239L13.1638 49.6576ZM15.2378 49.9798L26.2061 31.9627L24.2656 30.7813L13.2973 48.7985L15.2378 49.9798Z" fill="#F5F5F5"/>
<path d="M13.1638 49.6576C13.3121 50.2672 13.9264 50.6411 14.536 50.4929L24.4697 48.0772C25.0793 47.9289 25.4533 47.3146 25.3051 46.705C25.1568 46.0954 24.5425 45.7214 23.9329 45.8697L15.1029 48.017L12.9556 39.187C12.8073 38.5774 12.193 38.2034 11.5834 38.3517C10.9738 38.4999 10.5998 39.1143 10.7481 39.7239L13.1638 49.6576ZM15.2378 49.9798L26.2061 31.9627L24.2656 30.7813L13.2973 48.7985L15.2378 49.9798Z" fill="#F5F5F5"/>
<path d="M41.9514 5.45863C41.8032 4.84905 41.1888 4.47506 40.5792 4.6233L30.6455 7.03905C30.0359 7.18729 29.6619 7.80163 29.8102 8.41122C29.9584 9.0208 30.5728 9.39479 31.1823 9.24655L40.0123 7.09921L42.1597 15.9292C42.3079 16.5388 42.9222 16.9128 43.5318 16.7645C44.1414 16.6163 44.5154 16.0019 44.3672 15.3924L41.9514 5.45863ZM39.8774 5.13638L28.9091 23.1535L30.8496 24.3349L41.8179 6.31772L39.8774 5.13638Z" fill="#F5F5F5"/>
<path d="M41.9514 5.45863C41.8032 4.84905 41.1888 4.47506 40.5792 4.6233L30.6455 7.03905C30.0359 7.18729 29.6619 7.80163 29.8102 8.41122C29.9584 9.0208 30.5728 9.39479 31.1823 9.24655L40.0123 7.09921L42.1597 15.9292C42.3079 16.5388 42.9222 16.9128 43.5318 16.7645C44.1414 16.6163 44.5154 16.0019 44.3672 15.3924L41.9514 5.45863ZM39.8774 5.13638L28.9091 23.1535L30.8496 24.3349L41.8179 6.31772L39.8774 5.13638Z" fill="#F5F5F5"/>
<path d="M13.1638 49.6576C13.3121 50.2672 13.9264 50.6411 14.536 50.4929L24.4697 48.0772C25.0793 47.9289 25.4533 47.3146 25.3051 46.705C25.1568 46.0954 24.5425 45.7214 23.9329 45.8697L15.1029 48.017L12.9556 39.187C12.8073 38.5774 12.193 38.2034 11.5834 38.3517C10.9738 38.4999 10.5998 39.1143 10.7481 39.7239L13.1638 49.6576ZM15.2378 49.9798L26.2061 31.9627L24.2656 30.7813L13.2973 48.7985L15.2378 49.9798Z" fill="#F5F5F5"/>
<path d="M13.1638 49.6576C13.3121 50.2672 13.9264 50.6411 14.536 50.4929L24.4697 48.0772C25.0793 47.9289 25.4533 47.3146 25.3051 46.705C25.1568 46.0954 24.5425 45.7214 23.9329 45.8697L15.1029 48.017L12.9556 39.187C12.8073 38.5774 12.193 38.2034 11.5834 38.3517C10.9738 38.4999 10.5998 39.1143 10.7481 39.7239L13.1638 49.6576ZM15.2378 49.9798L26.2061 31.9627L24.2656 30.7813L13.2973 48.7985L15.2378 49.9798Z" fill="#F5F5F5"/>
<path d="M41.9514 5.45863C41.8032 4.84905 41.1888 4.47506 40.5792 4.6233L30.6455 7.03905C30.0359 7.18729 29.6619 7.80163 29.8102 8.41122C29.9584 9.0208 30.5728 9.39479 31.1823 9.24655L40.0123 7.09921L42.1597 15.9292C42.3079 16.5388 42.9222 16.9128 43.5318 16.7645C44.1414 16.6163 44.5154 16.0019 44.3672 15.3924L41.9514 5.45863ZM39.8774 5.13638L28.9091 23.1535L30.8496 24.3349L41.8179 6.31772L39.8774 5.13638Z" fill="#F5F5F5"/>
<path d="M41.9514 5.45863C41.8032 4.84905 41.1888 4.47506 40.5792 4.6233L30.6455 7.03905C30.0359 7.18729 29.6619 7.80163 29.8102 8.41122C29.9584 9.0208 30.5728 9.39479 31.1823 9.24655L40.0123 7.09921L42.1597 15.9292C42.3079 16.5388 42.9222 16.9128 43.5318 16.7645C44.1414 16.6163 44.5154 16.0019 44.3672 15.3924L41.9514 5.45863ZM39.8774 5.13638L28.9091 23.1535L30.8496 24.3349L41.8179 6.31772L39.8774 5.13638Z" fill="#F5F5F5"/>
<path d="M13.1638 49.6576C13.3121 50.2672 13.9264 50.6411 14.536 50.4929L24.4697 48.0772C25.0793 47.9289 25.4533 47.3146 25.3051 46.705C25.1568 46.0954 24.5425 45.7214 23.9329 45.8697L15.1029 48.017L12.9556 39.187C12.8073 38.5774 12.193 38.2034 11.5834 38.3517C10.9738 38.4999 10.5998 39.1143 10.7481 39.7239L13.1638 49.6576ZM15.2378 49.9798L26.2061 31.9627L24.2656 30.7813L13.2973 48.7985L15.2378 49.9798Z" fill="#F5F5F5"/>
<path d="M13.1638 49.6576C13.3121 50.2672 13.9264 50.6411 14.536 50.4929L24.4697 48.0772C25.0793 47.9289 25.4533 47.3146 25.3051 46.705C25.1568 46.0954 24.5425 45.7214 23.9329 45.8697L15.1029 48.017L12.9556 39.187C12.8073 38.5774 12.193 38.2034 11.5834 38.3517C10.9738 38.4999 10.5998 39.1143 10.7481 39.7239L13.1638 49.6576ZM15.2378 49.9798L26.2061 31.9627L24.2656 30.7813L13.2973 48.7985L15.2378 49.9798Z" fill="#F5F5F5"/>
<path d="M41.9514 5.45863C41.8032 4.84905 41.1888 4.47506 40.5792 4.6233L30.6455 7.03905C30.0359 7.18729 29.6619 7.80163 29.8102 8.41122C29.9584 9.0208 30.5728 9.39479 31.1823 9.24655L40.0123 7.09921L42.1597 15.9292C42.3079 16.5388 42.9222 16.9128 43.5318 16.7645C44.1414 16.6163 44.5154 16.0019 44.3672 15.3924L41.9514 5.45863ZM39.8774 5.13638L28.9091 23.1535L30.8496 24.3349L41.8179 6.31772L39.8774 5.13638Z" fill="#F5F5F5"/>
<path d="M41.9514 5.45863C41.8032 4.84905 41.1888 4.47506 40.5792 4.6233L30.6455 7.03905C30.0359 7.18729 29.6619 7.80163 29.8102 8.41122C29.9584 9.0208 30.5728 9.39479 31.1823 9.24655L40.0123 7.09921L42.1597 15.9292C42.3079 16.5388 42.9222 16.9128 43.5318 16.7645C44.1414 16.6163 44.5154 16.0019 44.3672 15.3924L41.9514 5.45863ZM39.8774 5.13638L28.9091 23.1535L30.8496 24.3349L41.8179 6.31772L39.8774 5.13638Z" fill="#F5F5F5"/>
<path d="M13.1638 49.6576C13.3121 50.2672 13.9264 50.6411 14.536 50.4929L24.4697 48.0772C25.0793 47.9289 25.4533 47.3146 25.3051 46.705C25.1568 46.0954 24.5425 45.7214 23.9329 45.8697L15.1029 48.017L12.9556 39.187C12.8073 38.5774 12.193 38.2034 11.5834 38.3517C10.9738 38.4999 10.5998 39.1143 10.7481 39.7239L13.1638 49.6576ZM15.2378 49.9798L26.2061 31.9627L24.2656 30.7813L13.2973 48.7985L15.2378 49.9798Z" fill="#F5F5F5"/>
<path d="M13.1638 49.6576C13.3121 50.2672 13.9264 50.6411 14.536 50.4929L24.4697 48.0772C25.0793 47.9289 25.4533 47.3146 25.3051 46.705C25.1568 46.0954 24.5425 45.7214 23.9329 45.8697L15.1029 48.017L12.9556 39.187C12.8073 38.5774 12.193 38.2034 11.5834 38.3517C10.9738 38.4999 10.5998 39.1143 10.7481 39.7239L13.1638 49.6576ZM15.2378 49.9798L26.2061 31.9627L24.2656 30.7813L13.2973 48.7985L15.2378 49.9798Z" fill="#F5F5F5"/>
<path d="M46.7668 9.48584C46.7668 8.85849 46.2582 8.34992 45.6309 8.34992L35.4076 8.34992C34.7803 8.34992 34.2717 8.85849 34.2717 9.48584C34.2717 10.1132 34.7803 10.6218 35.4076 10.6218L44.4949 10.6218L44.4949 19.7091C44.4949 20.3364 45.0035 20.845 45.6309 20.845C46.2582 20.845 46.7668 20.3364 46.7668 19.7091L46.7668 9.48584ZM44.8276 8.68263L29.9125 23.5977L31.519 25.2042L46.4341 10.2891L44.8276 8.68263Z" fill="#F5F5F5"/>
<path d="M46.7668 9.48584C46.7668 8.85849 46.2582 8.34992 45.6309 8.34992L35.4076 8.34992C34.7803 8.34992 34.2717 8.85849 34.2717 9.48584C34.2717 10.1132 34.7803 10.6218 35.4076 10.6218L44.4949 10.6218L44.4949 19.7091C44.4949 20.3364 45.0035 20.845 45.6309 20.845C46.2582 20.845 46.7668 20.3364 46.7668 19.7091L46.7668 9.48584ZM44.8276 8.68263L29.9125 23.5977L31.519 25.2042L46.4341 10.2891L44.8276 8.68263Z" fill="#F5F5F5"/>
<path d="M8.35041 45.6304C8.35041 46.2577 8.85898 46.7663 9.48633 46.7663L19.7096 46.7663C20.3369 46.7663 20.8455 46.2577 20.8455 45.6304C20.8455 45.003 20.3369 44.4945 19.7096 44.4945L10.6222 44.4945L10.6222 35.4071C10.6222 34.7798 10.1137 34.2712 9.48633 34.2712C8.85898 34.2712 8.35041 34.7798 8.35041 35.4071L8.35041 45.6304ZM10.2895 46.4336L25.2046 31.5185L23.5982 29.9121L8.68311 44.8272L10.2895 46.4336Z" fill="#F5F5F5"/>
<path d="M8.35041 45.6304C8.35041 46.2577 8.85898 46.7663 9.48633 46.7663L19.7096 46.7663C20.3369 46.7663 20.8455 46.2577 20.8455 45.6304C20.8455 45.003 20.3369 44.4945 19.7096 44.4945L10.6222 44.4945L10.6222 35.4071C10.6222 34.7798 10.1137 34.2712 9.48633 34.2712C8.85898 34.2712 8.35041 34.7798 8.35041 35.4071L8.35041 45.6304ZM10.2895 46.4336L25.2046 31.5185L23.5982 29.9121L8.68311 44.8272L10.2895 46.4336Z" fill="#F5F5F5"/>
<path d="M46.7668 9.48584C46.7668 8.85849 46.2582 8.34992 45.6309 8.34992L35.4076 8.34992C34.7803 8.34992 34.2717 8.85849 34.2717 9.48584C34.2717 10.1132 34.7803 10.6218 35.4076 10.6218L44.4949 10.6218L44.4949 19.7091C44.4949 20.3364 45.0035 20.845 45.6309 20.845C46.2582 20.845 46.7668 20.3364 46.7668 19.7091L46.7668 9.48584ZM44.8276 8.68263L29.9125 23.5977L31.519 25.2042L46.4341 10.2891L44.8276 8.68263Z" fill="#F5F5F5"/>
<path d="M46.7668 9.48584C46.7668 8.85849 46.2582 8.34992 45.6309 8.34992L35.4076 8.34992C34.7803 8.34992 34.2717 8.85849 34.2717 9.48584C34.2717 10.1132 34.7803 10.6218 35.4076 10.6218L44.4949 10.6218L44.4949 19.7091C44.4949 20.3364 45.0035 20.845 45.6309 20.845C46.2582 20.845 46.7668 20.3364 46.7668 19.7091L46.7668 9.48584ZM44.8276 8.68263L29.9125 23.5977L31.519 25.2042L46.4341 10.2891L44.8276 8.68263Z" fill="#F5F5F5"/>
<path d="M8.35041 45.6304C8.35041 46.2577 8.85898 46.7663 9.48633 46.7663L19.7096 46.7663C20.3369 46.7663 20.8455 46.2577 20.8455 45.6304C20.8455 45.003 20.3369 44.4945 19.7096 44.4945L10.6222 44.4945L10.6222 35.4071C10.6222 34.7798 10.1137 34.2712 9.48633 34.2712C8.85898 34.2712 8.35041 34.7798 8.35041 35.4071L8.35041 45.6304ZM10.2895 46.4336L25.2046 31.5185L23.5982 29.9121L8.68311 44.8272L10.2895 46.4336Z" fill="#F5F5F5"/>
<path d="M8.35041 45.6304C8.35041 46.2577 8.85898 46.7663 9.48633 46.7663L19.7096 46.7663C20.3369 46.7663 20.8455 46.2577 20.8455 45.6304C20.8455 45.003 20.3369 44.4945 19.7096 44.4945L10.6222 44.4945L10.6222 35.4071C10.6222 34.7798 10.1137 34.2712 9.48633 34.2712C8.85898 34.2712 8.35041 34.7798 8.35041 35.4071L8.35041 45.6304ZM10.2895 46.4336L25.2046 31.5185L23.5982 29.9121L8.68311 44.8272L10.2895 46.4336Z" fill="#F5F5F5"/>
<path d="M46.7668 9.48584C46.7668 8.85849 46.2582 8.34992 45.6309 8.34992L35.4076 8.34992C34.7803 8.34992 34.2717 8.85849 34.2717 9.48584C34.2717 10.1132 34.7803 10.6218 35.4076 10.6218L44.4949 10.6218L44.4949 19.7091C44.4949 20.3364 45.0035 20.845 45.6309 20.845C46.2582 20.845 46.7668 20.3364 46.7668 19.7091L46.7668 9.48584ZM44.8276 8.68263L29.9125 23.5977L31.519 25.2042L46.4341 10.2891L44.8276 8.68263Z" fill="#F5F5F5"/>
<path d="M46.7668 9.48584C46.7668 8.85849 46.2582 8.34992 45.6309 8.34992L35.4076 8.34992C34.7803 8.34992 34.2717 8.85849 34.2717 9.48584C34.2717 10.1132 34.7803 10.6218 35.4076 10.6218L44.4949 10.6218L44.4949 19.7091C44.4949 20.3364 45.0035 20.845 45.6309 20.845C46.2582 20.845 46.7668 20.3364 46.7668 19.7091L46.7668 9.48584ZM44.8276 8.68263L29.9125 23.5977L31.519 25.2042L46.4341 10.2891L44.8276 8.68263Z" fill="#F5F5F5"/>
<path d="M8.35041 45.6304C8.35041 46.2577 8.85898 46.7663 9.48633 46.7663L19.7096 46.7663C20.3369 46.7663 20.8455 46.2577 20.8455 45.6304C20.8455 45.003 20.3369 44.4945 19.7096 44.4945L10.6222 44.4945L10.6222 35.4071C10.6222 34.7798 10.1137 34.2712 9.48633 34.2712C8.85898 34.2712 8.35041 34.7798 8.35041 35.4071L8.35041 45.6304ZM10.2895 46.4336L25.2046 31.5185L23.5982 29.9121L8.68311 44.8272L10.2895 46.4336Z" fill="#F5F5F5"/>
<path d="M8.35041 45.6304C8.35041 46.2577 8.85898 46.7663 9.48633 46.7663L19.7096 46.7663C20.3369 46.7663 20.8455 46.2577 20.8455 45.6304C20.8455 45.003 20.3369 44.4945 19.7096 44.4945L10.6222 44.4945L10.6222 35.4071C10.6222 34.7798 10.1137 34.2712 9.48633 34.2712C8.85898 34.2712 8.35041 34.7798 8.35041 35.4071L8.35041 45.6304ZM10.2895 46.4336L25.2046 31.5185L23.5982 29.9121L8.68311 44.8272L10.2895 46.4336Z" fill="#F5F5F5"/>
<path d="M46.7668 9.48584C46.7668 8.85849 46.2582 8.34992 45.6309 8.34992L35.4076 8.34992C34.7803 8.34992 34.2717 8.85849 34.2717 9.48584C34.2717 10.1132 34.7803 10.6218 35.4076 10.6218L44.4949 10.6218L44.4949 19.7091C44.4949 20.3364 45.0035 20.845 45.6309 20.845C46.2582 20.845 46.7668 20.3364 46.7668 19.7091L46.7668 9.48584ZM44.8276 8.68263L29.9125 23.5977L31.519 25.2042L46.4341 10.2891L44.8276 8.68263Z" fill="#F5F5F5"/>
<path d="M46.7668 9.48584C46.7668 8.85849 46.2582 8.34992 45.6309 8.34992L35.4076 8.34992C34.7803 8.34992 34.2717 8.85849 34.2717 9.48584C34.2717 10.1132 34.7803 10.6218 35.4076 10.6218L44.4949 10.6218L44.4949 19.7091C44.4949 20.3364 45.0035 20.845 45.6309 20.845C46.2582 20.845 46.7668 20.3364 46.7668 19.7091L46.7668 9.48584ZM44.8276 8.68263L29.9125 23.5977L31.519 25.2042L46.4341 10.2891L44.8276 8.68263Z" fill="#F5F5F5"/>
<path d="M8.35041 45.6304C8.35041 46.2577 8.85898 46.7663 9.48633 46.7663L19.7096 46.7663C20.3369 46.7663 20.8455 46.2577 20.8455 45.6304C20.8455 45.003 20.3369 44.4945 19.7096 44.4945L10.6222 44.4945L10.6222 35.4071C10.6222 34.7798 10.1137 34.2712 9.48633 34.2712C8.85898 34.2712 8.35041 34.7798 8.35041 35.4071L8.35041 45.6304ZM10.2895 46.4336L25.2046 31.5185L23.5982 29.9121L8.68311 44.8272L10.2895 46.4336Z" fill="#F5F5F5"/>
<path d="M8.35041 45.6304C8.35041 46.2577 8.85898 46.7663 9.48633 46.7663L19.7096 46.7663C20.3369 46.7663 20.8455 46.2577 20.8455 45.6304C20.8455 45.003 20.3369 44.4945 19.7096 44.4945L10.6222 44.4945L10.6222 35.4071C10.6222 34.7798 10.1137 34.2712 9.48633 34.2712C8.85898 34.2712 8.35041 34.7798 8.35041 35.4071L8.35041 45.6304ZM10.2895 46.4336L25.2046 31.5185L23.5982 29.9121L8.68311 44.8272L10.2895 46.4336Z" fill="#F5F5F5"/>
<path d="M50.7896 15.0728C50.952 14.4668 50.5924 13.844 49.9864 13.6816L40.1115 11.0356C39.5055 10.8733 38.8826 11.2329 38.7203 11.8388C38.5579 12.4448 38.9175 13.0677 39.5235 13.23L48.3012 15.582L45.9492 24.3597C45.7868 24.9657 46.1464 25.5885 46.7524 25.7509C47.3584 25.9133 47.9813 25.5537 48.1436 24.9477L50.7896 15.0728ZM49.1244 13.7951L30.8572 24.3416L31.9931 26.3091L50.2603 15.7625L49.1244 13.7951Z" fill="#F5F5F5"/>
<path d="M50.7896 15.0728C50.952 14.4668 50.5924 13.844 49.9864 13.6816L40.1115 11.0356C39.5055 10.8733 38.8826 11.2329 38.7203 11.8388C38.5579 12.4448 38.9175 13.0677 39.5235 13.23L48.3012 15.582L45.9492 24.3597C45.7868 24.9657 46.1464 25.5885 46.7524 25.7509C47.3584 25.9133 47.9813 25.5537 48.1436 24.9477L50.7896 15.0728ZM49.1244 13.7951L30.8572 24.3416L31.9931 26.3091L50.2603 15.7625L49.1244 13.7951Z" fill="#F5F5F5"/>
<path d="M4.32759 40.0429C4.16522 40.6489 4.52484 41.2718 5.13081 41.4341L15.0057 44.0801C15.6117 44.2425 16.2345 43.8829 16.3969 43.2769C16.5593 42.6709 16.1997 42.048 15.5937 41.8857L6.81601 39.5337L9.16799 30.756C9.33036 30.15 8.97074 29.5272 8.36477 29.3648C7.7588 29.2024 7.13593 29.562 6.97356 30.168L4.32759 40.0429ZM5.99276 41.3206L24.26 30.7741L23.124 28.8066L4.85685 39.3532L5.99276 41.3206Z" fill="#F5F5F5"/>
<path d="M4.32759 40.0429C4.16522 40.6489 4.52484 41.2718 5.13081 41.4341L15.0057 44.0801C15.6117 44.2425 16.2345 43.8829 16.3969 43.2769C16.5593 42.6709 16.1997 42.048 15.5937 41.8857L6.81601 39.5337L9.16799 30.756C9.33036 30.15 8.97074 29.5272 8.36477 29.3648C7.7588 29.2024 7.13593 29.562 6.97356 30.168L4.32759 40.0429ZM5.99276 41.3206L24.26 30.7741L23.124 28.8066L4.85685 39.3532L5.99276 41.3206Z" fill="#F5F5F5"/>
<path d="M53.2288 21.5113C53.5425 20.968 53.3564 20.2733 52.8131 19.9596L43.9595 14.848C43.4162 14.5343 42.7215 14.7205 42.4078 15.2638C42.0941 15.8071 42.2803 16.5018 42.8236 16.8155L50.6934 21.3591L46.1498 29.229C45.8361 29.7723 46.0222 30.467 46.5655 30.7807C47.1088 31.0944 47.8036 30.9082 48.1172 30.3649L53.2288 21.5113ZM51.9511 19.8461L31.5767 25.3055L32.1647 27.4999L52.5391 22.0406L51.9511 19.8461Z" fill="#F5F5F5"/>
<path d="M53.2288 21.5113C53.5425 20.968 53.3564 20.2733 52.8131 19.9596L43.9595 14.848C43.4162 14.5343 42.7215 14.7205 42.4078 15.2638C42.0941 15.8071 42.2803 16.5018 42.8236 16.8155L50.6934 21.3591L46.1498 29.229C45.8361 29.7723 46.0222 30.467 46.5655 30.7807C47.1088 31.0944 47.8036 30.9082 48.1172 30.3649L53.2288 21.5113ZM51.9511 19.8461L31.5767 25.3055L32.1647 27.4999L52.5391 22.0406L51.9511 19.8461Z" fill="#F5F5F5"/>
<path d="M1.88736 33.6054C1.57369 34.1487 1.75984 34.8434 2.30314 35.1571L11.1567 40.2687C11.7 40.5824 12.3947 40.3962 12.7084 39.8529C13.0221 39.3096 12.8359 38.6149 12.2926 38.3012L4.42278 33.7576L8.96645 25.8877C9.28012 25.3444 9.09397 24.6497 8.55067 24.336C8.00737 24.0223 7.31266 24.2085 6.99898 24.7518L1.88736 33.6054ZM3.16509 35.2706L23.5395 29.8112L22.9515 27.6168L2.5771 33.0761L3.16509 35.2706Z" fill="#F5F5F5"/>
<path d="M1.88736 33.6054C1.57369 34.1487 1.75984 34.8434 2.30314 35.1571L11.1567 40.2687C11.7 40.5824 12.3947 40.3962 12.7084 39.8529C13.0221 39.3096 12.8359 38.6149 12.2926 38.3012L4.42278 33.7576L8.96645 25.8877C9.28012 25.3444 9.09397 24.6497 8.55067 24.336C8.00737 24.0223 7.31266 24.2085 6.99898 24.7518L1.88736 33.6054ZM3.16509 35.2706L23.5395 29.8112L22.9515 27.6168L2.5771 33.0761L3.16509 35.2706Z" fill="#F5F5F5"/>
<path d="M53.9194 28.3613C54.363 27.9177 54.363 27.1985 53.9194 26.7549L46.6905 19.526C46.2469 19.0824 45.5277 19.0824 45.0841 19.526C44.6405 19.9696 44.6405 20.6888 45.0841 21.1324L51.5098 27.5581L45.0841 33.9838C44.6405 34.4274 44.6405 35.1466 45.0841 35.5902C45.5277 36.0338 46.2469 36.0338 46.6905 35.5902L53.9194 28.3613ZM53.1162 26.4222L32.0231 26.4222L32.0231 28.694L53.1162 28.694L53.1162 26.4222Z" fill="#F5F5F5"/>
<path d="M53.9194 28.3613C54.363 27.9177 54.363 27.1985 53.9194 26.7549L46.6905 19.526C46.2469 19.0824 45.5277 19.0824 45.0841 19.526C44.6405 19.9696 44.6405 20.6888 45.0841 21.1324L51.5098 27.5581L45.0841 33.9838C44.6405 34.4274 44.6405 35.1466 45.0841 35.5902C45.5277 36.0338 46.2469 36.0338 46.6905 35.5902L53.9194 28.3613ZM53.1162 26.4222L32.0231 26.4222L32.0231 28.694L53.1162 28.694L53.1162 26.4222Z" fill="#F5F5F5"/>
<path d="M1.19679 26.7549C0.753183 27.1985 0.753183 27.9177 1.19679 28.3613L8.42571 35.5902C8.86931 36.0338 9.58854 36.0338 10.0321 35.5902C10.4757 35.1466 10.4757 34.4274 10.0321 33.9838L3.60643 27.5581L10.0321 21.1324C10.4757 20.6888 10.4757 19.9696 10.0321 19.526C9.58854 19.0824 8.86932 19.0824 8.42571 19.526L1.19679 26.7549ZM2 28.694L23.0931 28.694L23.0931 26.4222L2 26.4222L2 28.694Z" fill="#F5F5F5"/>
<path d="M1.19679 26.7549C0.753183 27.1985 0.753183 27.9177 1.19679 28.3613L8.42571 35.5902C8.86931 36.0338 9.58854 36.0338 10.0321 35.5902C10.4757 35.1466 10.4757 34.4274 10.0321 33.9838L3.60643 27.5581L10.0321 21.1324C10.4757 20.6888 10.4757 19.9696 10.0321 19.526C9.58854 19.0824 8.86932 19.0824 8.42571 19.526L1.19679 26.7549ZM2 28.694L23.0931 28.694L23.0931 26.4222L2 26.4222L2 28.694Z" fill="#F5F5F5"/>
<path d="M52.8131 35.1566C53.3564 34.8429 53.5425 34.1482 53.2288 33.6049L48.1172 24.7513C47.8036 24.208 47.1088 24.0219 46.5655 24.3355C46.0222 24.6492 45.8361 25.3439 46.1498 25.8872L50.6934 33.7571L42.8236 38.3007C42.2803 38.6144 42.0941 39.3091 42.4078 39.8524C42.7215 40.3957 43.4162 40.5819 43.9595 40.2682L52.8131 35.1566ZM52.5391 33.0756L32.1647 27.6163L31.5767 29.8108L51.9511 35.2701L52.5391 33.0756Z" fill="#F5F5F5"/>
<path d="M52.8131 35.1566C53.3564 34.8429 53.5425 34.1482 53.2288 33.6049L48.1172 24.7513C47.8036 24.208 47.1088 24.0219 46.5655 24.3355C46.0222 24.6492 45.8361 25.3439 46.1498 25.8872L50.6934 33.7571L42.8236 38.3007C42.2803 38.6144 42.0941 39.3091 42.4078 39.8524C42.7215 40.3957 43.4162 40.5819 43.9595 40.2682L52.8131 35.1566ZM52.5391 33.0756L32.1647 27.6163L31.5767 29.8108L51.9511 35.2701L52.5391 33.0756Z" fill="#F5F5F5"/>
<path d="M2.30314 19.9591C1.75984 20.2728 1.57369 20.9675 1.88736 21.5108L6.99898 30.3644C7.31266 30.9077 8.00737 31.0939 8.55067 30.7802C9.09397 30.4665 9.28012 29.7718 8.96645 29.2285L4.42278 21.3586L12.2926 16.815C12.8359 16.5013 13.0221 15.8066 12.7084 15.2633C12.3947 14.72 11.7 14.5338 11.1567 14.8475L2.30314 19.9591ZM2.5771 22.0401L22.9515 27.4994L23.5395 25.305L3.16509 19.8457L2.5771 22.0401Z" fill="#F5F5F5"/>
<path d="M2.30314 19.9591C1.75984 20.2728 1.57369 20.9675 1.88736 21.5108L6.99898 30.3644C7.31266 30.9077 8.00737 31.0939 8.55067 30.7802C9.09397 30.4665 9.28012 29.7718 8.96645 29.2285L4.42278 21.3586L12.2926 16.815C12.8359 16.5013 13.0221 15.8066 12.7084 15.2633C12.3947 14.72 11.7 14.5338 11.1567 14.8475L2.30314 19.9591ZM2.5771 22.0401L22.9515 27.4994L23.5395 25.305L3.16509 19.8457L2.5771 22.0401Z" fill="#F5F5F5"/>
<path d="M49.9864 41.4346C50.5924 41.2722 50.952 40.6494 50.7896 40.0434L48.1436 30.1685C47.9813 29.5625 47.3584 29.2029 46.7524 29.3653C46.1464 29.5277 45.7868 30.1505 45.9492 30.7565L48.3012 39.5342L39.5235 41.8862C38.9175 42.0485 38.5579 42.6714 38.7203 43.2774C38.8826 43.8833 39.5055 44.243 40.1115 44.0806L49.9864 41.4346ZM50.2603 39.3537L31.9931 28.8071L30.8572 30.7746L49.1244 41.3211L50.2603 39.3537Z" fill="#F5F5F5"/>
<path d="M49.9864 41.4346C50.5924 41.2722 50.952 40.6494 50.7896 40.0434L48.1436 30.1685C47.9813 29.5625 47.3584 29.2029 46.7524 29.3653C46.1464 29.5277 45.7868 30.1505 45.9492 30.7565L48.3012 39.5342L39.5235 41.8862C38.9175 42.0485 38.5579 42.6714 38.7203 43.2774C38.8826 43.8833 39.5055 44.243 40.1115 44.0806L49.9864 41.4346ZM50.2603 39.3537L31.9931 28.8071L30.8572 30.7746L49.1244 41.3211L50.2603 39.3537Z" fill="#F5F5F5"/>
<path d="M5.13081 13.6821C4.52484 13.8445 4.16522 14.4673 4.32759 15.0733L6.97356 24.9482C7.13593 25.5542 7.7588 25.9138 8.36477 25.7514C8.97074 25.589 9.33035 24.9662 9.16799 24.3602L6.81601 15.5825L15.5937 13.2305C16.1997 13.0682 16.5593 12.4453 16.3969 11.8393C16.2345 11.2334 15.6117 10.8737 15.0057 11.0361L5.13081 13.6821ZM4.85685 15.763L23.124 26.3096L24.26 24.3421L5.99276 13.7956L4.85685 15.763Z" fill="#F5F5F5"/>
<path d="M5.13081 13.6821C4.52484 13.8445 4.16522 14.4673 4.32759 15.0733L6.97356 24.9482C7.13593 25.5542 7.7588 25.9138 8.36477 25.7514C8.97074 25.589 9.33035 24.9662 9.16799 24.3602L6.81601 15.5825L15.5937 13.2305C16.1997 13.0682 16.5593 12.4453 16.3969 11.8393C16.2345 11.2334 15.6117 10.8737 15.0057 11.0361L5.13081 13.6821ZM4.85685 15.763L23.124 26.3096L24.26 24.3421L5.99276 13.7956L4.85685 15.763Z" fill="#F5F5F5"/>
<path d="M45.6309 46.7663C46.2582 46.7663 46.7668 46.2577 46.7668 45.6304L46.7668 35.4071C46.7668 34.7798 46.2582 34.2712 45.6309 34.2712C45.0035 34.2712 44.4949 34.7798 44.4949 35.4071L44.4949 44.4945L35.4076 44.4945C34.7803 44.4945 34.2717 45.003 34.2717 45.6304C34.2717 46.2577 34.7803 46.7663 35.4076 46.7663L45.6309 46.7663ZM46.4341 44.8272L31.519 29.9121L29.9125 31.5185L44.8276 46.4336L46.4341 44.8272Z" fill="#F5F5F5"/>
<path d="M45.6309 46.7663C46.2582 46.7663 46.7668 46.2577 46.7668 45.6304L46.7668 35.4071C46.7668 34.7798 46.2582 34.2712 45.6309 34.2712C45.0035 34.2712 44.4949 34.7798 44.4949 35.4071L44.4949 44.4945L35.4076 44.4945C34.7803 44.4945 34.2717 45.003 34.2717 45.6304C34.2717 46.2577 34.7803 46.7663 35.4076 46.7663L45.6309 46.7663ZM46.4341 44.8272L31.519 29.9121L29.9125 31.5185L44.8276 46.4336L46.4341 44.8272Z" fill="#F5F5F5"/>
<path d="M9.48633 8.34992C8.85898 8.34992 8.35041 8.85849 8.35041 9.48584L8.35041 19.7091C8.35041 20.3364 8.85898 20.845 9.48633 20.845C10.1137 20.845 10.6222 20.3364 10.6222 19.7091L10.6222 10.6218L19.7096 10.6218C20.3369 10.6218 20.8455 10.1132 20.8455 9.48584C20.8455 8.85849 20.3369 8.34992 19.7096 8.34992L9.48633 8.34992ZM8.68311 10.2891L23.5982 25.2042L25.2046 23.5977L10.2895 8.68263L8.68311 10.2891Z" fill="#F5F5F5"/>
<path d="M9.48633 8.34992C8.85898 8.34992 8.35041 8.85849 8.35041 9.48584L8.35041 19.7091C8.35041 20.3364 8.85898 20.845 9.48633 20.845C10.1137 20.845 10.6222 20.3364 10.6222 19.7091L10.6222 10.6218L19.7096 10.6218C20.3369 10.6218 20.8455 10.1132 20.8455 9.48584C20.8455 8.85849 20.3369 8.34992 19.7096 8.34992L9.48633 8.34992ZM8.68311 10.2891L23.5982 25.2042L25.2046 23.5977L10.2895 8.68263L8.68311 10.2891Z" fill="#F5F5F5"/>
</svg>
